{
.appVersion = "3151";
classes = (
{
code = "c D A z P H s e E F C w T N v B L q G O V J S x X Y U W I Z";
name = aalt;
},
{
code = "c.9 D.002 A.001 z.9 P.001 H.001 s.1 e.9 E.001 F.001 C.001 w.9 T.001 N.001 v.9 B.001 L.001 q.9 G.001 O.001 V.001 J.001 S.001 x.9 X.001 Y.001 U.001 W.001 I.001 Z.001";
name = aalt2;
},
{
code = "n r m i h c l g d z u s t o e w y p v b k q j f x a";
name = fina;
},
{
code = "n.9 r.9 m.9 i.9 h.9 c.9 l.9 g.9 d.9 z.9 u.9 s.1 t.9 o.9 e.9 w.9 y.9 p.9 v.9 b.9 k.9 q.9 j.9 f.9 x.9 a.999";
name = fina2;
},
{
code = "r i h l g R s w Q v b k M K u a L";
name = salt;
},
{
code = "r.1 i.1 h.1 l.1 g.1 R.tranqui s.1 w.9 Q.tranqui v.9 b.1 k.2 M.tranqui K.tranqui u.serif a_romana L.tranqui";
name = salt2;
},
{
code = "n m i h l d u t o a";
name = ss01;
},
{
code = "n.5 m.5 i.5 h.5 l.5 d.5 u.5 t.5 o.5 a.55";
name = ss012;
},
{
code = "h l D g A R P H E F C y Q T p N B L k M j f G O V K J S X Y U W I Z";
name = ss03;
},
{
code = "h.1.short l.1.short D.002 g.short A.001 R.001 P.001 H.001 E.001 F.001 C.001 y.short Q.001 T.001 p.short N.001 B.001 L.001 k.2.short M.001 j.short f.short G.001 O.001 V.001 K.001 J.001 S.001 X.001 Y.001 U.001 W.001 I.001 Z.001";
name = ss032;
},
{
code = "A.001 B.001 C.001 D.002 E.001 F.001 G.001 H.001 I.001 J.001 K.001 L.001 M.001 N.001 O.001 P.001 Q.001 R.001 S.001 T.001 U.001 V.001 W.001 X.001 Y.001 Z.001";
name = capstranqui;
},
{
code = "A B C D E F G H I J K L M N O P Q R S T U V W X Y Z";
name = caps;
},
{
code = "a a.9 a.99 a.5 a.6 a.1 a_romana a.55 a.66 a.999 a.9999 b b.9 b.1 b.3 c c.ss06 c.9 d d.5 d.9 d.6 e e.ss06 e.9 f f.9 f.short f.3 g g.ss05 g.1 g.short g.3 g.9 h h.ss08 h.1 h.5 h.9 h.6 h.1.short h.3 i i.1 i.5 i.9 j j.9 j.short j.ss05 k k.3 k.9 k.1 k.2 k.swsh k.2.short l l.1 l.1.short l.9 l.5 l.6 m m.5 m.9 m.6 n n.9 n.5 n.6 o o.5 o.9 o.swsh p p.9 p.short p.3 q q.9 r r.1 r.9 s s.ss06 s.1 s.9 t t.ss05 t.5 t.9 t.6 u u.serif u.5 u.6 u.9 v v.ss07 v.9 w w.9 x x.9 y y.short y.9 y.3 z z.9";
name = minus;
}
);

glyphs = (
{
color = (153,255,154,255);
glyphname = a;
layers = (
{
associatedMasterId = "E49D03F4-B1E6-4C13-A892-FA4C930543A3";
hints = (
{
horizontal = 1;
place = "{0, -20}";
target = down;
type = TopGhost;
},
{
horizontal = 1;
place = "{-10, 21}";
type = Stem;
},
{
horizontal = 1;
place = "{574, -20}";
target = down;
type = TopGhost;
}
);
layerId = "8D885328-48A4-407E-A23D-039AF65C631F";
name = Regular.1;
paths = (
{
closed = 1;
nodes = (
"387 1 OFFCURVE",
"404 78 OFFCURVE",
"436 208 CURVE SMOOTH",
"522 561 LINE",
"448 561 LINE",
"432 496 LINE",
"417 551 OFFCURVE",
"377 574 OFFCURVE",
"323 574 CURVE SMOOTH",
"208 574 OFFCURVE",
"88 444 OFFCURVE",
"52 282 CURVE SMOOTH",
"18 120 OFFCURVE",
"68 -10 OFFCURVE",
"186 -10 CURVE SMOOTH",
"241 -10 OFFCURVE",
"307 42 OFFCURVE",
"344 135 CURVE",
"349 135 LINE",
"346 119 LINE SMOOTH",
"334 56 OFFCURVE",
"339 -8 OFFCURVE",
"419 -8 CURVE SMOOTH",
"446 -8 OFFCURVE",
"471 3 OFFCURVE",
"482 20 CURVE",
"480 25 LINE",
"471 11 OFFCURVE",
"457 3 OFFCURVE",
"441 3 CURVE"
);
},
{
closed = 1;
nodes = (
"363 208 LINE SMOOTH",
"345 133 OFFCURVE",
"287 0 OFFCURVE",
"193 0 CURVE SMOOTH",
"120 0 OFFCURVE",
"88 94 OFFCURVE",
"136 282 CURVE SMOOTH",
"184 471 OFFCURVE",
"255 570 OFFCURVE",
"328 570 CURVE SMOOTH",
"370 570 OFFCURVE",
"404 550 OFFCURVE",
"419 498 CURVE SMOOTH",
"425 475 OFFCURVE",
"423 452 OFFCURVE",
"415 421 CURVE SMOOTH"
);
}
);
width = 494;
},
{
associatedMasterId = "E49D03F4-B1E6-4C13-A892-FA4C930543A3";
layerId = "3A45E4B8-543F-4BDE-9F07-77ABAA78DA7A";
name = public.background;
width = 494;
},
{
anchors = (
{
name = top;
position = "{373, 677}";
}
);
hints = (
{
horizontal = 1;
place = "{0, -20}";
target = down;
type = TopGhost;
},
{
horizontal = 1;
place = "{-10, 21}";
type = Stem;
},
{
horizontal = 1;
place = "{574, -20}";
target = down;
type = TopGhost;
}
);
layerId = "E49D03F4-B1E6-4C13-A892-FA4C930543A3";
paths = (
{
closed = 1;
nodes = (
"249 -10 OFFCURVE",
"307 45 OFFCURVE",
"350 156 CURVE",
"354 156 LINE",
"345 118 LINE SMOOTH",
"330 55 OFFCURVE",
"339 -8 OFFCURVE",
"419 -8 CURVE SMOOTH",
"446 -8 OFFCURVE",
"471 3 OFFCURVE",
"482 20 CURVE",
"480 25 LINE",
"471 11 OFFCURVE",
"457 3 OFFCURVE",
"441 3 CURVE SMOOTH",
"387 1 OFFCURVE",
"404 78 OFFCURVE",
"436 208 CURVE SMOOTH",
"522 561 LINE",
"493 561 LINE",
"388 123 LINE SMOOTH",
"377 79 OFFCURVE",
"368 7 OFFCURVE",
"414 4 CURVE",
"414 3 LINE",
"365 -2 OFFCURVE",
"364 73 OFFCURVE",
"376 123 CURVE SMOOTH",
"480 561 LINE",
"448 561 LINE",
"432 496 LINE",
"418 548 OFFCURVE",
"388 574 OFFCURVE",
"332 574 CURVE SMOOTH",
"186 574 OFFCURVE",
"79 408 OFFCURVE",
"52 282 CURVE SMOOTH",
"16 113 OFFCURVE",
"73 -10 OFFCURVE",
"186 -10 CURVE SMOOTH"
);
},
{
closed = 1;
nodes = (
"181 458 OFFCURVE",
"260 569 OFFCURVE",
"339 569 CURVE SMOOTH",
"400 569 OFFCURVE",
"421 519 OFFCURVE",
"421 469 CURVE SMOOTH",
"421 452 OFFCURVE",
"419 436 OFFCURVE",
"415 421 CURVE SMOOTH",
"369 234 LINE SMOOTH",
"335 95 OFFCURVE",
"269 0 OFFCURVE",
"193 0 CURVE SMOOTH",
"114 0 OFFCURVE",
"92 108 OFFCURVE",
"136 282 CURVE SMOOTH"
);
},
{
closed = 1;
nodes = (
"128 440 OFFCURVE",
"219 540 OFFCURVE",
"287 567 CURVE",
"287 565 LINE",
"220 538 OFFCURVE",
"142 442 OFFCURVE",
"103 286 CURVE SMOOTH",
"80 195 OFFCURVE",
"61 26 OFFCURVE",
"171 -2 CURVE",
"171 -3 LINE",
"60 24 OFFCURVE",
"64 193 OFFCURVE",
"88 286 CURVE SMOOTH"
);
}
);
width = 494;
}
);
leftKerningGroup = oporizq;
unicode = 0061;
},
{
color = (255,153,254,255);
glyphname = a.9;
layers = (
{
hints = (
{
place = "{9, 75}";
type = Stem;
},
{
place = "{141, 48}";
type = Stem;
},
{
place = "{141, 126}";
type = Stem;
},
{
place = "{321, 74}";
type = Stem;
},
{
place = "{643, 185}";
type = Stem;
},
{
place = "{775, 53}";
type = Stem;
},
{
horizontal = 1;
place = "{-145, 148}";
type = Stem;
},
{
horizontal = 1;
place = "{124, 65}";
type = Stem;
},
{
horizontal = 1;
place = "{376, 52}";
type = Stem;
},
{
horizontal = 1;
place = "{376, 202}";
type = Stem;
}
);
layerId = "E49D03F4-B1E6-4C13-A892-FA4C930543A3";
paths = (
{
closed = 1;
nodes = (
"312 -42 OFFCURVE",
"362 -145 OFFCURVE",
"556 -145 CURVE SMOOTH",
"707 -145 OFFCURVE",
"819 -22 OFFCURVE",
"819 81 CURVE SMOOTH",
"819 148 OFFCURVE",
"772 189 OFFCURVE",
"719 189 CURVE SMOOTH",
"668 189 OFFCURVE",
"634 151 OFFCURVE",
"634 107 CURVE SMOOTH",
"634 100 OFFCURVE",
"634 93 OFFCURVE",
"636 86 CURVE",
"645 111 OFFCURVE",
"668 124 OFFCURVE",
"691 124 CURVE SMOOTH",
"725 124 OFFCURVE",
"766 98 OFFCURVE",
"766 34 CURVE SMOOTH",
"766 -52 OFFCURVE",
"693 -139 OFFCURVE",
"564 -139 CURVE SMOOTH",
"436 -139 OFFCURVE",
"385 -45 OFFCURVE",
"385 59 CURVE SMOOTH",
"385 95 OFFCURVE",
"397 140 OFFCURVE",
"414 208 CURVE SMOOTH",
"456 375 LINE SMOOTH",
"488 502 OFFCURVE",
"432 578 OFFCURVE",
"308 578 CURVE SMOOTH",
"216 578 OFFCURVE",
"134 510 OFFCURVE",
"134 434 CURVE SMOOTH",
"134 396 OFFCURVE",
"163 366 OFFCURVE",
"199 366 CURVE SMOOTH",
"239 366 OFFCURVE",
"266 396 OFFCURVE",
"265 438 CURVE",
"257 426 OFFCURVE",
"245 421 OFFCURVE",
"229 421 CURVE SMOOTH",
"202 421 OFFCURVE",
"182 441 OFFCURVE",
"182 469 CURVE SMOOTH",
"182 525 OFFCURVE",
"239 572 OFFCURVE",
"305 572 CURVE SMOOTH",
"383 572 OFFCURVE",
"416 501 OFFCURVE",
"388 390 CURVE",
"369 330 OFFCURVE",
"305 301 OFFCURVE",
"234 275 CURVE SMOOTH",
"143 241 OFFCURVE",
"9 209 OFFCURVE",
"9 86 CURVE SMOOTH",
"9 18 OFFCURVE",
"63 -10 OFFCURVE",
"125 -10 CURVE SMOOTH",
"224 -10 OFFCURVE",
"287 82 OFFCURVE",
"329 177 CURVE",
"333 177 LINE",
"326 143 OFFCURVE",
"312 100 OFFCURVE",
"312 56 CURVE SMOOTH"
);
},
{
closed = 1;
nodes = (
"376 354 OFFCURVE",
"378 353 OFFCURVE",
"376 344 CURVE SMOOTH",
"347 237 LINE SMOOTH",
"327 162 OFFCURVE",
"249 9 OFFCURVE",
"151 9 CURVE SMOOTH",
"108 9 OFFCURVE",
"84 45 OFFCURVE",
"84 93 CURVE SMOOTH",
"84 195 OFFCURVE",
"159 235 OFFCURVE",
"240 270 CURVE SMOOTH",
"290 292 OFFCURVE",
"339 311 OFFCURVE",
"370 347 CURVE SMOOTH"
);
},
{
closed = 1;
nodes = (
"134 -3 LINE",
"94 -3 OFFCURVE",
"40 21 OFFCURVE",
"40 86 CURVE SMOOTH",
"40 164 OFFCURVE",
"89 207 OFFCURVE",
"154 238 CURVE",
"154 236 LINE",
"91 204 OFFCURVE",
"54 159 OFFCURVE",
"54 86 CURVE SMOOTH",
"54 23 OFFCURVE",
"100 -1 OFFCURVE",
"134 -1 CURVE"
);
},
{
closed = 1;
nodes = (
"191 516 LINE",
"175 499 OFFCURVE",
"163 478 OFFCURVE",
"163 455 CURVE SMOOTH",
"163 425 OFFCURVE",
"186 398 OFFCURVE",
"211 398 CURVE SMOOTH",
"222 398 OFFCURVE",
"234 401 OFFCURVE",
"245 410 CURVE",
"246 409 LINE",
"235 398 OFFCURVE",
"220 393 OFFCURVE",
"205 393 CURVE SMOOTH",
"181 393 OFFCURVE",
"157 411 OFFCURVE",
"157 444 CURVE SMOOTH",
"157 472 OFFCURVE",
"173 499 OFFCURVE",
"190 517 CURVE"
);
},
{
closed = 1;
nodes = (
"512 -139 LINE",
"404 -119 OFFCURVE",
"311 -56 OFFCURVE",
"360 147 CURVE SMOOTH",
"421 401 LINE SMOOTH",
"440 479 OFFCURVE",
"417 560 OFFCURVE",
"355 569 CURVE",
"356 570 LINE",
"421 559 OFFCURVE",
"452 483 OFFCURVE",
"432 399 CURVE SMOOTH",
"371 147 LINE SMOOTH",
"322 -56 OFFCURVE",
"419 -119 OFFCURVE",
"513 -138 CURVE"
);
},
{
closed = 1;
nodes = (
"661 143 LINE",
"670 157 OFFCURVE",
"689 164 OFFCURVE",
"708 164 CURVE SMOOTH",
"758 164 OFFCURVE",
"796 120 OFFCURVE",
"796 60 CURVE SMOOTH",
"796 18 OFFCURVE",
"779 -25 OFFCURVE",
"746 -62 CURVE",
"744 -60 LINE",
"780 -22 OFFCURVE",
"791 19 OFFCURVE",
"791 59 CURVE SMOOTH",
"791 114 OFFCURVE",
"750 157 OFFCURVE",
"696 157 CURVE SMOOTH",
"683 157 OFFCURVE",
"669 153 OFFCURVE",
"663 143 CURVE"
);
}
);
width = 839;
}
);
},
{
color = (255,153,254,255);
glyphname = a.99;
layers = (
{
hints = (
{
place = "{9, 75}";
type = Stem;
},
{
place = "{141, 48}";
type = Stem;
},
{
place = "{141, 126}";
type = Stem;
},
{
place = "{531, 56}";
type = Stem;
},
{
place = "{531, 159}";
type = Stem;
},
{
place = "{1007, 45}";
type = Stem;
},
{
horizontal = 1;
place = "{-211, 214}";
type = Stem;
},
{
horizontal = 1;
place = "{73, 57}";
type = Stem;
},
{
horizontal = 1;
place = "{365, 63}";
type = Stem;
},
{
horizontal = 1;
place = "{365, 213}";
type = Stem;
}
);
layerId = "E49D03F4-B1E6-4C13-A892-FA4C930543A3";
paths = (
{
closed = 1;
nodes = (
"312 -69 OFFCURVE",
"377 -211 OFFCURVE",
"619 -211 CURVE SMOOTH",
"897 -211 OFFCURVE",
"1033 -7 OFFCURVE",
"1033 133 CURVE SMOOTH",
"1033 251 OFFCURVE",
"936 370 OFFCURVE",
"777 370 CURVE SMOOTH",
"638 370 OFFCURVE",
"512 279 OFFCURVE",
"512 170 CURVE SMOOTH",
"512 116 OFFCURVE",
"543 73 OFFCURVE",
"598 73 CURVE SMOOTH",
"647 73 OFFCURVE",
"671 108 OFFCURVE",
"671 141 CURVE SMOOTH",
"671 148 OFFCURVE",
"670 155 OFFCURVE",
"668 161 CURVE",
"662 141 OFFCURVE",
"644 130 OFFCURVE",
"624 130 CURVE SMOOTH",
"588 130 OFFCURVE",
"568 165 OFFCURVE",
"568 208 CURVE SMOOTH",
"568 303 OFFCURVE",
"666 365 OFFCURVE",
"769 365 CURVE SMOOTH",
"907 365 OFFCURVE",
"988 255 OFFCURVE",
"988 136 CURVE SMOOTH",
"988 7 OFFCURVE",
"893 -201 OFFCURVE",
"648 -201 CURVE SMOOTH",
"455 -201 OFFCURVE",
"385 -89 OFFCURVE",
"385 41 CURVE SMOOTH",
"385 95 OFFCURVE",
"397 140 OFFCURVE",
"414 208 CURVE SMOOTH",
"456 375 LINE SMOOTH",
"488 502 OFFCURVE",
"432 578 OFFCURVE",
"308 578 CURVE SMOOTH",
"216 578 OFFCURVE",
"134 510 OFFCURVE",
"134 434 CURVE SMOOTH",
"134 396 OFFCURVE",
"163 366 OFFCURVE",
"199 366 CURVE SMOOTH",
"239 366 OFFCURVE",
"266 396 OFFCURVE",
"265 438 CURVE",
"257 426 OFFCURVE",
"245 421 OFFCURVE",
"229 421 CURVE SMOOTH",
"202 421 OFFCURVE",
"182 441 OFFCURVE",
"182 469 CURVE SMOOTH",
"182 525 OFFCURVE",
"239 572 OFFCURVE",
"305 572 CURVE SMOOTH",
"383 572 OFFCURVE",
"416 501 OFFCURVE",
"388 390 CURVE",
"369 330 OFFCURVE",
"305 301 OFFCURVE",
"234 275 CURVE SMOOTH",
"143 241 OFFCURVE",
"9 209 OFFCURVE",
"9 86 CURVE SMOOTH",
"9 18 OFFCURVE",
"63 -10 OFFCURVE",
"125 -10 CURVE SMOOTH",
"224 -10 OFFCURVE",
"287 82 OFFCURVE",
"329 177 CURVE",
"333 177 LINE",
"326 143 OFFCURVE",
"312 100 OFFCURVE",
"312 46 CURVE SMOOTH"
);
},
{
closed = 1;
nodes = (
"376 354 OFFCURVE",
"378 353 OFFCURVE",
"376 344 CURVE SMOOTH",
"347 237 LINE SMOOTH",
"327 162 OFFCURVE",
"249 9 OFFCURVE",
"151 9 CURVE SMOOTH",
"108 9 OFFCURVE",
"84 45 OFFCURVE",
"84 93 CURVE SMOOTH",
"84 195 OFFCURVE",
"159 235 OFFCURVE",
"240 270 CURVE SMOOTH",
"290 292 OFFCURVE",
"339 311 OFFCURVE",
"370 347 CURVE SMOOTH"
);
},
{
closed = 1;
nodes = (
"134 -3 LINE",
"94 -3 OFFCURVE",
"40 21 OFFCURVE",
"40 86 CURVE SMOOTH",
"40 164 OFFCURVE",
"89 207 OFFCURVE",
"154 238 CURVE",
"154 236 LINE",
"91 204 OFFCURVE",
"54 159 OFFCURVE",
"54 86 CURVE SMOOTH",
"54 23 OFFCURVE",
"100 -1 OFFCURVE",
"134 -1 CURVE"
);
},
{
closed = 1;
nodes = (
"191 516 LINE",
"175 499 OFFCURVE",
"163 478 OFFCURVE",
"163 455 CURVE SMOOTH",
"163 426 OFFCURVE",
"185 398 OFFCURVE",
"211 398 CURVE SMOOTH",
"222 398 OFFCURVE",
"234 401 OFFCURVE",
"245 410 CURVE",
"246 409 LINE",
"235 398 OFFCURVE",
"220 393 OFFCURVE",
"205 393 CURVE SMOOTH",
"181 393 OFFCURVE",
"157 411 OFFCURVE",
"157 444 CURVE SMOOTH",
"157 472 OFFCURVE",
"173 499 OFFCURVE",
"190 517 CURVE"
);
},
{
closed = 1;
nodes = (
"556 -199 LINE",
"463 -183 OFFCURVE",
"346 -140 OFFCURVE",
"346 46 CURVE SMOOTH",
"346 93 OFFCURVE",
"357 147 OFFCURVE",
"374 215 CURVE SMOOTH",
"420 401 LINE SMOOTH",
"439 479 OFFCURVE",
"411 560 OFFCURVE",
"349 569 CURVE",
"350 570 LINE",
"415 559 OFFCURVE",
"452 483 OFFCURVE",
"431 399 CURVE SMOOTH",
"385 215 LINE SMOOTH",
"368 146 OFFCURVE",
"356 91 OFFCURVE",
"356 44 CURVE SMOOTH",
"356 -143 OFFCURVE",
"476 -182 OFFCURVE",
"557 -198 CURVE"
);
},
{
closed = 1;
nodes = (
"889 342 LINE",
"968 302 OFFCURVE",
"1015 221 OFFCURVE",
"1015 136 CURVE SMOOTH",
"1015 52 OFFCURVE",
"967 -73 OFFCURVE",
"858 -141 CURVE",
"856 -139 LINE",
"961 -71 OFFCURVE",
"1005 52 OFFCURVE",
"1005 136 CURVE SMOOTH",
"1005 220 OFFCURVE",
"962 300 OFFCURVE",
"889 340 CURVE"
);
},
{
closed = 1;
nodes = (
"591 298 LINE",
"566 270 OFFCURVE",
"545 228 OFFCURVE",
"545 188 CURVE SMOOTH",
"545 166 OFFCURVE",
"552 145 OFFCURVE",
"569 127 CURVE SMOOTH",
"599 95 OFFCURVE",
"643 103 OFFCURVE",
"658 132 CURVE",
"660 132 LINE",
"645 97 OFFCURVE",
"591 86 OFFCURVE",
"561 118 CURVE SMOOTH",
"544 136 OFFCURVE",
"537 157 OFFCURVE",
"537 180 CURVE SMOOTH",
"537 222 OFFCURVE",
"561 270 OFFCURVE",
"589 300 CURVE"
);
}
);
width = 1054;
}
);
},
{
color = (255,153,254,255);
glyphname = a.5;
layers = (
{
hints = (
{
place = "{9, 75}";
type = Stem;
},
{
place = "{141, 48}";
type = Stem;
},
{
place = "{141, 126}";
type = Stem;
},
{
place = "{533, 25}";
type = Stem;
},
{
horizontal = 1;
place = "{-154, 157}";
type = Stem;
},
{
horizontal = 1;
place = "{376, 52}";
type = Stem;
},
{
horizontal = 1;
place = "{376, 202}";
type = Stem;
}
);
layerId = "E49D03F4-B1E6-4C13-A892-FA4C930543A3";
paths = (
{
closed = 1;
nodes = (
"309 -78 OFFCURVE",
"346 -154 OFFCURVE",
"462 -154 CURVE SMOOTH",
"500 -154 OFFCURVE",
"558 -133 OFFCURVE",
"558 -90 CURVE SMOOTH",
"558 -70 OFFCURVE",
"543 -52 OFFCURVE",
"519 -55 CURVE",
"526 -60 OFFCURVE",
"533 -70 OFFCURVE",
"533 -82 CURVE SMOOTH",
"533 -121 OFFCURVE",
"502 -150 OFFCURVE",
"463 -150 CURVE SMOOTH",
"424 -150 OFFCURVE",
"380 -107 OFFCURVE",
"380 6 CURVE SMOOTH",
"380 69 OFFCURVE",
"394 125 OFFCURVE",
"414 208 CURVE SMOOTH",
"456 375 LINE SMOOTH",
"488 502 OFFCURVE",
"432 578 OFFCURVE",
"308 578 CURVE SMOOTH",
"216 578 OFFCURVE",
"134 510 OFFCURVE",
"134 434 CURVE SMOOTH",
"134 396 OFFCURVE",
"163 366 OFFCURVE",
"199 366 CURVE SMOOTH",
"239 366 OFFCURVE",
"266 396 OFFCURVE",
"265 438 CURVE",
"257 426 OFFCURVE",
"245 421 OFFCURVE",
"229 421 CURVE SMOOTH",
"202 421 OFFCURVE",
"182 441 OFFCURVE",
"182 469 CURVE SMOOTH",
"182 525 OFFCURVE",
"239 572 OFFCURVE",
"305 572 CURVE SMOOTH",
"383 572 OFFCURVE",
"416 501 OFFCURVE",
"388 390 CURVE",
"369 330 OFFCURVE",
"305 301 OFFCURVE",
"234 275 CURVE SMOOTH",
"143 241 OFFCURVE",
"9 209 OFFCURVE",
"9 86 CURVE SMOOTH",
"9 18 OFFCURVE",
"63 -10 OFFCURVE",
"125 -10 CURVE SMOOTH",
"224 -10 OFFCURVE",
"287 82 OFFCURVE",
"329 177 CURVE",
"333 177 LINE",
"326 133 OFFCURVE",
"309 94 OFFCURVE",
"309 25 CURVE SMOOTH"
);
},
{
closed = 1;
nodes = (
"376 354 OFFCURVE",
"378 353 OFFCURVE",
"376 344 CURVE SMOOTH",
"347 237 LINE SMOOTH",
"327 162 OFFCURVE",
"249 9 OFFCURVE",
"151 9 CURVE SMOOTH",
"108 9 OFFCURVE",
"84 45 OFFCURVE",
"84 93 CURVE SMOOTH",
"84 195 OFFCURVE",
"159 235 OFFCURVE",
"240 270 CURVE SMOOTH",
"290 292 OFFCURVE",
"339 311 OFFCURVE",
"370 347 CURVE SMOOTH"
);
},
{
closed = 1;
nodes = (
"191 516 LINE",
"175 499 OFFCURVE",
"163 478 OFFCURVE",
"163 455 CURVE SMOOTH",
"163 426 OFFCURVE",
"185 398 OFFCURVE",
"211 398 CURVE SMOOTH",
"222 398 OFFCURVE",
"234 401 OFFCURVE",
"245 410 CURVE",
"246 409 LINE",
"235 398 OFFCURVE",
"220 393 OFFCURVE",
"205 393 CURVE SMOOTH",
"181 393 OFFCURVE",
"157 411 OFFCURVE",
"157 444 CURVE SMOOTH",
"157 472 OFFCURVE",
"173 499 OFFCURVE",
"190 517 CURVE"
);
},
{
closed = 1;
nodes = (
"134 -3 LINE",
"94 -3 OFFCURVE",
"40 21 OFFCURVE",
"40 86 CURVE SMOOTH",
"40 164 OFFCURVE",
"89 207 OFFCURVE",
"154 238 CURVE",
"154 236 LINE",
"91 204 OFFCURVE",
"54 159 OFFCURVE",
"54 86 CURVE SMOOTH",
"54 23 OFFCURVE",
"100 -1 OFFCURVE",
"134 -1 CURVE"
);
},
{
closed = 1;
nodes = (
"349 570 LINE",
"414 568 OFFCURVE",
"452 483 OFFCURVE",
"431 399 CURVE SMOOTH",
"369 147 LINE SMOOTH",
"324 -35 OFFCURVE",
"357 -121 OFFCURVE",
"426 -144 CURVE",
"426 -145 LINE",
"347 -124 OFFCURVE",
"317 -23 OFFCURVE",
"358 147 CURVE SMOOTH",
"420 401 LINE SMOOTH",
"439 479 OFFCURVE",
"409 569 OFFCURVE",
"348 569 CURVE"
);
},
{
closed = 1;
nodes = (
"498 -143 LINE",
"546 -126 OFFCURVE",
"548 -74 OFFCURVE",
"533 -63 CURVE",
"534 -63 LINE",
"553 -74 OFFCURVE",
"553 -127 OFFCURVE",
"500 -143 CURVE"
);
}
);
width = 476;
}
);
},
{
color = (255,153,254,255);
glyphname = a.6;
layers = (
{
hints = (
{
place = "{9, 75}";
type = Stem;
},
{
place = "{141, 48}";
type = Stem;
},
{
place = "{141, 126}";
type = Stem;
},
{
place = "{757, 185}";
type = Stem;
},
{
place = "{889, 53}";
type = Stem;
},
{
horizontal = 1;
place = "{-433, 21}";
type = Stem;
},
{
horizontal = 1;
place = "{-156, 65}";
type = Stem;
},
{
horizontal = 1;
place = "{376, 52}";
type = Stem;
},
{
horizontal = 1;
place = "{376, 202}";
type = Stem;
}
);
layerId = "E49D03F4-B1E6-4C13-A892-FA4C930543A3";
paths = (
{
closed = 1;
nodes = (
"805 -433 OFFCURVE",
"948 -322 OFFCURVE",
"948 -195 CURVE SMOOTH",
"948 -137 OFFCURVE",
"904 -91 OFFCURVE",
"848 -91 CURVE SMOOTH",
"800 -91 OFFCURVE",
"763 -126 OFFCURVE",
"763 -173 CURVE SMOOTH",
"763 -180 OFFCURVE",
"763 -187 OFFCURVE",
"765 -194 CURVE",
"773 -171 OFFCURVE",
"795 -156 OFFCURVE",
"820 -156 CURVE SMOOTH",
"864 -156 OFFCURVE",
"895 -194 OFFCURVE",
"895 -246 CURVE SMOOTH",
"895 -345 OFFCURVE",
"800 -419 OFFCURVE",
"675 -419 CURVE SMOOTH",
"444 -419 OFFCURVE",
"374 -263 OFFCURVE",
"374 -76 CURVE SMOOTH",
"374 16 OFFCURVE",
"391 116 OFFCURVE",
"414 208 CURVE SMOOTH",
"456 375 LINE SMOOTH",
"488 502 OFFCURVE",
"432 578 OFFCURVE",
"308 578 CURVE SMOOTH",
"216 578 OFFCURVE",
"134 510 OFFCURVE",
"134 434 CURVE SMOOTH",
"134 396 OFFCURVE",
"163 366 OFFCURVE",
"199 366 CURVE SMOOTH",
"239 366 OFFCURVE",
"266 396 OFFCURVE",
"265 438 CURVE",
"257 426 OFFCURVE",
"245 421 OFFCURVE",
"229 421 CURVE SMOOTH",
"202 421 OFFCURVE",
"182 441 OFFCURVE",
"182 469 CURVE SMOOTH",
"182 525 OFFCURVE",
"239 572 OFFCURVE",
"305 572 CURVE SMOOTH",
"383 572 OFFCURVE",
"416 501 OFFCURVE",
"388 390 CURVE",
"369 330 OFFCURVE",
"305 301 OFFCURVE",
"234 275 CURVE SMOOTH",
"143 241 OFFCURVE",
"9 209 OFFCURVE",
"9 86 CURVE SMOOTH",
"9 18 OFFCURVE",
"63 -10 OFFCURVE",
"125 -10 CURVE SMOOTH",
"224 -10 OFFCURVE",
"287 82 OFFCURVE",
"329 177 CURVE",
"333 177 LINE",
"312 100 OFFCURVE",
"300 20 OFFCURVE",
"300 -56 CURVE SMOOTH",
"300 -259 OFFCURVE",
"388 -433 OFFCURVE",
"640 -433 CURVE SMOOTH"
);
},
{
closed = 1;
nodes = (
"376 354 OFFCURVE",
"378 353 OFFCURVE",
"376 344 CURVE SMOOTH",
"347 237 LINE SMOOTH",
"327 162 OFFCURVE",
"249 9 OFFCURVE",
"151 9 CURVE SMOOTH",
"108 9 OFFCURVE",
"84 45 OFFCURVE",
"84 93 CURVE SMOOTH",
"84 195 OFFCURVE",
"159 235 OFFCURVE",
"240 270 CURVE SMOOTH",
"290 292 OFFCURVE",
"339 311 OFFCURVE",
"370 347 CURVE SMOOTH"
);
},
{
closed = 1;
nodes = (
"191 516 LINE",
"175 499 OFFCURVE",
"163 478 OFFCURVE",
"163 455 CURVE SMOOTH",
"163 426 OFFCURVE",
"185 398 OFFCURVE",
"211 398 CURVE SMOOTH",
"222 398 OFFCURVE",
"234 401 OFFCURVE",
"245 410 CURVE",
"246 409 LINE",
"235 398 OFFCURVE",
"220 393 OFFCURVE",
"205 393 CURVE SMOOTH",
"181 393 OFFCURVE",
"157 411 OFFCURVE",
"157 444 CURVE SMOOTH",
"157 472 OFFCURVE",
"173 499 OFFCURVE",
"190 517 CURVE"
);
},
{
closed = 1;
nodes = (
"134 -3 LINE",
"94 -3 OFFCURVE",
"40 21 OFFCURVE",
"40 86 CURVE SMOOTH",
"40 164 OFFCURVE",
"89 207 OFFCURVE",
"154 238 CURVE",
"154 236 LINE",
"91 204 OFFCURVE",
"54 159 OFFCURVE",
"54 86 CURVE SMOOTH",
"54 23 OFFCURVE",
"100 -1 OFFCURVE",
"134 -1 CURVE"
);
},
{
closed = 1;
nodes = (
"579 -421 LINE",
"427 -397 OFFCURVE",
"333 -261 OFFCURVE",
"333 -57 CURVE SMOOTH",
"333 0 OFFCURVE",
"338 68 OFFCURVE",
"354 134 CURVE SMOOTH",
"421 408 LINE SMOOTH",
"440 486 OFFCURVE",
"405 564 OFFCURVE",
"347 569 CURVE",
"348 570 LINE",
"412 563 OFFCURVE",
"453 490 OFFCURVE",
"432 406 CURVE SMOOTH",
"365 134 LINE SMOOTH",
"349 68 OFFCURVE",
"343 2 OFFCURVE",
"343 -55 CURVE SMOOTH",
"343 -258 OFFCURVE",
"433 -395 OFFCURVE",
"579 -419 CURVE"
);
},
{
closed = 1;
nodes = (
"787 -136 LINE",
"796 -122 OFFCURVE",
"815 -115 OFFCURVE",
"834 -115 CURVE SMOOTH",
"885 -115 OFFCURVE",
"922 -157 OFFCURVE",
"922 -213 CURVE SMOOTH",
"922 -258 OFFCURVE",
"905 -301 OFFCURVE",
"872 -341 CURVE",
"870 -339 LINE",
"906 -298 OFFCURVE",
"917 -257 OFFCURVE",
"917 -214 CURVE SMOOTH",
"917 -157 OFFCURVE",
"871 -122 OFFCURVE",
"822 -122 CURVE SMOOTH",
"809 -122 OFFCURVE",
"795 -126 OFFCURVE",
"789 -136 CURVE"
);
}
);
width = 465;
}
);
},
{
color = (255,153,254,255);
glyphname = a.1;
layers = (
{
anchors = (
{
name = top;
position = "{373, 677}";
}
);
hints = (
{
horizontal = 1;
place = "{0, -20}";
target = down;
type = TopGhost;
},
{
horizontal = 1;
place = "{-10, 21}";
type = Stem;
},
{
horizontal = 1;
place = "{574, -20}";
target = down;
type = TopGhost;
}
);
layerId = "E49D03F4-B1E6-4C13-A892-FA4C930543A3";
paths = (
{
closed = 1;
nodes = (
"249 -10 OFFCURVE",
"307 45 OFFCURVE",
"350 156 CURVE",
"354 156 LINE",
"345 118 LINE SMOOTH",
"330 55 OFFCURVE",
"339 -8 OFFCURVE",
"419 -8 CURVE SMOOTH",
"446 -8 OFFCURVE",
"471 3 OFFCURVE",
"482 20 CURVE",
"480 25 LINE",
"471 11 OFFCURVE",
"457 3 OFFCURVE",
"441 3 CURVE",
"387 1 OFFCURVE",
"404 78 OFFCURVE",
"436 208 CURVE SMOOTH",
"522 561 LINE",
"493 561 LINE",
"390 123 LINE SMOOTH",
"380 79 OFFCURVE",
"368 7 OFFCURVE",
"414 4 CURVE",
"414 3 LINE",
"365 -2 OFFCURVE",
"365 73 OFFCURVE",
"377 123 CURVE SMOOTH",
"480 561 LINE",
"448 561 LINE",
"432 496 LINE",
"418 548 OFFCURVE",
"388 574 OFFCURVE",
"332 574 CURVE SMOOTH",
"186 574 OFFCURVE",
"79 408 OFFCURVE",
"52 282 CURVE SMOOTH",
"16 113 OFFCURVE",
"73 -10 OFFCURVE",
"186 -10 CURVE SMOOTH"
);
},
{
closed = 1;
nodes = (
"181 458 OFFCURVE",
"260 569 OFFCURVE",
"339 569 CURVE SMOOTH",
"400 569 OFFCURVE",
"421 519 OFFCURVE",
"421 469 CURVE SMOOTH",
"421 452 OFFCURVE",
"419 436 OFFCURVE",
"415 421 CURVE SMOOTH",
"369 234 LINE SMOOTH",
"335 95 OFFCURVE",
"269 0 OFFCURVE",
"193 0 CURVE SMOOTH",
"114 0 OFFCURVE",
"92 108 OFFCURVE",
"136 282 CURVE SMOOTH"
);
},
{
closed = 1;
nodes = (
"128 440 OFFCURVE",
"219 540 OFFCURVE",
"287 567 CURVE",
"287 565 LINE",
"220 538 OFFCURVE",
"142 442 OFFCURVE",
"103 286 CURVE SMOOTH",
"80 195 OFFCURVE",
"61 26 OFFCURVE",
"171 -2 CURVE",
"171 -3 LINE",
"60 24 OFFCURVE",
"64 193 OFFCURVE",
"88 286 CURVE SMOOTH"
);
}
);
width = 494;
}
);
leftKerningGroup = oporizq;
},
{
color = (255,153,254,255);
glyphname = a_romana;
layers = (
{
hints = (
{
place = "{4, 75}";
type = Stem;
},
{
place = "{136, 48}";
type = Stem;
},
{
place = "{136, 126}";
type = Stem;
},
{
horizontal = 1;
place = "{-10, 21}";
type = Stem;
},
{
horizontal = 1;
place = "{376, 52}";
type = Stem;
},
{
horizontal = 1;
place = "{376, 202}";
type = Stem;
}
);
layerId = "E49D03F4-B1E6-4C13-A892-FA4C930543A3";
paths = (
{
closed = 1;
nodes = (
"376 354 OFFCURVE",
"378 353 OFFCURVE",
"376 344 CURVE SMOOTH",
"347 237 LINE SMOOTH",
"327 162 OFFCURVE",
"249 9 OFFCURVE",
"151 9 CURVE SMOOTH",
"108 9 OFFCURVE",
"84 45 OFFCURVE",
"84 93 CURVE SMOOTH",
"84 195 OFFCURVE",
"159 235 OFFCURVE",
"240 270 CURVE SMOOTH",
"290 292 OFFCURVE",
"339 311 OFFCURVE",
"370 347 CURVE SMOOTH"
);
},
{
closed = 1;
nodes = (
"311 29 OFFCURVE",
"332 -8 OFFCURVE",
"400 -8 CURVE SMOOTH",
"427 -8 OFFCURVE",
"452 3 OFFCURVE",
"463 20 CURVE",
"461 25 LINE",
"452 11 OFFCURVE",
"439 3 OFFCURVE",
"422 3 CURVE SMOOTH",
"394 3 OFFCURVE",
"382 20 OFFCURVE",
"382 54 CURVE SMOOTH",
"382 90 OFFCURVE",
"397 140 OFFCURVE",
"414 208 CURVE SMOOTH",
"456 375 LINE SMOOTH",
"488 502 OFFCURVE",
"432 578 OFFCURVE",
"308 578 CURVE SMOOTH",
"216 578 OFFCURVE",
"134 510 OFFCURVE",
"134 434 CURVE SMOOTH",
"134 396 OFFCURVE",
"163 366 OFFCURVE",
"199 366 CURVE SMOOTH",
"239 366 OFFCURVE",
"266 396 OFFCURVE",
"265 438 CURVE",
"257 426 OFFCURVE",
"245 421 OFFCURVE",
"229 421 CURVE SMOOTH",
"202 421 OFFCURVE",
"182 441 OFFCURVE",
"182 469 CURVE SMOOTH",
"182 525 OFFCURVE",
"239 572 OFFCURVE",
"305 572 CURVE SMOOTH",
"383 572 OFFCURVE",
"416 501 OFFCURVE",
"388 390 CURVE",
"369 330 OFFCURVE",
"305 301 OFFCURVE",
"234 275 CURVE SMOOTH",
"143 241 OFFCURVE",
"9 209 OFFCURVE",
"9 86 CURVE SMOOTH",
"9 18 OFFCURVE",
"63 -10 OFFCURVE",
"125 -10 CURVE SMOOTH",
"224 -10 OFFCURVE",
"287 82 OFFCURVE",
"329 177 CURVE",
"333 177 LINE",
"325 148 OFFCURVE",
"311 106 OFFCURVE",
"311 77 CURVE SMOOTH"
);
},
{
closed = 1;
nodes = (
"134 -3 LINE",
"94 -3 OFFCURVE",
"40 21 OFFCURVE",
"40 86 CURVE SMOOTH",
"40 164 OFFCURVE",
"89 207 OFFCURVE",
"154 238 CURVE",
"154 236 LINE",
"91 204 OFFCURVE",
"54 159 OFFCURVE",
"54 86 CURVE SMOOTH",
"54 23 OFFCURVE",
"100 -1 OFFCURVE",
"134 -1 CURVE"
);
},
{
closed = 1;
nodes = (
"191 516 LINE",
"175 499 OFFCURVE",
"163 478 OFFCURVE",
"163 455 CURVE SMOOTH",
"163 426 OFFCURVE",
"185 398 OFFCURVE",
"211 398 CURVE SMOOTH",
"222 398 OFFCURVE",
"234 401 OFFCURVE",
"245 410 CURVE",
"246 409 LINE",
"235 398 OFFCURVE",
"220 393 OFFCURVE",
"205 393 CURVE SMOOTH",
"181 393 OFFCURVE",
"157 411 OFFCURVE",
"157 444 CURVE SMOOTH",
"157 472 OFFCURVE",
"173 499 OFFCURVE",
"190 517 CURVE"
);
},
{
closed = 1;
nodes = (
"349 570 LINE",
"413 563 OFFCURVE",
"454 490 OFFCURVE",
"433 406 CURVE SMOOTH",
"368 143 LINE SMOOTH",
"357 99 OFFCURVE",
"341 7 OFFCURVE",
"387 4 CURVE",
"387 3 LINE",
"338 -2 OFFCURVE",
"344 93 OFFCURVE",
"356 143 CURVE SMOOTH",
"421 408 LINE SMOOTH",
"440 486 OFFCURVE",
"406 564 OFFCURVE",
"348 569 CURVE"
);
}
);
width = 473;
}
);
},
{
color = (255,153,254,255);
glyphname = a.55;
layers = (
{
associatedMasterId = "E49D03F4-B1E6-4C13-A892-FA4C930543A3";
layerId = "3A45E4B8-543F-4BDE-9F07-77ABAA78DA7A";
name = public.background;
width = 489;
},
{
hints = (
{
place = "{406, 150}";
type = Stem;
},
{
place = "{556, 25}";
type = Stem;
},
{
horizontal = 1;
place = "{-154, 154}";
type = Stem;
},
{
horizontal = 1;
place = "{574, -20}";
target = down;
type = TopGhost;
}
);
layerId = "E49D03F4-B1E6-4C13-A892-FA4C930543A3";
paths = (
{
closed = 1;
nodes = (
"249 -10 OFFCURVE",
"307 45 OFFCURVE",
"350 156 CURVE",
"354 156 LINE",
"350 136 LINE SMOOTH",
"342 96 OFFCURVE",
"336 53 OFFCURVE",
"336 13 CURVE SMOOTH",
"336 -77 OFFCURVE",
"368 -154 OFFCURVE",
"484 -154 CURVE SMOOTH",
"522 -154 OFFCURVE",
"580 -133 OFFCURVE",
"580 -90 CURVE SMOOTH",
"580 -70 OFFCURVE",
"565 -52 OFFCURVE",
"541 -55 CURVE",
"548 -60 OFFCURVE",
"555 -70 OFFCURVE",
"555 -82 CURVE SMOOTH",
"555 -121 OFFCURVE",
"534 -148 OFFCURVE",
"495 -148 CURVE SMOOTH",
"451 -148 OFFCURVE",
"404 -111 OFFCURVE",
"404 -11 CURVE SMOOTH",
"404 61 OFFCURVE",
"419 139 OFFCURVE",
"436 208 CURVE SMOOTH",
"522 561 LINE",
"493 561 LINE",
"395 147 LINE SMOOTH",
"351 -35 OFFCURVE",
"381 -121 OFFCURVE",
"450 -144 CURVE",
"450 -145 LINE",
"371 -124 OFFCURVE",
"343 -23 OFFCURVE",
"383 147 CURVE SMOOTH",
"480 561 LINE",
"448 561 LINE",
"432 496 LINE",
"418 548 OFFCURVE",
"388 574 OFFCURVE",
"332 574 CURVE SMOOTH",
"186 574 OFFCURVE",
"79 408 OFFCURVE",
"52 282 CURVE SMOOTH",
"16 113 OFFCURVE",
"73 -10 OFFCURVE",
"186 -10 CURVE SMOOTH"
);
},
{
closed = 1;
nodes = (
"158 368 OFFCURVE",
"219 569 OFFCURVE",
"339 569 CURVE SMOOTH",
"400 569 OFFCURVE",
"421 519 OFFCURVE",
"421 469 CURVE SMOOTH",
"421 452 OFFCURVE",
"419 436 OFFCURVE",
"415 421 CURVE SMOOTH",
"369 234 LINE SMOOTH",
"335 95 OFFCURVE",
"269 0 OFFCURVE",
"193 0 CURVE SMOOTH",
"114 0 OFFCURVE",
"92 108 OFFCURVE",
"136 282 CURVE SMOOTH"
);
},
{
closed = 1;
nodes = (
"128 440 OFFCURVE",
"219 540 OFFCURVE",
"287 567 CURVE",
"287 565 LINE",
"220 538 OFFCURVE",
"142 442 OFFCURVE",
"103 286 CURVE SMOOTH",
"80 195 OFFCURVE",
"61 26 OFFCURVE",
"171 -2 CURVE",
"171 -3 LINE",
"60 24 OFFCURVE",
"64 193 OFFCURVE",
"88 286 CURVE SMOOTH"
);
},
{
closed = 1;
nodes = (
"559 -62 LINE",
"577 -73 OFFCURVE",
"577 -128 OFFCURVE",
"527 -144 CURVE",
"525 -144 LINE",
"570 -127 OFFCURVE",
"572 -73 OFFCURVE",
"558 -62 CURVE"
);
}
);
width = 489;
}
);
leftKerningGroup = oporizq;
},
{
color = (255,153,254,255);
glyphname = a.66;
layers = (
{
hints = (
{
place = "{773, 185}";
type = Stem;
},
{
place = "{905, 53}";
type = Stem;
},
{
horizontal = 1;
place = "{-433, 21}";
type = Stem;
},
{
horizontal = 1;
place = "{-156, 65}";
type = Stem;
},
{
horizontal = 1;
place = "{0, -20}";
target = down;
type = TopGhost;
},
{
horizontal = 1;
place = "{574, -20}";
target = down;
type = TopGhost;
}
);
layerId = "E49D03F4-B1E6-4C13-A892-FA4C930543A3";
paths = (
{
closed = 1;
nodes = (
"249 -10 OFFCURVE",
"307 45 OFFCURVE",
"350 156 CURVE",
"354 156 LINE",
"337 83 OFFCURVE",
"327 9 OFFCURVE",
"327 -60 CURVE SMOOTH",
"327 -301 OFFCURVE",
"447 -433 OFFCURVE",
"668 -433 CURVE SMOOTH",
"887 -433 OFFCURVE",
"976 -280 OFFCURVE",
"976 -195 CURVE SMOOTH",
"976 -134 OFFCURVE",
"929 -91 OFFCURVE",
"876 -91 CURVE SMOOTH",
"825 -91 OFFCURVE",
"791 -129 OFFCURVE",
"791 -173 CURVE SMOOTH",
"791 -180 OFFCURVE",
"791 -187 OFFCURVE",
"793 -194 CURVE",
"802 -169 OFFCURVE",
"825 -156 OFFCURVE",
"848 -156 CURVE SMOOTH",
"882 -156 OFFCURVE",
"923 -182 OFFCURVE",
"923 -246 CURVE SMOOTH",
"923 -332 OFFCURVE",
"847 -423 OFFCURVE",
"702 -423 CURVE SMOOTH",
"502 -423 OFFCURVE",
"398 -302 OFFCURVE",
"398 -70 CURVE SMOOTH",
"398 16 OFFCURVE",
"412 111 OFFCURVE",
"436 208 CURVE SMOOTH",
"522 561 LINE",
"491 561 LINE",
"405 204 LINE SMOOTH",
"383 112 OFFCURVE",
"368 18 OFFCURVE",
"368 -61 CURVE SMOOTH",
"368 -262 OFFCURVE",
"460 -395 OFFCURVE",
"604 -419 CURVE",
"604 -421 LINE",
"454 -397 OFFCURVE",
"357 -265 OFFCURVE",
"357 -63 CURVE SMOOTH",
"357 16 OFFCURVE",
"372 112 OFFCURVE",
"394 204 CURVE SMOOTH",
"480 561 LINE",
"448 561 LINE",
"432 496 LINE",
"418 548 OFFCURVE",
"388 574 OFFCURVE",
"332 574 CURVE SMOOTH",
"186 574 OFFCURVE",
"79 408 OFFCURVE",
"52 282 CURVE SMOOTH",
"16 113 OFFCURVE",
"73 -10 OFFCURVE",
"186 -10 CURVE SMOOTH"
);
},
{
closed = 1;
nodes = (
"158 368 OFFCURVE",
"219 569 OFFCURVE",
"339 569 CURVE SMOOTH",
"400 569 OFFCURVE",
"421 519 OFFCURVE",
"421 469 CURVE SMOOTH",
"421 452 OFFCURVE",
"419 436 OFFCURVE",
"415 421 CURVE SMOOTH",
"369 234 LINE SMOOTH",
"335 95 OFFCURVE",
"269 0 OFFCURVE",
"193 0 CURVE SMOOTH",
"114 0 OFFCURVE",
"92 108 OFFCURVE",
"136 282 CURVE SMOOTH"
);
},
{
closed = 1;
nodes = (
"128 440 OFFCURVE",
"219 540 OFFCURVE",
"287 567 CURVE",
"287 565 LINE",
"220 538 OFFCURVE",
"142 442 OFFCURVE",
"103 286 CURVE SMOOTH",
"80 195 OFFCURVE",
"61 26 OFFCURVE",
"171 -2 CURVE",
"171 -3 LINE",
"60 24 OFFCURVE",
"64 193 OFFCURVE",
"88 286 CURVE SMOOTH"
);
},
{
closed = 1;
nodes = (
"914 -120 OFFCURVE",
"951 -162 OFFCURVE",
"951 -218 CURVE SMOOTH",
"951 -263 OFFCURVE",
"934 -306 OFFCURVE",
"901 -346 CURVE",
"899 -344 LINE",
"935 -303 OFFCURVE",
"946 -262 OFFCURVE",
"946 -219 CURVE SMOOTH",
"946 -162 OFFCURVE",
"900 -127 OFFCURVE",
"851 -127 CURVE SMOOTH",
"838 -127 OFFCURVE",
"824 -131 OFFCURVE",
"818 -141 CURVE",
"816 -141 LINE",
"825 -127 OFFCURVE",
"844 -120 OFFCURVE",
"863 -120 CURVE SMOOTH"
);
}
);
width = 495;
}
);
leftKerningGroup = oporizq;
},
{
color = (255,153,254,255);
glyphname = a.999;
layers = (
{
hints = (
{
place = "{339, 74}";
type = Stem;
},
{
place = "{661, 185}";
type = Stem;
},
{
place = "{793, 53}";
type = Stem;
},
{
horizontal = 1;
place = "{-145, 145}";
type = Stem;
},
{
horizontal = 1;
place = "{124, 65}";
type = Stem;
},
{
horizontal = 1;
place = "{574, -20}";
target = down;
type = TopGhost;
}
);
layerId = "E49D03F4-B1E6-4C13-A892-FA4C930543A3";
paths = (
{
closed = 1;
nodes = (
"249 -10 OFFCURVE",
"307 45 OFFCURVE",
"350 156 CURVE",
"354 156 LINE",
"345 118 LINE SMOOTH",
"341 103 OFFCURVE",
"339 77 OFFCURVE",
"339 56 CURVE SMOOTH",
"339 -42 OFFCURVE",
"389 -145 OFFCURVE",
"583 -145 CURVE SMOOTH",
"734 -145 OFFCURVE",
"846 -22 OFFCURVE",
"846 81 CURVE SMOOTH",
"846 148 OFFCURVE",
"799 189 OFFCURVE",
"746 189 CURVE SMOOTH",
"695 189 OFFCURVE",
"661 151 OFFCURVE",
"661 107 CURVE SMOOTH",
"661 100 OFFCURVE",
"661 93 OFFCURVE",
"663 86 CURVE",
"672 111 OFFCURVE",
"695 124 OFFCURVE",
"718 124 CURVE SMOOTH",
"752 124 OFFCURVE",
"793 98 OFFCURVE",
"793 34 CURVE SMOOTH",
"793 -52 OFFCURVE",
"720 -139 OFFCURVE",
"591 -139 CURVE SMOOTH",
"459 -139 OFFCURVE",
"410 -45 OFFCURVE",
"410 55 CURVE SMOOTH",
"410 90 OFFCURVE",
"419 139 OFFCURVE",
"436 208 CURVE SMOOTH",
"522 561 LINE",
"492 561 LINE",
"391 147 LINE SMOOTH",
"348 -29 OFFCURVE",
"435 -117 OFFCURVE",
"529 -136 CURVE",
"528 -137 LINE",
"420 -117 OFFCURVE",
"338 -29 OFFCURVE",
"380 147 CURVE SMOOTH",
"480 561 LINE",
"448 561 LINE",
"432 496 LINE",
"418 548 OFFCURVE",
"388 574 OFFCURVE",
"332 574 CURVE SMOOTH",
"186 574 OFFCURVE",
"79 408 OFFCURVE",
"52 282 CURVE SMOOTH",
"16 113 OFFCURVE",
"73 -10 OFFCURVE",
"186 -10 CURVE SMOOTH"
);
},
{
closed = 1;
nodes = (
"180 457 OFFCURVE",
"260 569 OFFCURVE",
"339 569 CURVE SMOOTH",
"400 569 OFFCURVE",
"421 519 OFFCURVE",
"421 469 CURVE SMOOTH",
"421 452 OFFCURVE",
"419 436 OFFCURVE",
"415 421 CURVE SMOOTH",
"369 234 LINE SMOOTH",
"335 95 OFFCURVE",
"269 0 OFFCURVE",
"193 0 CURVE SMOOTH",
"114 0 OFFCURVE",
"92 108 OFFCURVE",
"136 282 CURVE SMOOTH"
);
},
{
closed = 1;
nodes = (
"128 440 OFFCURVE",
"219 540 OFFCURVE",
"287 567 CURVE",
"287 565 LINE",
"220 538 OFFCURVE",
"142 442 OFFCURVE",
"103 286 CURVE SMOOTH",
"80 195 OFFCURVE",
"61 26 OFFCURVE",
"171 -2 CURVE",
"171 -3 LINE",
"60 24 OFFCURVE",
"64 193 OFFCURVE",
"88 286 CURVE SMOOTH"
);
},
{
closed = 1;
nodes = (
"785 164 OFFCURVE",
"822 119 OFFCURVE",
"822 60 CURVE SMOOTH",
"822 18 OFFCURVE",
"805 -25 OFFCURVE",
"772 -62 CURVE",
"770 -60 LINE",
"806 -22 OFFCURVE",
"817 19 OFFCURVE",
"817 59 CURVE SMOOTH",
"817 119 OFFCURVE",
"771 157 OFFCURVE",
"722 157 CURVE SMOOTH",
"709 157 OFFCURVE",
"695 153 OFFCURVE",
"689 143 CURVE",
"687 143 LINE",
"696 157 OFFCURVE",
"715 164 OFFCURVE",
"734 164 CURVE SMOOTH"
);
}
);
width = 882;
}
);
leftKerningGroup = oporizq;
},
{
color = (255,153,254,255);
glyphname = a.9999;
layers = (
{
hints = (
{
place = "{548, 56}";
type = Stem;
},
{
place = "{548, 159}";
type = Stem;
},
{
place = "{1024, 45}";
type = Stem;
},
{
horizontal = 1;
place = "{-211, 211}";
type = Stem;
},
{
horizontal = 1;
place = "{73, 57}";
type = Stem;
},
{
horizontal = 1;
place = "{574, -20}";
target = down;
type = TopGhost;
}
);
layerId = "E49D03F4-B1E6-4C13-A892-FA4C930543A3";
paths = (
{
closed = 1;
nodes = (
"249 -10 OFFCURVE",
"307 45 OFFCURVE",
"350 156 CURVE",
"354 156 LINE",
"345 118 LINE SMOOTH",
"341 103 OFFCURVE",
"339 77 OFFCURVE",
"339 55 CURVE SMOOTH",
"339 -69 OFFCURVE",
"405 -211 OFFCURVE",
"648 -211 CURVE SMOOTH",
"926 -211 OFFCURVE",
"1062 -7 OFFCURVE",
"1062 133 CURVE SMOOTH",
"1062 251 OFFCURVE",
"965 370 OFFCURVE",
"806 370 CURVE SMOOTH",
"667 370 OFFCURVE",
"541 279 OFFCURVE",
"541 170 CURVE SMOOTH",
"541 116 OFFCURVE",
"572 73 OFFCURVE",
"627 73 CURVE SMOOTH",
"676 73 OFFCURVE",
"700 108 OFFCURVE",
"700 141 CURVE SMOOTH",
"700 148 OFFCURVE",
"699 155 OFFCURVE",
"697 161 CURVE",
"691 141 OFFCURVE",
"673 130 OFFCURVE",
"653 130 CURVE SMOOTH",
"617 130 OFFCURVE",
"597 165 OFFCURVE",
"597 208 CURVE SMOOTH",
"597 303 OFFCURVE",
"695 365 OFFCURVE",
"798 365 CURVE SMOOTH",
"936 365 OFFCURVE",
"1017 255 OFFCURVE",
"1017 136 CURVE SMOOTH",
"1017 7 OFFCURVE",
"922 -201 OFFCURVE",
"677 -201 CURVE SMOOTH",
"488 -201 OFFCURVE",
"410 -97 OFFCURVE",
"410 55 CURVE SMOOTH",
"410 90 OFFCURVE",
"419 139 OFFCURVE",
"436 208 CURVE SMOOTH",
"522 561 LINE",
"493 561 LINE",
"408 222 LINE SMOOTH",
"329 -94 OFFCURVE",
"455 -172 OFFCURVE",
"574 -194 CURVE",
"573 -195 LINE",
"440 -172 OFFCURVE",
"319 -88 OFFCURVE",
"397 222 CURVE SMOOTH",
"482 561 LINE",
"448 561 LINE",
"432 496 LINE",
"418 548 OFFCURVE",
"388 574 OFFCURVE",
"332 574 CURVE SMOOTH",
"186 574 OFFCURVE",
"79 408 OFFCURVE",
"52 282 CURVE SMOOTH",
"16 113 OFFCURVE",
"73 -10 OFFCURVE",
"186 -10 CURVE SMOOTH"
);
},
{
closed = 1;
nodes = (
"180 457 OFFCURVE",
"260 569 OFFCURVE",
"339 569 CURVE SMOOTH",
"400 569 OFFCURVE",
"421 519 OFFCURVE",
"421 469 CURVE SMOOTH",
"421 452 OFFCURVE",
"419 436 OFFCURVE",
"415 421 CURVE SMOOTH",
"369 234 LINE SMOOTH",
"335 95 OFFCURVE",
"269 0 OFFCURVE",
"193 0 CURVE SMOOTH",
"114 0 OFFCURVE",
"92 108 OFFCURVE",
"136 282 CURVE SMOOTH"
);
},
{
closed = 1;
nodes = (
"128 440 OFFCURVE",
"219 540 OFFCURVE",
"287 567 CURVE",
"287 565 LINE",
"220 538 OFFCURVE",
"142 442 OFFCURVE",
"103 286 CURVE SMOOTH",
"80 195 OFFCURVE",
"61 26 OFFCURVE",
"171 -2 CURVE",
"171 -3 LINE",
"60 24 OFFCURVE",
"64 193 OFFCURVE",
"88 286 CURVE SMOOTH"
);
},
{
closed = 1;
nodes = (
"1035 220 OFFCURVE",
"992 300 OFFCURVE",
"919 340 CURVE",
"919 342 LINE",
"998 302 OFFCURVE",
"1045 221 OFFCURVE",
"1045 136 CURVE SMOOTH",
"1045 52 OFFCURVE",
"997 -73 OFFCURVE",
"888 -141 CURVE",
"886 -139 LINE",
"991 -71 OFFCURVE",
"1035 52 OFFCURVE",
"1035 136 CURVE SMOOTH"
);
},
{
closed = 1;
nodes = (
"621 300 LINE",
"580 256 OFFCURVE",
"545 179 OFFCURVE",
"594 127 CURVE SMOOTH",
"624 95 OFFCURVE",
"668 103 OFFCURVE",
"683 132 CURVE",
"685 132 LINE",
"670 97 OFFCURVE",
"616 86 OFFCURVE",
"586 118 CURVE SMOOTH",
"537 170 OFFCURVE",
"572 254 OFFCURVE",
"619 302 CURVE"
);
}
);
width = 1101;
}
);
leftKerningGroup = oporizq;
},
{
color = (153,255,154,255);
glyphname = b;
layers = (
{
hints = (
{
horizontal = 1;
place = "{-22, 21}";
type = Stem;
},
{
horizontal = 1;
place = "{920, -20}";
target = down;
type = TopGhost;
}
);
layerId = "E49D03F4-B1E6-4C13-A892-FA4C930543A3";
paths = (
{
closed = 1;
nodes = (
"104 48 OFFCURVE",
"123 25 OFFCURVE",
"153 9 CURVE SMOOTH",
"176 -3 OFFCURVE",
"198 -10 OFFCURVE",
"219 -10 CURVE SMOOTH",
"225 -10 LINE SMOOTH",
"397 -10 OFFCURVE",
"509 226 OFFCURVE",
"509 385 CURVE SMOOTH",
"509 499 OFFCURVE",
"452 574 OFFCURVE",
"372 574 CURVE SMOOTH",
"302 574 OFFCURVE",
"240 517 OFFCURVE",
"194 410 CURVE",
"190 410 LINE",
"310 910 LINE",
"277 905 LINE",
"78 48 LINE",
"79 48 OFFCURVE",
"79 48 OFFCURVE",
"80 48 CURVE SMOOTH"
);
},
{
closed = 1;
nodes = (
"176 334 LINE",
"220 486 OFFCURVE",
"288 564 OFFCURVE",
"355 564 CURVE SMOOTH",
"407 564 OFFCURVE",
"437 518 OFFCURVE",
"437 436 CURVE SMOOTH",
"437 300 OFFCURVE",
"354 -6 OFFCURVE",
"220 -6 CURVE SMOOTH",
"178 -6 OFFCURVE",
"142 14 OFFCURVE",
"127 66 CURVE SMOOTH",
"120 90 OFFCURVE",
"125 115 OFFCURVE",
"133 150 CURVE SMOOTH"
);
},
{
closed = 1;
nodes = (
"19 -22 LINE",
"26 1 LINE SMOOTH",
"34 27 OFFCURVE",
"46 42 OFFCURVE",
"65 46 CURVE",
"264 903 LINE",
"154 888 LINE",
"154 884 LINE",
"188 884 LINE SMOOTH",
"222 884 OFFCURVE",
"228 878 OFFCURVE",
"218 836 CURVE SMOOTH",
"35 45 LINE",
"14 -22 LINE"
);
},
{
closed = 1;
nodes = (
"268 3 LINE",
"349 35 OFFCURVE",
"412 126 OFFCURVE",
"452 282 CURVE SMOOTH",
"475 371 OFFCURVE",
"495 538 OFFCURVE",
"382 566 CURVE",
"382 567 LINE",
"496 540 OFFCURVE",
"490 373 OFFCURVE",
"466 282 CURVE SMOOTH",
"425 128 OFFCURVE",
"350 33 OFFCURVE",
"268 1 CURVE"
);
}
);
width = 495;
}
);
rightKerningGroup = oporder;
unicode = 0062;
},
{
color = (255,153,254,255);
glyphname = b.9;
layers = (
{
hints = (
{
place = "{543, 185}";
type = Stem;
},
{
place = "{675, 53}";
type = Stem;
},
{
horizontal = 1;
place = "{-69, 63}";
type = Stem;
},
{
horizontal = 1;
place = "{207, 65}";
type = Stem;
},
{
horizontal = 1;
place = "{920, -20}";
target = down;
type = TopGhost;
}
);
layerId = "E49D03F4-B1E6-4C13-A892-FA4C930543A3";
paths = (
{
closed = 1;
nodes = (
"78 48 LINE",
"102 48 OFFCURVE",
"120 24 OFFCURVE",
"151 9 CURVE SMOOTH",
"212 -21 OFFCURVE",
"304 -69 OFFCURVE",
"422 -69 CURVE SMOOTH",
"594 -69 OFFCURVE",
"726 57 OFFCURVE",
"726 164 CURVE SMOOTH",
"726 231 OFFCURVE",
"679 272 OFFCURVE",
"626 272 CURVE SMOOTH",
"575 272 OFFCURVE",
"541 234 OFFCURVE",
"541 190 CURVE SMOOTH",
"541 183 OFFCURVE",
"541 176 OFFCURVE",
"543 169 CURVE",
"552 194 OFFCURVE",
"575 207 OFFCURVE",
"598 207 CURVE SMOOTH",
"632 207 OFFCURVE",
"673 181 OFFCURVE",
"673 117 CURVE SMOOTH",
"673 27 OFFCURVE",
"572 -65 OFFCURVE",
"422 -65 CURVE SMOOTH",
"356 -65 OFFCURVE",
"296 -40 OFFCURVE",
"232 -14 CURVE",
"236 -9 LINE",
"347 0 OFFCURVE",
"459 126 OFFCURVE",
"494 282 CURVE SMOOTH",
"528 444 OFFCURVE",
"478 574 OFFCURVE",
"360 574 CURVE SMOOTH",
"300 574 OFFCURVE",
"238 517 OFFCURVE",
"192 410 CURVE",
"310 910 LINE",
"277 905 LINE"
);
},
{
closed = 1;
nodes = (
"174 334 LINE",
"218 486 OFFCURVE",
"286 564 OFFCURVE",
"353 564 CURVE SMOOTH",
"426 564 OFFCURVE",
"458 470 OFFCURVE",
"410 282 CURVE SMOOTH",
"362 93 OFFCURVE",
"291 -6 OFFCURVE",
"218 -6 CURVE SMOOTH",
"170 -6 OFFCURVE",
"137 23 OFFCURVE",
"125 66 CURVE SMOOTH",
"119 90 OFFCURVE",
"123 115 OFFCURVE",
"131 150 CURVE SMOOTH"
);
},
{
closed = 1;
nodes = (
"12 -22 LINE",
"17 -22 LINE",
"24 1 LINE SMOOTH",
"32 28 OFFCURVE",
"44 43 OFFCURVE",
"65 47 CURVE",
"264 903 LINE",
"154 888 LINE",
"154 884 LINE",
"188 884 LINE SMOOTH",
"222 884 OFFCURVE",
"228 878 OFFCURVE",
"218 836 CURVE SMOOTH",
"33 45 LINE"
);
},
{
closed = 1;
nodes = (
"261 3 LINE",
"342 35 OFFCURVE",
"405 126 OFFCURVE",
"445 282 CURVE SMOOTH",
"468 371 OFFCURVE",
"488 538 OFFCURVE",
"375 566 CURVE",
"375 567 LINE",
"489 540 OFFCURVE",
"483 373 OFFCURVE",
"459 282 CURVE SMOOTH",
"418 128 OFFCURVE",
"343 33 OFFCURVE",
"261 1 CURVE"
);
},
{
closed = 1;
nodes = (
"569 225 LINE",
"578 239 OFFCURVE",
"597 246 OFFCURVE",
"616 246 CURVE SMOOTH",
"667 246 OFFCURVE",
"704 204 OFFCURVE",
"704 148 CURVE SMOOTH",
"704 106 OFFCURVE",
"687 63 OFFCURVE",
"654 26 CURVE",
"652 28 LINE",
"688 66 OFFCURVE",
"699 107 OFFCURVE",
"699 147 CURVE SMOOTH",
"699 204 OFFCURVE",
"653 239 OFFCURVE",
"604 239 CURVE SMOOTH",
"591 239 OFFCURVE",
"577 235 OFFCURVE",
"571 225 CURVE"
);
}
);
width = 772;
}
);
},
{
color = (255,153,254,255);
glyphname = b.1;
layers = (
{
associatedMasterId = "E49D03F4-B1E6-4C13-A892-FA4C930543A3";
layerId = "3A45E4B8-543F-4BDE-9F07-77ABAA78DA7A";
name = public.background;
paths = (
{
closed = 1;
nodes = (
"279 915 LINE",
"76 39 LINE",
"63 37 LINE",
"266 913 LINE"
);
}
);
width = 492;
},
{
hints = (
{
place = "{497, 58}";
type = Stem;
},
{
horizontal = 1;
place = "{-22, 21}";
type = Stem;
},
{
horizontal = 1;
place = "{765, 51}";
type = Stem;
},
{
horizontal = 1;
place = "{765, 168}";
type = Stem;
}
);
layerId = "E49D03F4-B1E6-4C13-A892-FA4C930543A3";
paths = (
{
closed = 1;
nodes = (
"19 -22 LINE",
"26 1 LINE SMOOTH",
"34 27 OFFCURVE",
"46 42 OFFCURVE",
"65 46 CURVE",
"139 370 LINE SMOOTH",
"164 481 OFFCURVE",
"176 583 OFFCURVE",
"211 703 CURVE SMOOTH",
"237 793 OFFCURVE",
"300 874 OFFCURVE",
"358 908 CURVE",
"363 909 LINE",
"310 882 OFFCURVE",
"244 801 OFFCURVE",
"218 702 CURVE SMOOTH",
"187 583 OFFCURVE",
"176 478 OFFCURVE",
"151 370 CURVE SMOOTH",
"77 48 LINE",
"78 48 OFFCURVE",
"79 48 OFFCURVE",
"80 48 CURVE SMOOTH",
"104 48 OFFCURVE",
"123 27 OFFCURVE",
"153 9 CURVE SMOOTH",
"177 -5 OFFCURVE",
"202 -10 OFFCURVE",
"225 -10 CURVE SMOOTH",
"340 -10 OFFCURVE",
"461 120 OFFCURVE",
"496 282 CURVE SMOOTH",
"531 444 OFFCURVE",
"480 574 OFFCURVE",
"362 574 CURVE SMOOTH",
"302 574 OFFCURVE",
"239 515 OFFCURVE",
"193 406 CURVE",
"190 406 LINE",
"216 509 OFFCURVE",
"213 577 OFFCURVE",
"246 702 CURVE SMOOTH",
"284 847 OFFCURVE",
"367 927 OFFCURVE",
"434 927 CURVE SMOOTH",
"471 927 OFFCURVE",
"497 905 OFFCURVE",
"497 875 CURVE SMOOTH",
"497 844 OFFCURVE",
"471 816 OFFCURVE",
"441 816 CURVE SMOOTH",
"427 816 OFFCURVE",
"419 820 OFFCURVE",
"411 829 CURVE",
"407 795 OFFCURVE",
"434 765 OFFCURVE",
"467 765 CURVE SMOOTH",
"512 765 OFFCURVE",
"550 805 OFFCURVE",
"550 851 CURVE SMOOTH",
"550 899 OFFCURVE",
"505 933 OFFCURVE",
"438 933 CURVE SMOOTH",
"335 933 OFFCURVE",
"227 837 OFFCURVE",
"183 705 CURVE SMOOTH",
"148 601 OFFCURVE",
"140 493 OFFCURVE",
"110 366 CURVE SMOOTH",
"35 45 LINE",
"14 -22 LINE"
);
},
{
closed = 1;
nodes = (
"177 335 LINE",
"221 486 OFFCURVE",
"288 564 OFFCURVE",
"355 564 CURVE SMOOTH",
"428 564 OFFCURVE",
"460 470 OFFCURVE",
"412 282 CURVE SMOOTH",
"364 93 OFFCURVE",
"293 -6 OFFCURVE",
"220 -6 CURVE SMOOTH",
"178 -6 OFFCURVE",
"142 14 OFFCURVE",
"127 66 CURVE SMOOTH",
"118 95 OFFCURVE",
"127 125 OFFCURVE",
"138 172 CURVE SMOOTH"
);
},
{
closed = 1;
nodes = (
"265 3 LINE",
"346 35 OFFCURVE",
"409 126 OFFCURVE",
"449 282 CURVE SMOOTH",
"472 371 OFFCURVE",
"492 538 OFFCURVE",
"379 566 CURVE",
"379 567 LINE",
"493 540 OFFCURVE",
"487 373 OFFCURVE",
"463 282 CURVE SMOOTH",
"422 128 OFFCURVE",
"347 33 OFFCURVE",
"265 1 CURVE"
);
},
{
closed = 1;
nodes = (
"498 791 OFFCURVE",
"518 837 OFFCURVE",
"518 865 CURVE SMOOTH",
"518 898 OFFCURVE",
"497 927 OFFCURVE",
"460 927 CURVE",
"461 928 LINE",
"499 928 OFFCURVE",
"527 896 OFFCURVE",
"527 859 CURVE SMOOTH",
"527 830 OFFCURVE",
"505 786 OFFCURVE",
"462 786 CURVE SMOOTH",
"450 786 OFFCURVE",
"442 789 OFFCURVE",
"433 797 CURVE",
"433 799 LINE",
"443 791 OFFCURVE",
"452 791 OFFCURVE",
"460 791 CURVE SMOOTH"
);
}
);
width = 492;
}
);
rightKerningGroup = oporder;
},
{
color = (255,153,254,255);
glyphname = b.3;
layers = (
{
associatedMasterId = "E49D03F4-B1E6-4C13-A892-FA4C930543A3";
layerId = "3A45E4B8-543F-4BDE-9F07-77ABAA78DA7A";
name = public.background;
paths = (
{
closed = 1;
nodes = (
"279 915 LINE",
"76 39 LINE",
"63 37 LINE",
"266 913 LINE"
);
}
);
width = 492;
},
{
hints = (
{
place = "{-171, 39}";
type = Stem;
},
{
place = "{-171, 139}";
type = Stem;
},
{
place = "{703, 54}";
type = Stem;
},
{
horizontal = 1;
place = "{-22, 21}";
type = Stem;
},
{
horizontal = 1;
place = "{564, 151}";
type = Stem;
},
{
horizontal = 1;
place = "{640, 46}";
type = Stem;
},
{
horizontal = 1;
place = "{640, 223}";
type = Stem;
},
{
horizontal = 1;
place = "{710, 198}";
type = Stem;
}
);
layerId = "E49D03F4-B1E6-4C13-A892-FA4C930543A3";
paths = (
{
closed = 1;
nodes = (
"-225 690 OFFCURVE",
"-191 653 OFFCURVE",
"-143 653 CURVE SMOOTH",
"-103 653 OFFCURVE",
"-72 681 OFFCURVE",
"-72 717 CURVE SMOOTH",
"-72 723 OFFCURVE",
"-72 727 OFFCURVE",
"-73 734 CURVE",
"-81 715 OFFCURVE",
"-100 704 OFFCURVE",
"-121 704 CURVE SMOOTH",
"-159 704 OFFCURVE",
"-185 731 OFFCURVE",
"-185 771 CURVE SMOOTH",
"-185 844 OFFCURVE",
"-111 905 OFFCURVE",
"-22 905 CURVE SMOOTH",
"65 905 OFFCURVE",
"160 847 OFFCURVE",
"260 795 CURVE",
"235 768 OFFCURVE",
"213 737 OFFCURVE",
"196 702 CURVE SMOOTH",
"149 603 OFFCURVE",
"134 494 OFFCURVE",
"110 366 CURVE",
"35 45 LINE",
"14 -22 LINE",
"19 -22 LINE",
"26 1 LINE SMOOTH",
"34 27 OFFCURVE",
"46 42 OFFCURVE",
"65 46 CURVE",
"140 370 LINE SMOOTH",
"176 524 OFFCURVE",
"178 681 OFFCURVE",
"281 792 CURVE SMOOTH",
"325 839 OFFCURVE",
"383 879 OFFCURVE",
"444 892 CURVE",
"455 893 LINE",
"394 881 OFFCURVE",
"333 842 OFFCURVE",
"287 792 CURVE SMOOTH",
"180 676 OFFCURVE",
"185 507 OFFCURVE",
"153 370 CURVE SMOOTH",
"78 48 LINE",
"78 48 OFFCURVE",
"79 48 OFFCURVE",
"80 48 CURVE SMOOTH",
"104 48 OFFCURVE",
"123 27 OFFCURVE",
"153 9 CURVE SMOOTH",
"177 -5 OFFCURVE",
"202 -10 OFFCURVE",
"225 -10 CURVE SMOOTH",
"340 -10 OFFCURVE",
"461 120 OFFCURVE",
"496 282 CURVE SMOOTH",
"531 444 OFFCURVE",
"480 574 OFFCURVE",
"362 574 CURVE SMOOTH",
"302 574 OFFCURVE",
"239 515 OFFCURVE",
"193 406 CURVE",
"190 406 LINE",
"213 504 OFFCURVE",
"212 578 OFFCURVE",
"262 697 CURVE SMOOTH",
"273 724 OFFCURVE",
"287 750 OFFCURVE",
"303 773 CURVE",
"374 738 OFFCURVE",
"447 710 OFFCURVE",
"520 710 CURVE SMOOTH",
"625 710 OFFCURVE",
"717 761 OFFCURVE",
"717 820 CURVE SMOOTH",
"717 872 OFFCURVE",
"647 909 OFFCURVE",
"548 909 CURVE SMOOTH",
"452 909 OFFCURVE",
"358 879 OFFCURVE",
"286 819 CURVE",
"211 871 OFFCURVE",
"136 923 OFFCURVE",
"38 923 CURVE SMOOTH",
"-108 923 OFFCURVE",
"-225 842 OFFCURVE",
"-225 742 CURVE SMOOTH"
);
},
{
closed = 1;
nodes = (
"177 335 LINE",
"221 486 OFFCURVE",
"288 564 OFFCURVE",
"355 564 CURVE SMOOTH",
"428 564 OFFCURVE",
"460 470 OFFCURVE",
"412 282 CURVE SMOOTH",
"364 93 OFFCURVE",
"293 -6 OFFCURVE",
"220 -6 CURVE SMOOTH",
"178 -6 OFFCURVE",
"142 14 OFFCURVE",
"127 66 CURVE SMOOTH",
"118 95 OFFCURVE",
"127 125 OFFCURVE",
"138 172 CURVE SMOOTH"
);
},
{
closed = 1;
nodes = (
"615 903 OFFCURVE",
"663 868 OFFCURVE",
"663 818 CURVE SMOOTH",
"663 762 OFFCURVE",
"607 715 OFFCURVE",
"539 715 CURVE SMOOTH",
"453 715 OFFCURVE",
"386 752 OFFCURVE",
"321 795 CURVE",
"376 861 OFFCURVE",
"452 903 OFFCURVE",
"545 903 CURVE SMOOTH"
);
},
{
closed = 1;
nodes = (
"268 3 LINE",
"349 35 OFFCURVE",
"412 126 OFFCURVE",
"452 282 CURVE SMOOTH",
"475 371 OFFCURVE",
"495 538 OFFCURVE",
"382 566 CURVE",
"382 567 LINE",
"496 540 OFFCURVE",
"490 373 OFFCURVE",
"466 282 CURVE SMOOTH",
"425 128 OFFCURVE",
"350 33 OFFCURVE",
"268 1 CURVE"
);
},
{
closed = 1;
nodes = (
"600 901 LINE",
"651 889 OFFCURVE",
"695 865 OFFCURVE",
"695 818 CURVE SMOOTH",
"695 789 OFFCURVE",
"667 748 OFFCURVE",
"602 725 CURVE",
"604 727 LINE",
"663 749 OFFCURVE",
"685 789 OFFCURVE",
"685 818 CURVE SMOOTH",
"685 863 OFFCURVE",
"647 887 OFFCURVE",
"604 899 CURVE"
);
},
{
closed = 1;
nodes = (
"24 914 LINE",
"100 914 OFFCURVE",
"190 864 OFFCURVE",
"274 809 CURVE",
"270 806 LINE",
"186 859 OFFCURVE",
"100 912 OFFCURVE",
"24 912 CURVE"
);
},
{
closed = 1;
nodes = (
"313 786 LINE",
"349 766 OFFCURVE",
"386 744 OFFCURVE",
"424 733 CURVE",
"424 731 LINE",
"399 737 OFFCURVE",
"360 755 OFFCURVE",
"310 783 CURVE"
);
},
{
closed = 1;
nodes = (
"-92 700 LINE",
"-100 686 OFFCURVE",
"-118 677 OFFCURVE",
"-138 677 CURVE SMOOTH",
"-174 677 OFFCURVE",
"-207 698 OFFCURVE",
"-207 751 CURVE SMOOTH",
"-207 783 OFFCURVE",
"-197 812 OFFCURVE",
"-169 842 CURVE",
"-168 841 LINE",
"-193 812 OFFCURVE",
"-201 790 OFFCURVE",
"-201 760 CURVE SMOOTH",
"-201 713 OFFCURVE",
"-169 683 OFFCURVE",
"-132 683 CURVE SMOOTH",
"-117 683 OFFCURVE",
"-102 688 OFFCURVE",
"-94 700 CURVE"
);
}
);
width = 492;
}
);
},
{
color = (153,255,154,255);
glyphname = c;
layers = (
{
associatedMasterId = "E49D03F4-B1E6-4C13-A892-FA4C930543A3";
hints = (
{
place = "{238, 148}";
type = Stem;
},
{
place = "{329, 57}";
type = Stem;
},
{
horizontal = 1;
place = "{-10, 228}";
type = Stem;
},
{
horizontal = 1;
place = "{157, 61}";
type = Stem;
},
{
horizontal = 1;
place = "{581, -20}";
target = down;
type = TopGhost;
}
);
layerId = "8D885328-48A4-407E-A23D-039AF65C631F";
name = Regular.1;
paths = (
{
closed = 1;
nodes = (
"130 -4 OFFCURVE",
"85 85 OFFCURVE",
"131 280 CURVE SMOOTH",
"175 467 OFFCURVE",
"246 565 OFFCURVE",
"319 565 CURVE SMOOTH",
"351 565 OFFCURVE",
"375 547 OFFCURVE",
"390 510 CURVE SMOOTH",
"402 478 OFFCURVE",
"411 432 OFFCURVE",
"419 377 CURVE",
"423 377 LINE",
"433 581 LINE",
"429 581 LINE",
"425 569 OFFCURVE",
"421 554 OFFCURVE",
"408 554 CURVE SMOOTH",
"380 554 OFFCURVE",
"363 570 OFFCURVE",
"322 570 CURVE SMOOTH",
"207 570 OFFCURVE",
"77 442 OFFCURVE",
"48 280 CURVE SMOOTH",
"18 115 OFFCURVE",
"91 -10 OFFCURVE",
"215 -10 CURVE SMOOTH",
"316 -10 OFFCURVE",
"386 79 OFFCURVE",
"386 143 CURVE SMOOTH",
"386 184 OFFCURVE",
"356 218 OFFCURVE",
"318 218 CURVE SMOOTH",
"262 218 OFFCURVE",
"237 176 OFFCURVE",
"238 132 CURVE",
"247 151 OFFCURVE",
"263 157 OFFCURVE",
"275 157 CURVE SMOOTH",
"303 157 OFFCURVE",
"329 138 OFFCURVE",
"329 96 CURVE SMOOTH",
"329 56 OFFCURVE",
"302 -4 OFFCURVE",
"217 -4 CURVE SMOOTH"
);
}
);
width = 427;
},
{
associatedMasterId = "E49D03F4-B1E6-4C13-A892-FA4C930543A3";
layerId = "3A45E4B8-543F-4BDE-9F07-77ABAA78DA7A";
name = public.background;
width = 427;
},
{
anchors = (
{
name = top;
position = "{344, 677}";
}
);
hints = (
{
place = "{238, 148}";
type = Stem;
},
{
place = "{329, 57}";
type = Stem;
},
{
horizontal = 1;
place = "{-10, 228}";
type = Stem;
},
{
horizontal = 1;
place = "{157, 61}";
type = Stem;
},
{
horizontal = 1;
place = "{581, -20}";
target = down;
type = TopGhost;
}
);
layerId = "E49D03F4-B1E6-4C13-A892-FA4C930543A3";
paths = (
{
closed = 1;
nodes = (
"130 -4 OFFCURVE",
"85 85 OFFCURVE",
"131 280 CURVE SMOOTH",
"175 467 OFFCURVE",
"246 565 OFFCURVE",
"319 565 CURVE SMOOTH",
"351 565 OFFCURVE",
"375 547 OFFCURVE",
"390 510 CURVE SMOOTH",
"402 478 OFFCURVE",
"411 432 OFFCURVE",
"419 377 CURVE",
"423 377 LINE",
"433 581 LINE",
"429 581 LINE",
"425 569 OFFCURVE",
"421 554 OFFCURVE",
"408 554 CURVE SMOOTH",
"380 554 OFFCURVE",
"363 570 OFFCURVE",
"322 570 CURVE SMOOTH",
"207 570 OFFCURVE",
"77 442 OFFCURVE",
"48 280 CURVE SMOOTH",
"18 115 OFFCURVE",
"91 -10 OFFCURVE",
"215 -10 CURVE SMOOTH",
"314 -10 OFFCURVE",
"394 87 OFFCURVE",
"394 159 CURVE SMOOTH",
"394 202 OFFCURVE",
"365 236 OFFCURVE",
"328 236 CURVE SMOOTH",
"279 236 OFFCURVE",
"247 201 OFFCURVE",
"248 150 CURVE",
"257 166 OFFCURVE",
"271 175 OFFCURVE",
"289 175 CURVE SMOOTH",
"319 175 OFFCURVE",
"339 150 OFFCURVE",
"339 114 CURVE SMOOTH",
"339 65 OFFCURVE",
"306 -4 OFFCURVE",
"217 -4 CURVE SMOOTH"
);
},
{
closed = 1;
nodes = (
"182 -3 LINE",
"67 24 OFFCURVE",
"61 192 OFFCURVE",
"83 285 CURVE SMOOTH",
"121 446 OFFCURVE",
"210 534 OFFCURVE",
"278 561 CURVE",
"278 559 LINE",
"211 532 OFFCURVE",
"138 447 OFFCURVE",
"98 285 CURVE SMOOTH",
"75 194 OFFCURVE",
"68 26 OFFCURVE",
"182 -2 CURVE"
);
},
{
closed = 1;
nodes = (
"364 559 LINE",
"388 548 OFFCURVE",
"401 539 OFFCURVE",
"410 519 CURVE SMOOTH",
"419 499 OFFCURVE",
"420 468 OFFCURVE",
"418 447 CURVE",
"416 447 LINE",
"415 472 OFFCURVE",
"411 493 OFFCURVE",
"402 514 CURVE SMOOTH",
"393 536 OFFCURVE",
"379 551 OFFCURVE",
"363 558 CURVE"
);
},
{
closed = 1;
nodes = (
"264 181 LINE",
"276 198 OFFCURVE",
"295 209 OFFCURVE",
"313 209 CURVE SMOOTH",
"350 209 OFFCURVE",
"369 173 OFFCURVE",
"369 141 CURVE SMOOTH",
"369 102 OFFCURVE",
"347 58 OFFCURVE",
"315 33 CURVE",
"314 35 LINE",
"343 57 OFFCURVE",
"362 96 OFFCURVE",
"362 131 CURVE SMOOTH",
"362 167 OFFCURVE",
"339 200 OFFCURVE",
"304 200 CURVE SMOOTH",
"291 200 OFFCURVE",
"276 195 OFFCURVE",
"265 180 CURVE"
);
}
);
width = 427;
}
);
leftKerningGroup = oporizq;
unicode = 0063;
},
{
color = (255,204,153,255);
glyphname = c.ss06;
layers = (
{
associatedMasterId = "E49D03F4-B1E6-4C13-A892-FA4C930543A3";
layerId = "3A45E4B8-543F-4BDE-9F07-77ABAA78DA7A";
name = public.background;
paths = (
{
closed = 1;
nodes = (
"325 566 LINE SMOOTH",
"378 566 OFFCURVE",
"449 496 OFFCURVE",
"408 355 CURVE",
"413 355 LINE",
"467 581 LINE",
"465 581 LINE",
"461 565 OFFCURVE",
"449 548 OFFCURVE",
"421 550 CURVE SMOOTH",
"392 552 OFFCURVE",
"371 570 OFFCURVE",
"320 570 CURVE SMOOTH"
);
},
{
closed = 1;
nodes = (
"217 -4 LINE",
"302 -4 OFFCURVE",
"329 56 OFFCURVE",
"329 96 CURVE SMOOTH",
"329 138 OFFCURVE",
"303 157 OFFCURVE",
"275 157 CURVE SMOOTH",
"263 157 OFFCURVE",
"247 151 OFFCURVE",
"238 132 CURVE",
"237 176 OFFCURVE",
"262 218 OFFCURVE",
"318 218 CURVE SMOOTH",
"356 218 OFFCURVE",
"386 184 OFFCURVE",
"386 143 CURVE SMOOTH",
"386 79 OFFCURVE",
"316 -8 OFFCURVE",
"215 -10 CURVE"
);
},
{
closed = 1;
nodes = (
"113 144 LINE",
"113 43 OFFCURVE",
"154 -4 OFFCURVE",
"217 -4 CURVE",
"215 -10 LINE",
"211 -10 LINE SMOOTH",
"62 -10 OFFCURVE",
"25 151 OFFCURVE",
"48 280 CURVE"
);
}
);
width = 422;
},
{
hints = (
{
place = "{238, 148}";
type = Stem;
},
{
place = "{329, 57}";
type = Stem;
},
{
horizontal = 1;
place = "{-10, 228}";
type = Stem;
},
{
horizontal = 1;
place = "{157, 61}";
type = Stem;
},
{
horizontal = 1;
place = "{581, -20}";
target = down;
type = TopGhost;
}
);
layerId = "E49D03F4-B1E6-4C13-A892-FA4C930543A3";
paths = (
{
closed = 1;
nodes = (
"161 419 OFFCURVE",
"231 565 OFFCURVE",
"319 565 CURVE SMOOTH",
"351 565 OFFCURVE",
"375 547 OFFCURVE",
"390 510 CURVE SMOOTH",
"402 478 OFFCURVE",
"411 432 OFFCURVE",
"419 377 CURVE",
"423 377 LINE",
"433 581 LINE",
"429 581 LINE",
"425 569 OFFCURVE",
"421 554 OFFCURVE",
"408 554 CURVE SMOOTH",
"380 554 OFFCURVE",
"363 570 OFFCURVE",
"322 570 CURVE SMOOTH",
"207 570 OFFCURVE",
"76 443 OFFCURVE",
"48 281 CURVE SMOOTH",
"19 115 OFFCURVE",
"92 -10 OFFCURVE",
"221 -10 CURVE SMOOTH",
"290 -10 OFFCURVE",
"349 51 OFFCURVE",
"379 113 CURVE",
"379 123 LINE",
"349 56 OFFCURVE",
"295 9 OFFCURVE",
"230 9 CURVE SMOOTH",
"139 9 OFFCURVE",
"105 115 OFFCURVE",
"138 293 CURVE SMOOTH"
);
},
{
closed = 1;
nodes = (
"192 4 LINE",
"65 31 OFFCURVE",
"67 197 OFFCURVE",
"83 285 CURVE SMOOTH",
"113 447 OFFCURVE",
"210 534 OFFCURVE",
"278 561 CURVE",
"278 559 LINE",
"211 532 OFFCURVE",
"128 448 OFFCURVE",
"98 285 CURVE SMOOTH",
"83 203 OFFCURVE",
"65 32 OFFCURVE",
"192 5 CURVE"
);
},
{
closed = 1;
nodes = (
"364 559 LINE",
"388 548 OFFCURVE",
"401 539 OFFCURVE",
"410 519 CURVE SMOOTH",
"419 499 OFFCURVE",
"420 468 OFFCURVE",
"418 447 CURVE",
"416 447 LINE",
"415 472 OFFCURVE",
"411 493 OFFCURVE",
"402 514 CURVE SMOOTH",
"393 536 OFFCURVE",
"379 551 OFFCURVE",
"363 558 CURVE"
);
}
);
width = 422;
}
);
leftKerningGroup = oporizq;
},
{
color = (255,153,254,255);
glyphname = c.9;
layers = (
{
hints = (
{
place = "{435, 185}";
type = Stem;
},
{
place = "{567, 53}";
type = Stem;
},
{
horizontal = 1;
place = "{162, 65}";
type = Stem;
},
{
horizontal = 1;
place = "{581, -20}";
target = down;
type = TopGhost;
}
);
layerId = "E49D03F4-B1E6-4C13-A892-FA4C930543A3";
paths = (
{
closed = 1;
nodes = (
"351 565 OFFCURVE",
"375 547 OFFCURVE",
"390 510 CURVE SMOOTH",
"402 478 OFFCURVE",
"411 432 OFFCURVE",
"419 377 CURVE",
"423 377 LINE",
"433 581 LINE",
"429 581 LINE",
"425 569 OFFCURVE",
"421 554 OFFCURVE",
"408 554 CURVE SMOOTH",
"380 554 OFFCURVE",
"363 570 OFFCURVE",
"322 570 CURVE SMOOTH",
"210 570 OFFCURVE",
"82 445 OFFCURVE",
"49 287 CURVE SMOOTH",
"8 91 OFFCURVE",
"104 -98 OFFCURVE",
"309 -111 CURVE SMOOTH",
"484 -123 OFFCURVE",
"620 21 OFFCURVE",
"620 119 CURVE SMOOTH",
"620 186 OFFCURVE",
"573 227 OFFCURVE",
"520 227 CURVE SMOOTH",
"469 227 OFFCURVE",
"435 189 OFFCURVE",
"435 145 CURVE SMOOTH",
"435 138 OFFCURVE",
"435 131 OFFCURVE",
"437 124 CURVE",
"446 149 OFFCURVE",
"469 162 OFFCURVE",
"492 162 CURVE SMOOTH",
"526 162 OFFCURVE",
"567 136 OFFCURVE",
"567 72 CURVE SMOOTH",
"567 -9 OFFCURVE",
"480 -110 OFFCURVE",
"319 -102 CURVE SMOOTH",
"221 -97 OFFCURVE",
"93 4 OFFCURVE",
"123 232 CURVE SMOOTH",
"125 249 OFFCURVE",
"128 266 OFFCURVE",
"132 284 CURVE SMOOTH",
"175 469 OFFCURVE",
"248 565 OFFCURVE",
"319 565 CURVE SMOOTH"
);
},
{
closed = 1;
nodes = (
"252 -96 LINE",
"135 -69 OFFCURVE",
"44 92 OFFCURVE",
"83 285 CURVE SMOOTH",
"116 447 OFFCURVE",
"209 535 OFFCURVE",
"281 561 CURVE",
"281 559 LINE",
"210 533 OFFCURVE",
"135 448 OFFCURVE",
"98 285 CURVE SMOOTH",
"54 94 OFFCURVE",
"135 -67 OFFCURVE",
"252 -95 CURVE"
);
},
{
closed = 1;
nodes = (
"364 559 LINE",
"388 548 OFFCURVE",
"401 539 OFFCURVE",
"410 519 CURVE SMOOTH",
"419 499 OFFCURVE",
"420 468 OFFCURVE",
"418 447 CURVE",
"416 447 LINE",
"415 472 OFFCURVE",
"411 493 OFFCURVE",
"402 514 CURVE SMOOTH",
"393 536 OFFCURVE",
"379 551 OFFCURVE",
"363 558 CURVE"
);
},
{
closed = 1;
nodes = (
"459 181 LINE",
"468 195 OFFCURVE",
"487 202 OFFCURVE",
"506 202 CURVE SMOOTH",
"557 202 OFFCURVE",
"594 160 OFFCURVE",
"594 104 CURVE SMOOTH",
"594 62 OFFCURVE",
"577 19 OFFCURVE",
"544 -18 CURVE",
"542 -16 LINE",
"578 22 OFFCURVE",
"589 63 OFFCURVE",
"589 103 CURVE SMOOTH",
"589 160 OFFCURVE",
"543 195 OFFCURVE",
"494 195 CURVE SMOOTH",
"481 195 OFFCURVE",
"467 191 OFFCURVE",
"461 181 CURVE"
);
}
);
width = 637;
}
);
leftKerningGroup = oporizq;
},
{
color = (153,255,154,255);
glyphname = d;
layers = (
{
hints = (
{
horizontal = 1;
place = "{0, -20}";
target = down;
type = TopGhost;
},
{
horizontal = 1;
place = "{-10, 21}";
type = Stem;
},
{
horizontal = 1;
place = "{920, -20}";
target = down;
type = TopGhost;
}
);
layerId = "E49D03F4-B1E6-4C13-A892-FA4C930543A3";
paths = (
{
closed = 1;
nodes = (
"245 -10 OFFCURVE",
"307 47 OFFCURVE",
"353 153 CURVE",
"345 118 LINE SMOOTH",
"331 55 OFFCURVE",
"339 -8 OFFCURVE",
"419 -8 CURVE SMOOTH",
"446 -8 OFFCURVE",
"471 3 OFFCURVE",
"482 20 CURVE",
"480 25 LINE",
"471 11 OFFCURVE",
"457 3 OFFCURVE",
"441 3 CURVE SMOOTH",
"393 3 OFFCURVE",
"409 78 OFFCURVE",
"440 208 CURVE SMOOTH",
"606 910 LINE",
"574 905 LINE",
"395 143 LINE SMOOTH",
"384 99 OFFCURVE",
"368 7 OFFCURVE",
"414 4 CURVE",
"414 3 LINE",
"365 -2 OFFCURVE",
"370 93 OFFCURVE",
"382 143 CURVE SMOOTH",
"561 904 LINE",
"450 888 LINE",
"450 884 LINE",
"484 884 LINE SMOOTH",
"518 884 OFFCURVE",
"526 878 OFFCURVE",
"516 836 CURVE SMOOTH",
"434 495 LINE",
"419 551 OFFCURVE",
"377 574 OFFCURVE",
"323 574 CURVE SMOOTH",
"208 574 OFFCURVE",
"87 444 OFFCURVE",
"52 282 CURVE SMOOTH",
"17 120 OFFCURVE",
"68 -10 OFFCURVE",
"186 -10 CURVE SMOOTH"
);
},
{
closed = 1;
nodes = (
"184 471 OFFCURVE",
"255 570 OFFCURVE",
"328 570 CURVE SMOOTH",
"370 570 OFFCURVE",
"406 550 OFFCURVE",
"421 498 CURVE SMOOTH",
"431 464 OFFCURVE",
"417 429 OFFCURVE",
"404 365 CURVE",
"374 239 LINE",
"330 81 OFFCURVE",
"261 0 OFFCURVE",
"193 0 CURVE SMOOTH",
"120 0 OFFCURVE",
"88 94 OFFCURVE",
"136 282 CURVE SMOOTH"
);
},
{
closed = 1;
nodes = (
"128 440 OFFCURVE",
"208 539 OFFCURVE",
"287 567 CURVE",
"287 565 LINE",
"209 537 OFFCURVE",
"142 442 OFFCURVE",
"103 286 CURVE SMOOTH",
"80 195 OFFCURVE",
"61 26 OFFCURVE",
"171 -2 CURVE",
"171 -3 LINE",
"60 24 OFFCURVE",
"64 193 OFFCURVE",
"88 286 CURVE SMOOTH"
);
}
);
width = 498;
}
);
leftKerningGroup = oporizq;
unicode = 0064;
},
{
color = (255,153,254,255);
glyphname = d.5;
layers = (
{
hints = (
{
place = "{407, 149}";
type = Stem;
},
{
place = "{556, 25}";
type = Stem;
},
{
horizontal = 1;
place = "{-154, 154}";
type = Stem;
},
{
horizontal = 1;
place = "{920, -20}";
target = down;
type = TopGhost;
}
);
layerId = "E49D03F4-B1E6-4C13-A892-FA4C930543A3";
paths = (
{
closed = 1;
nodes = (
"246 -10 OFFCURVE",
"309 48 OFFCURVE",
"355 157 CURVE",
"325 24 OFFCURVE",
"308 -154 OFFCURVE",
"485 -154 CURVE SMOOTH",
"523 -154 OFFCURVE",
"581 -133 OFFCURVE",
"581 -90 CURVE SMOOTH",
"581 -70 OFFCURVE",
"566 -52 OFFCURVE",
"542 -55 CURVE",
"549 -60 OFFCURVE",
"556 -70 OFFCURVE",
"556 -82 CURVE SMOOTH",
"556 -121 OFFCURVE",
"525 -150 OFFCURVE",
"486 -150 CURVE SMOOTH",
"447 -150 OFFCURVE",
"407 -106 OFFCURVE",
"407 8 CURVE SMOOTH",
"407 54 OFFCURVE",
"423 135 OFFCURVE",
"440 208 CURVE SMOOTH",
"606 910 LINE",
"574 905 LINE",
"395 147 LINE SMOOTH",
"352 -35 OFFCURVE",
"381 -121 OFFCURVE",
"450 -144 CURVE",
"450 -145 LINE",
"371 -124 OFFCURVE",
"343 -23 OFFCURVE",
"383 147 CURVE SMOOTH",
"560 904 LINE",
"450 888 LINE",
"450 884 LINE",
"484 884 LINE SMOOTH",
"518 884 OFFCURVE",
"526 878 OFFCURVE",
"516 836 CURVE SMOOTH",
"434 495 LINE",
"419 551 OFFCURVE",
"377 574 OFFCURVE",
"323 574 CURVE SMOOTH",
"208 574 OFFCURVE",
"88 444 OFFCURVE",
"52 282 CURVE SMOOTH",
"18 120 OFFCURVE",
"68 -10 OFFCURVE",
"186 -10 CURVE SMOOTH"
);
},
{
closed = 1;
nodes = (
"184 471 OFFCURVE",
"255 570 OFFCURVE",
"328 570 CURVE SMOOTH",
"370 570 OFFCURVE",
"406 550 OFFCURVE",
"421 498 CURVE SMOOTH",
"431 464 OFFCURVE",
"417 429 OFFCURVE",
"404 365 CURVE",
"374 239 LINE",
"330 81 OFFCURVE",
"261 0 OFFCURVE",
"193 0 CURVE SMOOTH",
"120 0 OFFCURVE",
"88 94 OFFCURVE",
"136 282 CURVE SMOOTH"
);
},
{
closed = 1;
nodes = (
"128 440 OFFCURVE",
"208 539 OFFCURVE",
"287 567 CURVE",
"287 565 LINE",
"209 537 OFFCURVE",
"142 442 OFFCURVE",
"103 286 CURVE SMOOTH",
"80 195 OFFCURVE",
"61 26 OFFCURVE",
"171 -2 CURVE",
"171 -3 LINE",
"60 24 OFFCURVE",
"64 193 OFFCURVE",
"88 286 CURVE SMOOTH"
);
},
{
closed = 1;
nodes = (
"521 -143 LINE",
"569 -126 OFFCURVE",
"571 -74 OFFCURVE",
"556 -63 CURVE",
"557 -63 LINE",
"576 -74 OFFCURVE",
"576 -127 OFFCURVE",
"523 -143 CURVE"
);
}
);
width = 506;
}
);
leftKerningGroup = oporizq;
},
{
color = (255,153,254,255);
glyphname = d.9;
layers = (
{
hints = (
{
place = "{341, 74}";
type = Stem;
},
{
place = "{663, 185}";
type = Stem;
},
{
place = "{795, 53}";
type = Stem;
},
{
horizontal = 1;
place = "{-145, 145}";
type = Stem;
},
{
horizontal = 1;
place = "{124, 65}";
type = Stem;
},
{
horizontal = 1;
place = "{920, -20}";
target = down;
type = TopGhost;
}
);
layerId = "E49D03F4-B1E6-4C13-A892-FA4C930543A3";
paths = (
{
closed = 1;
nodes = (
"246 -10 OFFCURVE",
"308 47 OFFCURVE",
"354 155 CURVE",
"359 155 LINE",
"352 124 OFFCURVE",
"345 90 OFFCURVE",
"345 74 CURVE SMOOTH",
"345 -33 OFFCURVE",
"391 -145 OFFCURVE",
"585 -145 CURVE SMOOTH",
"736 -145 OFFCURVE",
"848 -22 OFFCURVE",
"848 81 CURVE SMOOTH",
"848 148 OFFCURVE",
"801 189 OFFCURVE",
"748 189 CURVE SMOOTH",
"697 189 OFFCURVE",
"663 151 OFFCURVE",
"663 107 CURVE SMOOTH",
"663 100 OFFCURVE",
"663 93 OFFCURVE",
"665 86 CURVE",
"674 111 OFFCURVE",
"697 124 OFFCURVE",
"720 124 CURVE SMOOTH",
"754 124 OFFCURVE",
"795 98 OFFCURVE",
"795 34 CURVE SMOOTH",
"795 -51 OFFCURVE",
"724 -136 OFFCURVE",
"597 -136 CURVE SMOOTH",
"466 -136 OFFCURVE",
"415 -31 OFFCURVE",
"415 64 CURVE SMOOTH",
"415 102 OFFCURVE",
"423 140 OFFCURVE",
"453 264 CURVE SMOOTH",
"606 910 LINE",
"574 905 LINE",
"396 147 LINE SMOOTH",
"355 -29 OFFCURVE",
"440 -117 OFFCURVE",
"534 -136 CURVE",
"533 -137 LINE",
"425 -117 OFFCURVE",
"341 -29 OFFCURVE",
"383 147 CURVE SMOOTH",
"561 904 LINE",
"450 888 LINE",
"450 884 LINE",
"484 884 LINE SMOOTH",
"518 884 OFFCURVE",
"526 878 OFFCURVE",
"516 836 CURVE SMOOTH",
"434 495 LINE",
"419 551 OFFCURVE",
"377 574 OFFCURVE",
"323 574 CURVE SMOOTH",
"208 574 OFFCURVE",
"88 444 OFFCURVE",
"52 282 CURVE SMOOTH",
"18 120 OFFCURVE",
"68 -10 OFFCURVE",
"186 -10 CURVE SMOOTH"
);
},
{
closed = 1;
nodes = (
"184 471 OFFCURVE",
"255 570 OFFCURVE",
"328 570 CURVE SMOOTH",
"370 570 OFFCURVE",
"406 550 OFFCURVE",
"421 498 CURVE SMOOTH",
"431 464 OFFCURVE",
"417 429 OFFCURVE",
"404 365 CURVE",
"372 234 LINE SMOOTH",
"334 77 OFFCURVE",
"260 0 OFFCURVE",
"193 0 CURVE SMOOTH",
"120 0 OFFCURVE",
"88 94 OFFCURVE",
"136 282 CURVE SMOOTH"
);
},
{
closed = 1;
nodes = (
"128 440 OFFCURVE",
"208 539 OFFCURVE",
"287 567 CURVE",
"287 565 LINE",
"209 537 OFFCURVE",
"142 442 OFFCURVE",
"103 286 CURVE SMOOTH",
"80 195 OFFCURVE",
"61 26 OFFCURVE",
"171 -2 CURVE",
"171 -3 LINE",
"60 24 OFFCURVE",
"64 193 OFFCURVE",
"88 286 CURVE SMOOTH"
);
},
{
closed = 1;
nodes = (
"689 143 LINE",
"698 157 OFFCURVE",
"717 164 OFFCURVE",
"736 164 CURVE SMOOTH",
"787 164 OFFCURVE",
"824 119 OFFCURVE",
"824 60 CURVE SMOOTH",
"824 18 OFFCURVE",
"807 -25 OFFCURVE",
"774 -62 CURVE",
"772 -60 LINE",
"808 -22 OFFCURVE",
"819 19 OFFCURVE",
"819 59 CURVE SMOOTH",
"819 119 OFFCURVE",
"773 157 OFFCURVE",
"724 157 CURVE SMOOTH",
"711 157 OFFCURVE",
"697 153 OFFCURVE",
"691 143 CURVE"
);
}
);
width = 861;
}
);
leftKerningGroup = oporizq;
},
{
color = (255,153,254,255);
glyphname = d.6;
layers = (
{
hints = (
{
place = "{775, 185}";
type = Stem;
},
{
place = "{907, 53}";
type = Stem;
},
{
horizontal = 1;
place = "{-433, 21}";
type = Stem;
},
{
horizontal = 1;
place = "{-156, 65}";
type = Stem;
},
{
horizontal = 1;
place = "{0, -20}";
target = down;
type = TopGhost;
},
{
horizontal = 1;
place = "{920, -20}";
target = down;
type = TopGhost;
}
);
layerId = "E49D03F4-B1E6-4C13-A892-FA4C930543A3";
paths = (
{
closed = 1;
nodes = (
"243 -10 OFFCURVE",
"304 43 OFFCURVE",
"349 143 CURVE",
"344 123 LINE SMOOTH",
"328 57 OFFCURVE",
"320 -6 OFFCURVE",
"320 -64 CURVE SMOOTH",
"320 -286 OFFCURVE",
"437 -433 OFFCURVE",
"652 -433 CURVE SMOOTH",
"871 -433 OFFCURVE",
"960 -280 OFFCURVE",
"960 -195 CURVE SMOOTH",
"960 -134 OFFCURVE",
"913 -91 OFFCURVE",
"860 -91 CURVE SMOOTH",
"809 -91 OFFCURVE",
"775 -129 OFFCURVE",
"775 -173 CURVE SMOOTH",
"775 -180 OFFCURVE",
"775 -187 OFFCURVE",
"777 -194 CURVE",
"786 -169 OFFCURVE",
"809 -156 OFFCURVE",
"832 -156 CURVE SMOOTH",
"866 -156 OFFCURVE",
"907 -182 OFFCURVE",
"907 -246 CURVE SMOOTH",
"907 -332 OFFCURVE",
"831 -423 OFFCURVE",
"686 -423 CURVE SMOOTH",
"508 -423 OFFCURVE",
"392 -284 OFFCURVE",
"392 -63 CURVE SMOOTH",
"392 -6 OFFCURVE",
"400 56 OFFCURVE",
"416 123 CURVE SMOOTH",
"604 910 LINE",
"574 906 LINE",
"390 134 LINE SMOOTH",
"374 66 OFFCURVE",
"362 -1 OFFCURVE",
"362 -59 CURVE SMOOTH",
"362 -260 OFFCURVE",
"455 -395 OFFCURVE",
"604 -419 CURVE",
"604 -421 LINE",
"449 -397 OFFCURVE",
"352 -263 OFFCURVE",
"352 -61 CURVE SMOOTH",
"352 -3 OFFCURVE",
"361 66 OFFCURVE",
"377 134 CURVE SMOOTH",
"560 904 LINE",
"448 888 LINE",
"448 884 LINE",
"482 884 LINE SMOOTH",
"516 884 OFFCURVE",
"524 878 OFFCURVE",
"514 836 CURVE SMOOTH",
"434 496 LINE",
"419 551 OFFCURVE",
"377 574 OFFCURVE",
"323 574 CURVE SMOOTH",
"208 574 OFFCURVE",
"88 444 OFFCURVE",
"52 282 CURVE SMOOTH",
"18 120 OFFCURVE",
"68 -10 OFFCURVE",
"186 -10 CURVE SMOOTH"
);
},
{
closed = 1;
nodes = (
"183 471 OFFCURVE",
"255 570 OFFCURVE",
"328 570 CURVE SMOOTH",
"370 570 OFFCURVE",
"406 550 OFFCURVE",
"421 498 CURVE SMOOTH",
"426 479 OFFCURVE",
"425 460 OFFCURVE",
"420 437 CURVE",
"365 210 LINE",
"321 71 OFFCURVE",
"257 0 OFFCURVE",
"193 0 CURVE SMOOTH",
"120 0 OFFCURVE",
"87 94 OFFCURVE",
"136 282 CURVE SMOOTH"
);
},
{
closed = 1;
nodes = (
"128 440 OFFCURVE",
"208 539 OFFCURVE",
"287 567 CURVE",
"287 565 LINE",
"209 537 OFFCURVE",
"142 442 OFFCURVE",
"103 286 CURVE SMOOTH",
"80 195 OFFCURVE",
"61 26 OFFCURVE",
"171 -2 CURVE",
"171 -3 LINE",
"60 24 OFFCURVE",
"64 193 OFFCURVE",
"88 286 CURVE SMOOTH"
);
},
{
closed = 1;
nodes = (
"899 -115 OFFCURVE",
"936 -157 OFFCURVE",
"936 -213 CURVE SMOOTH",
"936 -258 OFFCURVE",
"919 -301 OFFCURVE",
"886 -341 CURVE",
"884 -339 LINE",
"920 -298 OFFCURVE",
"931 -257 OFFCURVE",
"931 -214 CURVE SMOOTH",
"931 -157 OFFCURVE",
"885 -122 OFFCURVE",
"836 -122 CURVE SMOOTH",
"823 -122 OFFCURVE",
"809 -126 OFFCURVE",
"803 -136 CURVE",
"801 -136 LINE",
"810 -122 OFFCURVE",
"829 -115 OFFCURVE",
"848 -115 CURVE SMOOTH"
);
}
);
width = 500;
}
);
leftKerningGroup = oporizq;
},
{
color = (153,255,154,255);
glyphname = e;
layers = (
{
associatedMasterId = "E49D03F4-B1E6-4C13-A892-FA4C930543A3";
layerId = "3A45E4B8-543F-4BDE-9F07-77ABAA78DA7A";
name = public.background;
width = 424;
},
{
anchors = (
{
name = top;
position = "{363, 677}";
}
);
hints = (
{
place = "{258, 148}";
type = Stem;
},
{
place = "{349, 57}";
type = Stem;
},
{
horizontal = 1;
place = "{-10, 244}";
type = Stem;
},
{
horizontal = 1;
place = "{173, 160}";
type = Stem;
},
{
horizontal = 1;
place = "{329, 241}";
type = Stem;
}
);
layerId = "E49D03F4-B1E6-4C13-A892-FA4C930543A3";
paths = (
{
closed = 1;
nodes = (
"333 -10 OFFCURVE",
"410 88 OFFCURVE",
"410 161 CURVE SMOOTH",
"410 202 OFFCURVE",
"380 236 OFFCURVE",
"342 236 CURVE SMOOTH",
"286 236 OFFCURVE",
"261 194 OFFCURVE",
"262 150 CURVE",
"272 168 OFFCURVE",
"287 175 OFFCURVE",
"303 175 CURVE SMOOTH",
"333 175 OFFCURVE",
"353 150 OFFCURVE",
"353 114 CURVE SMOOTH",
"353 65 OFFCURVE",
"325 -4 OFFCURVE",
"225 -4 CURVE SMOOTH",
"130 -4 OFFCURVE",
"83 85 OFFCURVE",
"131 280 CURVE SMOOTH",
"135 297 OFFCURVE",
"140 313 OFFCURVE",
"144 329 CURVE",
"406 329 LINE",
"417 367 OFFCURVE",
"424 408 OFFCURVE",
"424 439 CURVE SMOOTH",
"424 498 OFFCURVE",
"407 542 OFFCURVE",
"365 559 CURVE",
"365 561 LINE",
"413 542 OFFCURVE",
"436 499 OFFCURVE",
"436 439 CURVE SMOOTH",
"436 408 OFFCURVE",
"429 367 OFFCURVE",
"418 329 CURVE",
"448 329 LINE",
"458 365 OFFCURVE",
"462 396 OFFCURVE",
"462 423 CURVE SMOOTH",
"462 530 OFFCURVE",
"397 570 OFFCURVE",
"328 570 CURVE SMOOTH",
"204 570 OFFCURVE",
"78 439 OFFCURVE",
"48 280 CURVE SMOOTH",
"24 151 OFFCURVE",
"66 -10 OFFCURVE",
"223 -10 CURVE SMOOTH"
);
},
{
closed = 1;
nodes = (
"146 333 LINE",
"191 482 OFFCURVE",
"258 566 OFFCURVE",
"323 566 CURVE SMOOTH",
"393 566 OFFCURVE",
"415 479 OFFCURVE",
"382 348 CURVE SMOOTH",
"379 338 OFFCURVE",
"373 333 OFFCURVE",
"363 333 CURVE SMOOTH"
);
},
{
closed = 1;
nodes = (
"121 446 OFFCURVE",
"213 534 OFFCURVE",
"281 561 CURVE",
"281 559 LINE",
"214 532 OFFCURVE",
"138 447 OFFCURVE",
"98 285 CURVE SMOOTH",
"75 194 OFFCURVE",
"68 27 OFFCURVE",
"182 -1 CURVE",
"182 -2 LINE",
"67 25 OFFCURVE",
"61 192 OFFCURVE",
"83 285 CURVE SMOOTH"
);
},
{
closed = 1;
nodes = (
"280 181 LINE",
"292 198 OFFCURVE",
"311 209 OFFCURVE",
"329 209 CURVE SMOOTH",
"366 209 OFFCURVE",
"385 173 OFFCURVE",
"385 141 CURVE SMOOTH",
"385 102 OFFCURVE",
"363 58 OFFCURVE",
"331 33 CURVE",
"330 35 LINE",
"359 57 OFFCURVE",
"378 96 OFFCURVE",
"378 131 CURVE SMOOTH",
"378 167 OFFCURVE",
"355 200 OFFCURVE",
"320 200 CURVE SMOOTH",
"307 200 OFFCURVE",
"292 195 OFFCURVE",
"281 180 CURVE"
);
}
);
width = 425;
}
);
leftKerningGroup = oporizq;
unicode = 0065;
},
{
color = (255,204,153,255);
glyphname = e.ss06;
layers = (
{
hints = (
{
place = "{260, 148}";
type = Stem;
},
{
place = "{351, 57}";
type = Stem;
},
{
horizontal = 1;
place = "{-10, 244}";
type = Stem;
},
{
horizontal = 1;
place = "{173, 160}";
type = Stem;
},
{
horizontal = 1;
place = "{329, 241}";
type = Stem;
}
);
layerId = "E49D03F4-B1E6-4C13-A892-FA4C930543A3";
paths = (
{
closed = 1;
nodes = (
"303 -10 OFFCURVE",
"371 51 OFFCURVE",
"405 113 CURVE",
"405 123 LINE",
"371 55 OFFCURVE",
"307 9 OFFCURVE",
"232 9 CURVE SMOOTH",
"159 9 OFFCURVE",
"120 63 OFFCURVE",
"120 165 CURVE SMOOTH",
"120 210 OFFCURVE",
"128 265 OFFCURVE",
"144 329 CURVE",
"408 329 LINE",
"419 367 OFFCURVE",
"426 408 OFFCURVE",
"426 439 CURVE SMOOTH",
"426 498 OFFCURVE",
"409 542 OFFCURVE",
"367 559 CURVE",
"367 561 LINE",
"415 542 OFFCURVE",
"438 499 OFFCURVE",
"438 439 CURVE SMOOTH",
"438 408 OFFCURVE",
"431 367 OFFCURVE",
"420 329 CURVE",
"450 329 LINE",
"460 365 OFFCURVE",
"464 396 OFFCURVE",
"464 423 CURVE SMOOTH",
"464 530 OFFCURVE",
"399 570 OFFCURVE",
"330 570 CURVE SMOOTH",
"206 570 OFFCURVE",
"75 436 OFFCURVE",
"48 281 CURVE SMOOTH",
"25 151 OFFCURVE",
"66 -10 OFFCURVE",
"225 -10 CURVE SMOOTH"
);
},
{
closed = 1;
nodes = (
"145 333 LINE",
"182 480 OFFCURVE",
"257 566 OFFCURVE",
"325 566 CURVE SMOOTH",
"395 566 OFFCURVE",
"417 479 OFFCURVE",
"384 348 CURVE SMOOTH",
"381 338 OFFCURVE",
"375 333 OFFCURVE",
"365 333 CURVE SMOOTH"
);
},
{
closed = 1;
nodes = (
"192 4 LINE",
"65 31 OFFCURVE",
"67 197 OFFCURVE",
"83 285 CURVE SMOOTH",
"113 447 OFFCURVE",
"210 532 OFFCURVE",
"278 559 CURVE",
"278 557 LINE",
"211 530 OFFCURVE",
"128 448 OFFCURVE",
"98 285 CURVE SMOOTH",
"83 203 OFFCURVE",
"65 32 OFFCURVE",
"192 5 CURVE"
);
}
);
width = 427;
}
);
leftKerningGroup = oporizq;
},
{
color = (255,153,254,255);
glyphname = e.9;
layers = (
{
hints = (
{
place = "{431, 185}";
type = Stem;
},
{
place = "{563, 53}";
type = Stem;
},
{
horizontal = 1;
place = "{162, 65}";
type = Stem;
},
{
horizontal = 1;
place = "{329, 241}";
type = Stem;
}
);
layerId = "E49D03F4-B1E6-4C13-A892-FA4C930543A3";
paths = (
{
closed = 1;
nodes = (
"466 -112 OFFCURVE",
"616 6 OFFCURVE",
"616 119 CURVE SMOOTH",
"616 181 OFFCURVE",
"574 227 OFFCURVE",
"516 227 CURVE SMOOTH",
"468 227 OFFCURVE",
"431 192 OFFCURVE",
"431 145 CURVE SMOOTH",
"431 138 OFFCURVE",
"431 131 OFFCURVE",
"433 124 CURVE",
"441 147 OFFCURVE",
"463 162 OFFCURVE",
"488 162 CURVE SMOOTH",
"532 162 OFFCURVE",
"563 124 OFFCURVE",
"563 72 CURVE SMOOTH",
"563 -23 OFFCURVE",
"459 -102 OFFCURVE",
"333 -102 CURVE SMOOTH",
"188 -102 OFFCURVE",
"97 42 OFFCURVE",
"121 232 CURVE SMOOTH",
"125 264 OFFCURVE",
"132 297 OFFCURVE",
"141 329 CURVE",
"401 329 LINE",
"412 368 OFFCURVE",
"419 408 OFFCURVE",
"419 439 CURVE SMOOTH",
"419 498 OFFCURVE",
"402 542 OFFCURVE",
"360 559 CURVE",
"360 561 LINE",
"408 542 OFFCURVE",
"431 499 OFFCURVE",
"431 439 CURVE SMOOTH",
"431 408 OFFCURVE",
"424 368 OFFCURVE",
"413 329 CURVE",
"444 329 LINE",
"486 526 OFFCURVE",
"400 570 OFFCURVE",
"318 570 CURVE SMOOTH",
"187 570 OFFCURVE",
"62 415 OFFCURVE",
"45 251 CURVE SMOOTH",
"23 35 OFFCURVE",
"135 -112 OFFCURVE",
"324 -112 CURVE SMOOTH"
);
},
{
closed = 1;
nodes = (
"388 566 OFFCURVE",
"409 479 OFFCURVE",
"378 349 CURVE",
"376 338 OFFCURVE",
"369 333 OFFCURVE",
"358 333 CURVE SMOOTH",
"142 333 LINE",
"180 458 OFFCURVE",
"251 566 OFFCURVE",
"323 566 CURVE SMOOTH"
);
},
{
closed = 1;
nodes = (
"116 447 OFFCURVE",
"213 534 OFFCURVE",
"281 561 CURVE",
"281 559 LINE",
"214 532 OFFCURVE",
"136 448 OFFCURVE",
"98 285 CURVE SMOOTH",
"54 96 OFFCURVE",
"135 -67 OFFCURVE",
"252 -95 CURVE",
"252 -96 LINE",
"135 -69 OFFCURVE",
"44 92 OFFCURVE",
"83 285 CURVE SMOOTH"
);
},
{
closed = 1;
nodes = (
"557 202 OFFCURVE",
"594 160 OFFCURVE",
"594 104 CURVE SMOOTH",
"594 62 OFFCURVE",
"577 19 OFFCURVE",
"544 -18 CURVE",
"542 -16 LINE",
"578 22 OFFCURVE",
"589 63 OFFCURVE",
"589 103 CURVE SMOOTH",
"589 160 OFFCURVE",
"543 195 OFFCURVE",
"494 195 CURVE SMOOTH",
"481 195 OFFCURVE",
"467 191 OFFCURVE",
"461 181 CURVE",
"459 181 LINE",
"468 195 OFFCURVE",
"487 202 OFFCURVE",
"506 202 CURVE SMOOTH"
);
}
);
width = 657;
}
);
leftKerningGroup = oporizq;
},
{
color = (153,255,154,255);
glyphname = f;
layers = (
{
associatedMasterId = "E49D03F4-B1E6-4C13-A892-FA4C930543A3";
hints = (
{
place = "{-376, 62}";
type = Stem;
},
{
place = "{543, 58}";
type = Stem;
},
{
horizontal = 1;
place = "{-391, 198}";
type = Stem;
},
{
horizontal = 1;
place = "{-248, 55}";
type = Stem;
},
{
horizontal = 1;
place = "{765, 51}";
type = Stem;
},
{
horizontal = 1;
place = "{765, 168}";
type = Stem;
}
);
layerId = "8D885328-48A4-407E-A23D-039AF65C631F";
name = Regular.1;
paths = (
{
closed = 1;
nodes = (
"176 558 LINE SMOOTH",
"174 551 OFFCURVE",
"170 547 OFFCURVE",
"162 547 CURVE SMOOTH",
"102 547 LINE",
"101 541 LINE",
"158 541 LINE SMOOTH",
"167 541 OFFCURVE",
"170 537 OFFCURVE",
"168 528 CURVE SMOOTH",
"82 162 LINE SMOOTH",
"43 -5 OFFCURVE",
"-24 -382 OFFCURVE",
"-234 -382 CURVE SMOOTH",
"-276 -382 OFFCURVE",
"-314 -356 OFFCURVE",
"-314 -311 CURVE SMOOTH",
"-314 -281 OFFCURVE",
"-290 -248 OFFCURVE",
"-254 -248 CURVE SMOOTH",
"-242 -248 OFFCURVE",
"-232 -250 OFFCURVE",
"-222 -261 CURVE",
"-220 -243 OFFCURVE",
"-229 -193 OFFCURVE",
"-282 -193 CURVE SMOOTH",
"-329 -193 OFFCURVE",
"-375 -234 OFFCURVE",
"-376 -289 CURVE",
"-376 -362 OFFCURVE",
"-313 -391 OFFCURVE",
"-256 -391 CURVE SMOOTH",
"-239 -391 OFFCURVE",
"-223 -389 OFFCURVE",
"-207 -387 CURVE SMOOTH",
"48 -351 OFFCURVE",
"108 -55 OFFCURVE",
"166 202 CURVE SMOOTH",
"241 532 LINE SMOOTH",
"242 538 OFFCURVE",
"246 541 OFFCURVE",
"253 541 CURVE SMOOTH",
"332 541 LINE",
"333 547 LINE",
"255 547 LINE SMOOTH",
"248 547 OFFCURVE",
"245 550 OFFCURVE",
"247 556 CURVE",
"253 585 LINE SMOOTH",
"299 807 OFFCURVE",
"381 929 OFFCURVE",
"474 929 CURVE SMOOTH",
"515 929 OFFCURVE",
"543 907 OFFCURVE",
"543 876 CURVE SMOOTH",
"543 843 OFFCURVE",
"517 816 OFFCURVE",
"485 816 CURVE SMOOTH",
"473 816 OFFCURVE",
"464 820 OFFCURVE",
"457 829 CURVE",
"453 795 OFFCURVE",
"479 765 OFFCURVE",
"512 765 CURVE SMOOTH",
"560 765 OFFCURVE",
"601 806 OFFCURVE",
"601 855 CURVE SMOOTH",
"601 905 OFFCURVE",
"557 939 OFFCURVE",
"492 939 CURVE SMOOTH",
"334 939 OFFCURVE",
"217 738 OFFCURVE",
"183 589 CURVE SMOOTH"
);
}
);
width = 231;
},
{
hints = (
{
place = "{-376, 62}";
type = Stem;
},
{
place = "{543, 58}";
type = Stem;
},
{
horizontal = 1;
place = "{-391, 198}";
type = Stem;
},
{
horizontal = 1;
place = "{-248, 55}";
type = Stem;
},
{
horizontal = 1;
place = "{765, 51}";
type = Stem;
},
{
horizontal = 1;
place = "{765, 168}";
type = Stem;
}
);
layerId = "E49D03F4-B1E6-4C13-A892-FA4C930543A3";
paths = (
{
closed = 1;
nodes = (
"531 927 LINE",
"569 919 OFFCURVE",
"593 889 OFFCURVE",
"593 854 CURVE SMOOTH",
"593 815 OFFCURVE",
"567 778 OFFCURVE",
"526 778 CURVE SMOOTH",
"511 778 OFFCURVE",
"495 784 OFFCURVE",
"482 795 CURVE",
"483 796 LINE",
"494 787 OFFCURVE",
"507 783 OFFCURVE",
"519 783 CURVE SMOOTH",
"558 783 OFFCURVE",
"584 819 OFFCURVE",
"584 857 CURVE SMOOTH",
"584 890 OFFCURVE",
"562 919 OFFCURVE",
"529 926 CURVE"
);
},
{
closed = 1;
nodes = (
"175 558 LINE SMOOTH",
"173 551 OFFCURVE",
"169 547 OFFCURVE",
"161 547 CURVE SMOOTH",
"101 547 LINE",
"100 541 LINE",
"157 541 LINE SMOOTH",
"166 541 OFFCURVE",
"169 537 OFFCURVE",
"167 528 CURVE SMOOTH",
"82 162 LINE SMOOTH",
"43 -5 OFFCURVE",
"-24 -382 OFFCURVE",
"-234 -382 CURVE SMOOTH",
"-276 -382 OFFCURVE",
"-314 -356 OFFCURVE",
"-314 -311 CURVE SMOOTH",
"-314 -281 OFFCURVE",
"-290 -248 OFFCURVE",
"-254 -248 CURVE SMOOTH",
"-242 -248 OFFCURVE",
"-232 -250 OFFCURVE",
"-222 -261 CURVE",
"-220 -243 OFFCURVE",
"-229 -193 OFFCURVE",
"-282 -193 CURVE SMOOTH",
"-329 -193 OFFCURVE",
"-376 -234 OFFCURVE",
"-376 -289 CURVE SMOOTH",
"-376 -362 OFFCURVE",
"-313 -391 OFFCURVE",
"-256 -391 CURVE SMOOTH",
"29 -391 OFFCURVE",
"109 -79 OFFCURVE",
"157 150 CURVE SMOOTH",
"237 532 LINE",
"238 538 OFFCURVE",
"242 541 OFFCURVE",
"249 541 CURVE SMOOTH",
"332 541 LINE",
"333 547 LINE",
"251 547 LINE SMOOTH",
"244 547 OFFCURVE",
"241 550 OFFCURVE",
"243 556 CURVE",
"249 585 LINE SMOOTH",
"271 690 OFFCURVE",
"338 931 OFFCURVE",
"482 931 CURVE SMOOTH",
"532 931 OFFCURVE",
"559 901 OFFCURVE",
"559 864 CURVE SMOOTH",
"559 831 OFFCURVE",
"533 804 OFFCURVE",
"501 804 CURVE SMOOTH",
"489 804 OFFCURVE",
"480 808 OFFCURVE",
"473 817 CURVE",
"469 783 OFFCURVE",
"495 753 OFFCURVE",
"528 753 CURVE SMOOTH",
"576 753 OFFCURVE",
"617 794 OFFCURVE",
"617 843 CURVE SMOOTH",
"617 900 OFFCURVE",
"566 939 OFFCURVE",
"491 939 CURVE SMOOTH",
"333 939 OFFCURVE",
"216 738 OFFCURVE",
"182 589 CURVE SMOOTH"
);
},
{
closed = 1;
nodes = (
"199 543 LINE SMOOTH",
"217 625 OFFCURVE",
"269 820 OFFCURVE",
"387 902 CURVE",
"391 903 LINE",
"273 821 OFFCURVE",
"229 625 OFFCURVE",
"211 543 CURVE SMOOTH",
"125 153 LINE SMOOTH",
"67 -110 OFFCURVE",
"3 -287 OFFCURVE",
"-142 -363 CURVE",
"-146 -364 LINE",
"-1 -288 OFFCURVE",
"52 -122 OFFCURVE",
"113 153 CURVE SMOOTH"
);
},
{
closed = 1;
nodes = (
"-256 -386 LINE",
"-312 -386 OFFCURVE",
"-352 -343 OFFCURVE",
"-352 -297 CURVE SMOOTH",
"-352 -250 OFFCURVE",
"-318 -216 OFFCURVE",
"-279 -216 CURVE SMOOTH",
"-265 -216 OFFCURVE",
"-251 -222 OFFCURVE",
"-239 -232 CURVE",
"-240 -233 LINE",
"-250 -224 OFFCURVE",
"-261 -220 OFFCURVE",
"-272 -220 CURVE SMOOTH",
"-309 -220 OFFCURVE",
"-342 -254 OFFCURVE",
"-342 -300 CURVE SMOOTH",
"-342 -345 OFFCURVE",
"-306 -385 OFFCURVE",
"-256 -385 CURVE"
);
}
);
width = 236;
}
);
unicode = 0066;
},
{
color = (255,153,254,255);
glyphname = f.9;
layers = (
{
hints = (
{
place = "{-430, 42}";
type = Stem;
},
{
place = "{225, 177}";
type = Stem;
},
{
place = "{349, 53}";
type = Stem;
},
{
place = "{537, 58}";
type = Stem;
},
{
horizontal = 1;
place = "{-396, 126}";
type = Stem;
},
{
horizontal = 1;
place = "{11, 65}";
type = Stem;
},
{
horizontal = 1;
place = "{765, 51}";
type = Stem;
},
{
horizontal = 1;
place = "{765, 168}";
type = Stem;
}
);
layerId = "E49D03F4-B1E6-4C13-A892-FA4C930543A3";
paths = (
{
closed = 1;
nodes = (
"-97 -298 LINE",
"-181 -287 OFFCURVE",
"-236 -270 OFFCURVE",
"-312 -270 CURVE SMOOTH",
"-383 -270 OFFCURVE",
"-424 -291 OFFCURVE",
"-424 -327 CURVE SMOOTH",
"-424 -372 OFFCURVE",
"-372 -396 OFFCURVE",
"-276 -396 CURVE SMOOTH",
"-8 -396 OFFCURVE",
"119 -36 OFFCURVE",
"168 200 CURVE SMOOTH",
"237 532 LINE SMOOTH",
"238 538 OFFCURVE",
"242 541 OFFCURVE",
"249 541 CURVE SMOOTH",
"332 541 LINE",
"333 547 LINE",
"251 547 LINE SMOOTH",
"244 547 OFFCURVE",
"241 550 OFFCURVE",
"243 556 CURVE",
"249 585 LINE SMOOTH",
"271 690 OFFCURVE",
"338 930 OFFCURVE",
"482 930 CURVE SMOOTH",
"532 930 OFFCURVE",
"559 900 OFFCURVE",
"559 864 CURVE SMOOTH",
"559 831 OFFCURVE",
"533 804 OFFCURVE",
"501 804 CURVE SMOOTH",
"489 804 OFFCURVE",
"480 808 OFFCURVE",
"473 817 CURVE",
"469 783 OFFCURVE",
"495 753 OFFCURVE",
"528 753 CURVE SMOOTH",
"576 753 OFFCURVE",
"617 794 OFFCURVE",
"617 843 CURVE SMOOTH",
"617 900 OFFCURVE",
"566 939 OFFCURVE",
"491 939 CURVE SMOOTH",
"333 939 OFFCURVE",
"216 738 OFFCURVE",
"182 589 CURVE SMOOTH",
"175 558 LINE SMOOTH",
"173 551 OFFCURVE",
"169 547 OFFCURVE",
"161 547 CURVE SMOOTH",
"101 547 LINE",
"100 541 LINE",
"157 541 LINE SMOOTH",
"166 541 OFFCURVE",
"169 537 OFFCURVE",
"167 528 CURVE SMOOTH",
"108 275 LINE SMOOTH",
"54 44 OFFCURVE",
"-39 -390 OFFCURVE",
"-274 -390 CURVE SMOOTH",
"-346 -390 OFFCURVE",
"-382 -369 OFFCURVE",
"-382 -329 CURVE SMOOTH",
"-382 -296 OFFCURVE",
"-354 -276 OFFCURVE",
"-308 -276 CURVE SMOOTH",
"-258 -276 OFFCURVE",
"-195 -297 OFFCURVE",
"-106 -309 CURVE"
);
},
{
closed = 1;
nodes = (
"-79 -312 LINE",
"-47 -315 OFFCURVE",
"-14 -318 OFFCURVE",
"17 -318 CURVE SMOOTH",
"210 -318 OFFCURVE",
"408 -182 OFFCURVE",
"408 -27 CURVE SMOOTH",
"408 31 OFFCURVE",
"363 76 OFFCURVE",
"310 76 CURVE SMOOTH",
"254 76 OFFCURVE",
"231 31 OFFCURVE",
"231 -6 CURVE SMOOTH",
"231 -13 OFFCURVE",
"231 -20 OFFCURVE",
"233 -27 CURVE",
"242 -2 OFFCURVE",
"265 11 OFFCURVE",
"288 11 CURVE SMOOTH",
"329 11 OFFCURVE",
"355 -26 OFFCURVE",
"355 -73 CURVE SMOOTH",
"355 -215 OFFCURVE",
"200 -305 OFFCURVE",
"24 -305 CURVE SMOOTH",
"-1 -305 OFFCURVE",
"-28 -305 OFFCURVE",
"-67 -301 CURVE"
);
},
{
closed = 1;
nodes = (
"531 927 LINE",
"569 919 OFFCURVE",
"593 889 OFFCURVE",
"593 854 CURVE SMOOTH",
"593 815 OFFCURVE",
"567 778 OFFCURVE",
"526 778 CURVE SMOOTH",
"511 778 OFFCURVE",
"495 784 OFFCURVE",
"482 795 CURVE",
"483 796 LINE",
"494 787 OFFCURVE",
"507 783 OFFCURVE",
"519 783 CURVE SMOOTH",
"558 783 OFFCURVE",
"584 819 OFFCURVE",
"584 857 CURVE SMOOTH",
"584 890 OFFCURVE",
"562 919 OFFCURVE",
"529 926 CURVE"
);
},
{
closed = 1;
nodes = (
"199 543 LINE SMOOTH",
"217 625 OFFCURVE",
"269 820 OFFCURVE",
"387 902 CURVE",
"391 903 LINE",
"273 821 OFFCURVE",
"229 625 OFFCURVE",
"211 543 CURVE SMOOTH",
"141 229 LINE SMOOTH",
"86 -20 OFFCURVE",
"0 -278 OFFCURVE",
"-169 -366 CURVE",
"-173 -367 LINE",
"-4 -279 OFFCURVE",
"70 -34 OFFCURVE",
"129 229 CURVE SMOOTH"
);
},
{
closed = 1;
nodes = (
"344 -162 LINE",
"367 -129 OFFCURVE",
"380 -92 OFFCURVE",
"380 -49 CURVE SMOOTH",
"380 0 OFFCURVE",
"345 40 OFFCURVE",
"296 40 CURVE SMOOTH",
"283 40 OFFCURVE",
"268 36 OFFCURVE",
"261 26 CURVE",
"259 28 LINE",
"266 41 OFFCURVE",
"287 48 OFFCURVE",
"306 48 CURVE SMOOTH",
"355 48 OFFCURVE",
"388 10 OFFCURVE",
"388 -39 CURVE SMOOTH",
"388 -89 OFFCURVE",
"372 -129 OFFCURVE",
"345 -165 CURVE"
);
},
{
closed = 1;
nodes = (
"-324 -390 LINE",
"-373 -385 OFFCURVE",
"-407 -368 OFFCURVE",
"-407 -329 CURVE SMOOTH",
"-407 -304 OFFCURVE",
"-386 -277 OFFCURVE",
"-334 -274 CURVE",
"-334 -275 LINE",
"-382 -278 OFFCURVE",
"-399 -306 OFFCURVE",
"-399 -329 CURVE SMOOTH",
"-399 -366 OFFCURVE",
"-367 -383 OFFCURVE",
"-323 -389 CURVE"
);
}
);
width = 498;
}
);
},
{
color = (255,153,254,255);
glyphname = f.short;
layers = (
{
hints = (
{
place = "{-322, 62}";
type = Stem;
},
{
place = "{543, 58}";
type = Stem;
},
{
horizontal = 1;
place = "{-276, 198}";
type = Stem;
},
{
horizontal = 1;
place = "{-133, 55}";
type = Stem;
},
{
horizontal = 1;
place = "{765, 51}";
type = Stem;
},
{
horizontal = 1;
place = "{765, 168}";
type = Stem;
}
);
layerId = "E49D03F4-B1E6-4C13-A892-FA4C930543A3";
paths = (
{
closed = 1;
nodes = (
"175 558 LINE SMOOTH",
"173 551 OFFCURVE",
"169 547 OFFCURVE",
"161 547 CURVE SMOOTH",
"101 547 LINE",
"100 541 LINE",
"157 541 LINE SMOOTH",
"166 541 OFFCURVE",
"169 537 OFFCURVE",
"167 528 CURVE SMOOTH",
"82 162 LINE SMOOTH",
"50 24 OFFCURVE",
"-8 -288 OFFCURVE",
"-174 -288 CURVE SMOOTH",
"-216 -288 OFFCURVE",
"-254 -262 OFFCURVE",
"-254 -217 CURVE SMOOTH",
"-254 -187 OFFCURVE",
"-230 -154 OFFCURVE",
"-194 -154 CURVE SMOOTH",
"-182 -154 OFFCURVE",
"-172 -156 OFFCURVE",
"-162 -167 CURVE",
"-160 -149 OFFCURVE",
"-169 -99 OFFCURVE",
"-222 -99 CURVE SMOOTH",
"-272 -99 OFFCURVE",
"-316 -144 OFFCURVE",
"-316 -195 CURVE SMOOTH",
"-316 -268 OFFCURVE",
"-253 -297 OFFCURVE",
"-196 -297 CURVE SMOOTH",
"44 -297 OFFCURVE",
"117 -39 OFFCURVE",
"157 150 CURVE SMOOTH",
"237 532 LINE SMOOTH",
"238 538 OFFCURVE",
"242 541 OFFCURVE",
"249 541 CURVE SMOOTH",
"332 541 LINE",
"333 547 LINE",
"251 547 LINE SMOOTH",
"244 547 OFFCURVE",
"241 550 OFFCURVE",
"243 556 CURVE",
"249 585 LINE SMOOTH",
"271 690 OFFCURVE",
"338 930 OFFCURVE",
"482 930 CURVE SMOOTH",
"532 930 OFFCURVE",
"559 900 OFFCURVE",
"559 864 CURVE SMOOTH",
"559 831 OFFCURVE",
"533 804 OFFCURVE",
"501 804 CURVE SMOOTH",
"489 804 OFFCURVE",
"480 808 OFFCURVE",
"473 817 CURVE",
"469 783 OFFCURVE",
"495 753 OFFCURVE",
"528 753 CURVE SMOOTH",
"576 753 OFFCURVE",
"617 794 OFFCURVE",
"617 843 CURVE SMOOTH",
"617 900 OFFCURVE",
"566 939 OFFCURVE",
"491 939 CURVE SMOOTH",
"333 939 OFFCURVE",
"216 738 OFFCURVE",
"182 589 CURVE SMOOTH"
);
},
{
closed = 1;
nodes = (
"531 927 LINE",
"569 919 OFFCURVE",
"593 889 OFFCURVE",
"593 854 CURVE SMOOTH",
"593 815 OFFCURVE",
"567 778 OFFCURVE",
"526 778 CURVE SMOOTH",
"511 778 OFFCURVE",
"495 784 OFFCURVE",
"482 795 CURVE",
"483 796 LINE",
"494 787 OFFCURVE",
"507 783 OFFCURVE",
"519 783 CURVE SMOOTH",
"558 783 OFFCURVE",
"584 819 OFFCURVE",
"584 857 CURVE SMOOTH",
"584 890 OFFCURVE",
"562 919 OFFCURVE",
"529 926 CURVE"
);
},
{
closed = 1;
nodes = (
"199 543 LINE SMOOTH",
"217 625 OFFCURVE",
"269 820 OFFCURVE",
"387 902 CURVE",
"391 903 LINE",
"273 821 OFFCURVE",
"229 625 OFFCURVE",
"211 543 CURVE SMOOTH",
"125 153 LINE SMOOTH",
"78 -62 OFFCURVE",
"29 -207 OFFCURVE",
"-85 -269 CURVE",
"-89 -270 LINE",
"24 -208 OFFCURVE",
"63 -72 OFFCURVE",
"113 153 CURVE SMOOTH"
);
},
{
closed = 1;
nodes = (
"-196 -292 LINE",
"-252 -292 OFFCURVE",
"-292 -249 OFFCURVE",
"-292 -203 CURVE SMOOTH",
"-292 -156 OFFCURVE",
"-258 -122 OFFCURVE",
"-219 -122 CURVE SMOOTH",
"-205 -122 OFFCURVE",
"-191 -128 OFFCURVE",
"-179 -138 CURVE",
"-180 -139 LINE",
"-190 -130 OFFCURVE",
"-201 -126 OFFCURVE",
"-212 -126 CURVE SMOOTH",
"-249 -126 OFFCURVE",
"-282 -160 OFFCURVE",
"-282 -206 CURVE SMOOTH",
"-282 -251 OFFCURVE",
"-246 -291 OFFCURVE",
"-196 -291 CURVE"
);
}
);
width = 236;
}
);
},
{
color = (255,153,254,255);
glyphname = f.3;
layers = (
{
associatedMasterId = "E49D03F4-B1E6-4C13-A892-FA4C930543A3";
layerId = "3A45E4B8-543F-4BDE-9F07-77ABAA78DA7A";
name = public.background;
paths = (
{
closed = 1;
nodes = (
"-535 -163 OFFCURVE",
"-509 -114 OFFCURVE",
"-413 -114 CURVE SMOOTH",
"-316 -114 OFFCURVE",
"-217 -156 OFFCURVE",
"-121 -200 CURVE",
"-187 -252 OFFCURVE",
"-273 -285 OFFCURVE",
"-383 -285 CURVE SMOOTH",
"-440 -285 OFFCURVE",
"-535 -269 OFFCURVE",
"-535 -192 CURVE SMOOTH"
);
},
{
closed = 1;
nodes = (
"-92 -175 LINE",
"-180 -135 OFFCURVE",
"-269 -100 OFFCURVE",
"-345 -100 CURVE SMOOTH",
"-508 -100 OFFCURVE",
"-592 -153 OFFCURVE",
"-592 -191 CURVE SMOOTH",
"-592 -248 OFFCURVE",
"-494 -293 OFFCURVE",
"-359 -293 CURVE SMOOTH",
"-255 -293 OFFCURVE",
"-164 -265 OFFCURVE",
"-87 -215 CURVE",
"0 -254 OFFCURVE",
"85 -290 OFFCURVE",
"166 -290 CURVE SMOOTH",
"321 -290 OFFCURVE",
"438 -237 OFFCURVE",
"438 -140 CURVE SMOOTH",
"438 -102 OFFCURVE",
"406 -73 OFFCURVE",
"370 -73 CURVE SMOOTH",
"331 -73 OFFCURVE",
"313 -105 OFFCURVE",
"313 -131 CURVE SMOOTH",
"313 -135 OFFCURVE",
"313 -140 OFFCURVE",
"314 -146 CURVE",
"321 -128 OFFCURVE",
"336 -118 OFFCURVE",
"353 -118 CURVE SMOOTH",
"382 -118 OFFCURVE",
"403 -138 OFFCURVE",
"403 -172 CURVE SMOOTH",
"403 -228 OFFCURVE",
"339 -278 OFFCURVE",
"217 -278 CURVE SMOOTH",
"138 -278 OFFCURVE",
"42 -235 OFFCURVE",
"-54 -192 CURVE"
);
}
);
width = 231;
},
{
hints = (
{
place = "{-592, 57}";
type = Stem;
},
{
place = "{313, 125}";
type = Stem;
},
{
place = "{403, 35}";
type = Stem;
},
{
place = "{543, 58}";
type = Stem;
},
{
horizontal = 1;
place = "{-293, 193}";
type = Stem;
},
{
horizontal = 1;
place = "{-114, 41}";
type = Stem;
},
{
horizontal = 1;
place = "{765, 51}";
type = Stem;
},
{
horizontal = 1;
place = "{765, 168}";
type = Stem;
}
);
layerId = "E49D03F4-B1E6-4C13-A892-FA4C930543A3";
paths = (
{
closed = 1;
nodes = (
"-72 -209 LINE",
"7 -256 OFFCURVE",
"88 -303 OFFCURVE",
"195 -303 CURVE SMOOTH",
"324 -303 OFFCURVE",
"414 -240 OFFCURVE",
"414 -149 CURVE SMOOTH",
"414 -105 OFFCURVE",
"385 -74 OFFCURVE",
"344 -74 CURVE SMOOTH",
"310 -74 OFFCURVE",
"284 -97 OFFCURVE",
"284 -128 CURVE SMOOTH",
"284 -133 OFFCURVE",
"284 -137 OFFCURVE",
"285 -143 CURVE",
"292 -127 OFFCURVE",
"307 -117 OFFCURVE",
"326 -117 CURVE SMOOTH",
"358 -117 OFFCURVE",
"380 -140 OFFCURVE",
"380 -174 CURVE SMOOTH",
"380 -236 OFFCURVE",
"331 -280 OFFCURVE",
"262 -280 CURVE SMOOTH",
"168 -280 OFFCURVE",
"65 -228 OFFCURVE",
"-41 -182 CURVE"
);
},
{
closed = 1;
nodes = (
"-58 -175 LINE",
"-144 -138 OFFCURVE",
"-231 -106 OFFCURVE",
"-318 -106 CURVE SMOOTH",
"-415 -106 OFFCURVE",
"-495 -149 OFFCURVE",
"-495 -201 CURVE SMOOTH",
"-495 -251 OFFCURVE",
"-424 -284 OFFCURVE",
"-317 -284 CURVE SMOOTH",
"-11 -284 OFFCURVE",
"121 -16 OFFCURVE",
"166 196 CURVE SMOOTH",
"237 532 LINE SMOOTH",
"238 538 OFFCURVE",
"242 541 OFFCURVE",
"249 541 CURVE SMOOTH",
"332 541 LINE",
"333 547 LINE",
"251 547 LINE SMOOTH",
"244 547 OFFCURVE",
"241 550 OFFCURVE",
"243 556 CURVE",
"249 585 LINE SMOOTH",
"271 690 OFFCURVE",
"338 930 OFFCURVE",
"482 930 CURVE SMOOTH",
"532 930 OFFCURVE",
"559 900 OFFCURVE",
"559 864 CURVE SMOOTH",
"559 831 OFFCURVE",
"533 804 OFFCURVE",
"501 804 CURVE SMOOTH",
"489 804 OFFCURVE",
"480 808 OFFCURVE",
"473 817 CURVE",
"469 783 OFFCURVE",
"495 753 OFFCURVE",
"528 753 CURVE SMOOTH",
"576 753 OFFCURVE",
"617 794 OFFCURVE",
"617 843 CURVE SMOOTH",
"617 900 OFFCURVE",
"566 939 OFFCURVE",
"491 939 CURVE SMOOTH",
"333 939 OFFCURVE",
"216 738 OFFCURVE",
"182 589 CURVE SMOOTH",
"175 558 LINE SMOOTH",
"173 551 OFFCURVE",
"169 547 OFFCURVE",
"161 547 CURVE SMOOTH",
"101 547 LINE",
"100 541 LINE",
"157 541 LINE SMOOTH",
"166 541 OFFCURVE",
"169 537 OFFCURVE",
"167 528 CURVE SMOOTH",
"82 162 LINE SMOOTH",
"53 37 OFFCURVE",
"-10 -278 OFFCURVE",
"-303 -278 CURVE SMOOTH",
"-394 -278 OFFCURVE",
"-449 -247 OFFCURVE",
"-449 -196 CURVE SMOOTH",
"-449 -146 OFFCURVE",
"-399 -113 OFFCURVE",
"-323 -113 CURVE SMOOTH",
"-233 -113 OFFCURVE",
"-160 -156 OFFCURVE",
"-85 -201 CURVE"
);
},
{
closed = 1;
nodes = (
"-148 -245 LINE",
"-20 -186 OFFCURVE",
"64 -60 OFFCURVE",
"116 173 CURVE SMOOTH",
"208 581 LINE SMOOTH",
"225 656 OFFCURVE",
"276 832 OFFCURVE",
"393 905 CURVE",
"397 906 LINE",
"279 833 OFFCURVE",
"237 656 OFFCURVE",
"220 581 CURVE SMOOTH",
"128 173 LINE SMOOTH",
"75 -62 OFFCURVE",
"-16 -188 OFFCURVE",
"-148 -247 CURVE"
);
},
{
closed = 1;
nodes = (
"518 932 LINE",
"555 926 OFFCURVE",
"593 897 OFFCURVE",
"593 852 CURVE SMOOTH",
"593 813 OFFCURVE",
"563 779 OFFCURVE",
"528 779 CURVE SMOOTH",
"512 779 OFFCURVE",
"496 785 OFFCURVE",
"483 796 CURVE",
"484 797 LINE",
"494 789 OFFCURVE",
"507 784 OFFCURVE",
"520 784 CURVE SMOOTH",
"554 784 OFFCURVE",
"584 818 OFFCURVE",
"584 856 CURVE SMOOTH",
"584 897 OFFCURVE",
"550 925 OFFCURVE",
"518 931 CURVE"
);
},
{
closed = 1;
nodes = (
"-47 -196 LINE",
"34 -234 OFFCURVE",
"142 -297 OFFCURVE",
"252 -289 CURVE",
"252 -291 LINE",
"143 -299 OFFCURVE",
"27 -240 OFFCURVE",
"-53 -200 CURVE"
);
},
{
closed = 1;
nodes = (
"-77 -186 LINE",
"-105 -170 OFFCURVE",
"-185 -129 OFFCURVE",
"-267 -115 CURVE",
"-267 -113 LINE",
"-178 -128 OFFCURVE",
"-112 -161 OFFCURVE",
"-73 -182 CURVE"
);
},
{
closed = 1;
nodes = (
"297 -114 LINE",
"305 -100 OFFCURVE",
"319 -91 OFFCURVE",
"335 -91 CURVE SMOOTH",
"370 -91 OFFCURVE",
"401 -110 OFFCURVE",
"401 -156 CURVE SMOOTH",
"401 -186 OFFCURVE",
"391 -214 OFFCURVE",
"365 -242 CURVE",
"364 -241 LINE",
"388 -214 OFFCURVE",
"395 -193 OFFCURVE",
"395 -165 CURVE SMOOTH",
"395 -123 OFFCURVE",
"365 -97 OFFCURVE",
"329 -97 CURVE SMOOTH",
"318 -97 OFFCURVE",
"306 -102 OFFCURVE",
"299 -114 CURVE"
);
},
{
closed = 1;
nodes = (
"-383 -275 LINE",
"-441 -261 OFFCURVE",
"-476 -233 OFFCURVE",
"-476 -199 CURVE SMOOTH",
"-476 -164 OFFCURVE",
"-441 -132 OFFCURVE",
"-384 -116 CURVE",
"-386 -118 LINE",
"-436 -133 OFFCURVE",
"-466 -163 OFFCURVE",
"-466 -197 CURVE SMOOTH",
"-466 -230 OFFCURVE",
"-436 -259 OFFCURVE",
"-387 -273 CURVE"
);
}
);
width = 231;
}
);
},
{
color = (153,255,154,255);
glyphname = g;
layers = (
{
associatedMasterId = "E49D03F4-B1E6-4C13-A892-FA4C930543A3";
layerId = "3A45E4B8-543F-4BDE-9F07-77ABAA78DA7A";
name = public.background;
paths = (
{
closed = 1;
nodes = (
"85 290 OFFCURVE",
"105 222 OFFCURVE",
"158 189 CURVE",
"111 190 OFFCURVE",
"42 129 OFFCURVE",
"42 76 CURVE SMOOTH",
"42 18 OFFCURVE",
"81 -10 OFFCURVE",
"133 -29 CURVE",
"124 -29 LINE SMOOTH",
"-44 -29 OFFCURVE",
"-237 -125 OFFCURVE",
"-237 -286 CURVE SMOOTH",
"-237 -412 OFFCURVE",
"-106 -476 OFFCURVE",
"38 -476 CURVE SMOOTH",
"209 -476 OFFCURVE",
"464 -364 OFFCURVE",
"464 -176 CURVE SMOOTH",
"464 -70 OFFCURVE",
"400 -28 OFFCURVE",
"311 0 CURVE SMOOTH",
"217 30 OFFCURVE",
"98 45 OFFCURVE",
"98 126 CURVE SMOOTH",
"98 164 OFFCURVE",
"139 194 OFFCURVE",
"173 181 CURVE",
"174 181 OFFCURVE",
"175 180 OFFCURVE",
"176 180 CURVE",
"177 179 OFFCURVE",
"177 179 OFFCURVE",
"178 179 CURVE",
"198 170 OFFCURVE",
"221 166 OFFCURVE",
"248 166 CURVE SMOOTH",
"351 166 OFFCURVE",
"458 256 OFFCURVE",
"485 368 CURVE SMOOTH",
"506 459 OFFCURVE",
"474 537 OFFCURVE",
"396 561 CURVE",
"476 552 OFFCURVE",
"560 605 OFFCURVE",
"560 678 CURVE SMOOTH",
"560 711 OFFCURVE",
"535 741 OFFCURVE",
"502 741 CURVE SMOOTH",
"472 741 OFFCURVE",
"450 722 OFFCURVE",
"451 693 CURVE",
"460 703 OFFCURVE",
"470 706 OFFCURVE",
"479 706 CURVE SMOOTH",
"504 706 OFFCURVE",
"519 686 OFFCURVE",
"519 664 CURVE SMOOTH",
"519 595 OFFCURVE",
"447 553 OFFCURVE",
"381 565 CURVE SMOOTH",
"368 567 OFFCURVE",
"354 569 OFFCURVE",
"340 569 CURVE SMOOTH",
"237 569 OFFCURVE",
"130 479 OFFCURVE",
"103 368 CURVE SMOOTH"
);
},
{
closed = 1;
nodes = (
"315 -80 OFFCURVE",
"393 -111 OFFCURVE",
"393 -211 CURVE SMOOTH",
"393 -363 OFFCURVE",
"240 -462 OFFCURVE",
"81 -462 CURVE SMOOTH",
"-29 -462 OFFCURVE",
"-160 -409 OFFCURVE",
"-160 -272 CURVE SMOOTH",
"-160 -116 OFFCURVE",
"1 -33 OFFCURVE",
"138 -33 CURVE SMOOTH",
"144 -33 LINE",
"172 -42 OFFCURVE",
"203 -49 OFFCURVE",
"233 -58 CURVE"
);
},
{
closed = 1;
nodes = (
"225 498 OFFCURVE",
"283 563 OFFCURVE",
"344 563 CURVE SMOOTH",
"407 563 OFFCURVE",
"432 496 OFFCURVE",
"398 368 CURVE",
"366 240 OFFCURVE",
"305 172 OFFCURVE",
"243 172 CURVE SMOOTH",
"181 172 OFFCURVE",
"152 238 OFFCURVE",
"190 368 CURVE"
);
}
);
width = 458;
},
{
hints = (
{
place = "{-237, 77}";
type = Stem;
},
{
place = "{42, 56}";
type = Stem;
},
{
place = "{393, 71}";
type = Stem;
},
{
place = "{451, 109}";
type = Stem;
},
{
place = "{519, 41}";
type = Stem;
},
{
horizontal = 1;
place = "{-476, 21}";
type = Stem;
},
{
horizontal = 1;
place = "{-33, 205}";
type = Stem;
},
{
horizontal = 1;
place = "{-33, 222}";
type = Stem;
},
{
horizontal = 1;
place = "{563, 178}";
type = Stem;
},
{
horizontal = 1;
place = "{706, 35}";
type = Stem;
}
);
layerId = "E49D03F4-B1E6-4C13-A892-FA4C930543A3";
paths = (
{
closed = 1;
nodes = (
"396 560 LINE",
"472 557 OFFCURVE",
"548 609 OFFCURVE",
"548 678 CURVE SMOOTH",
"548 711 OFFCURVE",
"523 741 OFFCURVE",
"490 741 CURVE SMOOTH",
"460 741 OFFCURVE",
"438 722 OFFCURVE",
"439 693 CURVE",
"448 703 OFFCURVE",
"458 706 OFFCURVE",
"467 706 CURVE SMOOTH",
"492 706 OFFCURVE",
"507 686 OFFCURVE",
"507 664 CURVE SMOOTH",
"507 595 OFFCURVE",
"435 553 OFFCURVE",
"369 565 CURVE SMOOTH",
"356 567 OFFCURVE",
"342 569 OFFCURVE",
"328 569 CURVE SMOOTH",
"225 569 OFFCURVE",
"117 479 OFFCURVE",
"91 368 CURVE SMOOTH",
"72 290 OFFCURVE",
"96 221 OFFCURVE",
"149 188 CURVE",
"87 188 OFFCURVE",
"30 141 OFFCURVE",
"30 84 CURVE SMOOTH",
"30 23 OFFCURVE",
"67 -9 OFFCURVE",
"121 -29 CURVE",
"112 -29 LINE SMOOTH",
"-32 -29 OFFCURVE",
"-197 -123 OFFCURVE",
"-197 -275 CURVE SMOOTH",
"-197 -400 OFFCURVE",
"-78 -460 OFFCURVE",
"50 -460 CURVE SMOOTH",
"211 -460 OFFCURVE",
"452 -354 OFFCURVE",
"452 -176 CURVE SMOOTH",
"452 -70 OFFCURVE",
"388 -30 OFFCURVE",
"299 -3 CURVE SMOOTH",
"204 26 LINE SMOOTH",
"143 45 OFFCURVE",
"86 73 OFFCURVE",
"86 120 CURVE SMOOTH",
"86 158 OFFCURVE",
"111 182 OFFCURVE",
"144 182 CURVE SMOOTH",
"151 182 OFFCURVE",
"158 181 OFFCURVE",
"166 179 CURVE",
"186 170 OFFCURVE",
"209 166 OFFCURVE",
"236 166 CURVE SMOOTH",
"339 166 OFFCURVE",
"447 256 OFFCURVE",
"473 368 CURVE SMOOTH",
"493 454 OFFCURVE",
"465 529 OFFCURVE",
"395 557 CURVE"
);
},
{
closed = 1;
nodes = (
"303 -81 OFFCURVE",
"381 -111 OFFCURVE",
"381 -211 CURVE SMOOTH",
"381 -354 OFFCURVE",
"240 -446 OFFCURVE",
"93 -446 CURVE SMOOTH",
"-10 -446 OFFCURVE",
"-131 -396 OFFCURVE",
"-131 -261 CURVE SMOOTH",
"-131 -113 OFFCURVE",
"8 -33 OFFCURVE",
"126 -33 CURVE SMOOTH",
"132 -33 LINE",
"160 -42 OFFCURVE",
"191 -50 OFFCURVE",
"221 -58 CURVE SMOOTH"
);
},
{
closed = 1;
nodes = (
"214 498 OFFCURVE",
"271 563 OFFCURVE",
"332 563 CURVE SMOOTH",
"395 563 OFFCURVE",
"419 496 OFFCURVE",
"386 368 CURVE SMOOTH",
"353 240 OFFCURVE",
"293 172 OFFCURVE",
"231 172 CURVE SMOOTH",
"169 172 OFFCURVE",
"141 238 OFFCURVE",
"178 368 CURVE SMOOTH"
);
},
{
closed = 1;
nodes = (
"476 586 LINE",
"508 605 OFFCURVE",
"527 636 OFFCURVE",
"527 673 CURVE SMOOTH",
"527 700 OFFCURVE",
"502 723 OFFCURVE",
"479 723 CURVE SMOOTH",
"471 723 OFFCURVE",
"462 720 OFFCURVE",
"453 713 CURVE",
"452 714 LINE",
"461 723 OFFCURVE",
"474 728 OFFCURVE",
"487 728 CURVE SMOOTH",
"510 728 OFFCURVE",
"533 704 OFFCURVE",
"533 677 CURVE SMOOTH",
"533 638 OFFCURVE",
"510 603 OFFCURVE",
"478 584 CURVE"
);
},
{
closed = 1;
nodes = (
"181 180 LINE",
"116 196 OFFCURVE",
"106 288 OFFCURVE",
"128 370 CURVE SMOOTH",
"156 475 OFFCURVE",
"219 538 OFFCURVE",
"290 561 CURVE",
"290 559 LINE",
"221 534 OFFCURVE",
"170 477 OFFCURVE",
"142 373 CURVE SMOOTH",
"121 295 OFFCURVE",
"124 198 OFFCURVE",
"184 180 CURVE"
);
},
{
closed = 1;
nodes = (
"383 556 LINE",
"449 518 OFFCURVE",
"458 436 OFFCURVE",
"441 373 CURVE SMOOTH",
"413 272 OFFCURVE",
"340 189 OFFCURVE",
"266 172 CURVE",
"266 174 LINE",
"340 191 OFFCURVE",
"399 268 OFFCURVE",
"425 369 CURVE SMOOTH",
"442 432 OFFCURVE",
"447 521 OFFCURVE",
"383 554 CURVE"
);
},
{
closed = 1;
nodes = (
"315 -373 LINE",
"373 -328 OFFCURVE",
"413 -271 OFFCURVE",
"413 -197 CURVE SMOOTH",
"413 -108 OFFCURVE",
"354 -65 OFFCURVE",
"282 -43 CURVE SMOOTH",
"184 -13 LINE SMOOTH",
"115 8 OFFCURVE",
"52 38 OFFCURVE",
"52 95 CURVE SMOOTH",
"52 114 OFFCURVE",
"59 136 OFFCURVE",
"76 153 CURVE",
"78 151 LINE",
"63 136 OFFCURVE",
"59 121 OFFCURVE",
"59 103 CURVE SMOOTH",
"59 46 OFFCURVE",
"120 19 OFFCURVE",
"189 -2 CURVE SMOOTH",
"286 -32 LINE SMOOTH",
"382 -62 OFFCURVE",
"421 -105 OFFCURVE",
"421 -190 CURVE SMOOTH",
"421 -266 OFFCURVE",
"381 -330 OFFCURVE",
"317 -375 CURVE"
);
},
{
closed = 1;
nodes = (
"37 -42 LINE",
"-66 -71 OFFCURVE",
"-160 -150 OFFCURVE",
"-160 -268 CURVE SMOOTH",
"-160 -389 OFFCURVE",
"-57 -453 OFFCURVE",
"58 -453 CURVE",
"58 -455 LINE",
"-64 -455 OFFCURVE",
"-172 -392 OFFCURVE",
"-172 -270 CURVE SMOOTH",
"-172 -149 OFFCURVE",
"-73 -69 OFFCURVE",
"37 -40 CURVE"
);
}
);
width = 458;
}
);
unicode = 0067;
},
{
color = (255,204,153,255);
glyphname = g.ss05;
layers = (
{
associatedMasterId = "E49D03F4-B1E6-4C13-A892-FA4C930543A3";
layerId = "3A45E4B8-543F-4BDE-9F07-77ABAA78DA7A";
name = public.background;
paths = (
{
closed = 1;
nodes = (
"85 290 OFFCURVE",
"105 222 OFFCURVE",
"158 189 CURVE",
"111 190 OFFCURVE",
"42 129 OFFCURVE",
"42 76 CURVE SMOOTH",
"42 18 OFFCURVE",
"81 -10 OFFCURVE",
"133 -29 CURVE",
"124 -29 LINE SMOOTH",
"-44 -29 OFFCURVE",
"-237 -125 OFFCURVE",
"-237 -286 CURVE SMOOTH",
"-237 -412 OFFCURVE",
"-106 -476 OFFCURVE",
"38 -476 CURVE SMOOTH",
"209 -476 OFFCURVE",
"464 -364 OFFCURVE",
"464 -176 CURVE SMOOTH",
"464 -70 OFFCURVE",
"400 -28 OFFCURVE",
"311 0 CURVE SMOOTH",
"217 30 OFFCURVE",
"98 45 OFFCURVE",
"98 126 CURVE SMOOTH",
"98 164 OFFCURVE",
"139 194 OFFCURVE",
"173 181 CURVE",
"174 181 OFFCURVE",
"175 180 OFFCURVE",
"176 180 CURVE",
"177 179 OFFCURVE",
"177 179 OFFCURVE",
"178 179 CURVE",
"198 170 OFFCURVE",
"221 166 OFFCURVE",
"248 166 CURVE SMOOTH",
"351 166 OFFCURVE",
"458 256 OFFCURVE",
"485 368 CURVE SMOOTH",
"506 459 OFFCURVE",
"474 537 OFFCURVE",
"396 561 CURVE",
"476 552 OFFCURVE",
"560 605 OFFCURVE",
"560 678 CURVE SMOOTH",
"560 711 OFFCURVE",
"535 741 OFFCURVE",
"502 741 CURVE SMOOTH",
"472 741 OFFCURVE",
"450 722 OFFCURVE",
"451 693 CURVE",
"460 703 OFFCURVE",
"470 706 OFFCURVE",
"479 706 CURVE SMOOTH",
"504 706 OFFCURVE",
"519 686 OFFCURVE",
"519 664 CURVE SMOOTH",
"519 595 OFFCURVE",
"447 553 OFFCURVE",
"381 565 CURVE SMOOTH",
"368 567 OFFCURVE",
"354 569 OFFCURVE",
"340 569 CURVE SMOOTH",
"237 569 OFFCURVE",
"130 479 OFFCURVE",
"103 368 CURVE SMOOTH"
);
},
{
closed = 1;
nodes = (
"315 -80 OFFCURVE",
"393 -111 OFFCURVE",
"393 -211 CURVE SMOOTH",
"393 -363 OFFCURVE",
"240 -462 OFFCURVE",
"81 -462 CURVE SMOOTH",
"-29 -462 OFFCURVE",
"-160 -409 OFFCURVE",
"-160 -272 CURVE SMOOTH",
"-160 -116 OFFCURVE",
"1 -33 OFFCURVE",
"138 -33 CURVE SMOOTH",
"144 -33 LINE",
"172 -42 OFFCURVE",
"203 -49 OFFCURVE",
"233 -58 CURVE"
);
},
{
closed = 1;
nodes = (
"225 498 OFFCURVE",
"283 563 OFFCURVE",
"344 563 CURVE SMOOTH",
"407 563 OFFCURVE",
"432 496 OFFCURVE",
"398 368 CURVE",
"366 240 OFFCURVE",
"305 172 OFFCURVE",
"243 172 CURVE SMOOTH",
"181 172 OFFCURVE",
"152 238 OFFCURVE",
"190 368 CURVE"
);
}
);
width = 458;
},
{
hints = (
{
place = "{-237, 77}";
type = Stem;
},
{
place = "{42, 56}";
type = Stem;
},
{
place = "{393, 71}";
type = Stem;
},
{
place = "{451, 109}";
type = Stem;
},
{
place = "{519, 41}";
type = Stem;
},
{
horizontal = 1;
place = "{-476, 21}";
type = Stem;
},
{
horizontal = 1;
place = "{-33, 205}";
type = Stem;
},
{
horizontal = 1;
place = "{-33, 222}";
type = Stem;
},
{
horizontal = 1;
place = "{563, 178}";
type = Stem;
},
{
horizontal = 1;
place = "{706, 35}";
type = Stem;
}
);
layerId = "E49D03F4-B1E6-4C13-A892-FA4C930543A3";
paths = (
{
closed = 1;
nodes = (
"145 191 OFFCURVE",
"144 188 OFFCURVE",
"133 187 CURVE SMOOTH",
"74 180 OFFCURVE",
"20 137 OFFCURVE",
"20 75 CURVE SMOOTH",
"20 26 OFFCURVE",
"55 -7 OFFCURVE",
"130 -29 CURVE SMOOTH",
"244 -62 LINE SMOOTH",
"319 -84 OFFCURVE",
"357 -131 OFFCURVE",
"357 -203 CURVE SMOOTH",
"357 -313 OFFCURVE",
"260 -409 OFFCURVE",
"92 -409 CURVE SMOOTH",
"-23 -409 OFFCURVE",
"-93 -362 OFFCURVE",
"-93 -285 CURVE SMOOTH",
"-93 -237 OFFCURVE",
"-61 -210 OFFCURVE",
"-29 -210 CURVE SMOOTH",
"-13 -210 OFFCURVE",
"4 -217 OFFCURVE",
"8 -235 CURVE",
"16 -191 OFFCURVE",
"-8 -154 OFFCURVE",
"-58 -154 CURVE SMOOTH",
"-112 -154 OFFCURVE",
"-145 -202 OFFCURVE",
"-145 -253 CURVE SMOOTH",
"-145 -339 OFFCURVE",
"-46 -415 OFFCURVE",
"90 -415 CURVE SMOOTH",
"291 -415 OFFCURVE",
"428 -290 OFFCURVE",
"428 -155 CURVE SMOOTH",
"428 -59 OFFCURVE",
"362 -14 OFFCURVE",
"266 13 CURVE SMOOTH",
"152 45 LINE SMOOTH",
"100 60 OFFCURVE",
"72 86 OFFCURVE",
"72 122 CURVE SMOOTH",
"72 161 OFFCURVE",
"101 182 OFFCURVE",
"144 182 CURVE SMOOTH",
"151 182 OFFCURVE",
"158 181 OFFCURVE",
"166 179 CURVE",
"186 170 OFFCURVE",
"209 166 OFFCURVE",
"236 166 CURVE SMOOTH",
"339 166 OFFCURVE",
"447 256 OFFCURVE",
"473 368 CURVE SMOOTH",
"493 454 OFFCURVE",
"465 529 OFFCURVE",
"395 557 CURVE",
"396 560 LINE",
"472 557 OFFCURVE",
"548 609 OFFCURVE",
"548 678 CURVE SMOOTH",
"548 711 OFFCURVE",
"523 741 OFFCURVE",
"490 741 CURVE SMOOTH",
"460 741 OFFCURVE",
"438 722 OFFCURVE",
"439 693 CURVE",
"448 703 OFFCURVE",
"458 706 OFFCURVE",
"467 706 CURVE SMOOTH",
"492 706 OFFCURVE",
"507 686 OFFCURVE",
"507 664 CURVE SMOOTH",
"507 595 OFFCURVE",
"435 553 OFFCURVE",
"369 565 CURVE",
"356 567 OFFCURVE",
"342 569 OFFCURVE",
"328 569 CURVE SMOOTH",
"225 569 OFFCURVE",
"117 479 OFFCURVE",
"91 368 CURVE SMOOTH",
"74 297 OFFCURVE",
"92 234 OFFCURVE",
"136 198 CURVE SMOOTH"
);
},
{
closed = 1;
nodes = (
"214 498 OFFCURVE",
"271 563 OFFCURVE",
"332 563 CURVE SMOOTH",
"395 563 OFFCURVE",
"419 496 OFFCURVE",
"386 368 CURVE SMOOTH",
"353 240 OFFCURVE",
"293 172 OFFCURVE",
"231 172 CURVE SMOOTH",
"169 172 OFFCURVE",
"141 238 OFFCURVE",
"178 368 CURVE SMOOTH"
);
},
{
closed = 1;
nodes = (
"476 586 LINE",
"508 605 OFFCURVE",
"527 636 OFFCURVE",
"527 673 CURVE SMOOTH",
"527 700 OFFCURVE",
"502 723 OFFCURVE",
"479 723 CURVE SMOOTH",
"471 723 OFFCURVE",
"462 720 OFFCURVE",
"453 713 CURVE",
"452 714 LINE",
"461 723 OFFCURVE",
"474 728 OFFCURVE",
"487 728 CURVE SMOOTH",
"510 728 OFFCURVE",
"533 704 OFFCURVE",
"533 677 CURVE SMOOTH",
"533 638 OFFCURVE",
"510 603 OFFCURVE",
"478 584 CURVE"
);
},
{
closed = 1;
nodes = (
"181 180 LINE",
"116 196 OFFCURVE",
"106 288 OFFCURVE",
"128 370 CURVE SMOOTH",
"156 475 OFFCURVE",
"219 538 OFFCURVE",
"290 561 CURVE",
"290 559 LINE",
"221 534 OFFCURVE",
"170 477 OFFCURVE",
"142 373 CURVE SMOOTH",
"121 295 OFFCURVE",
"124 198 OFFCURVE",
"184 180 CURVE"
);
},
{
closed = 1;
nodes = (
"383 556 LINE",
"449 518 OFFCURVE",
"458 436 OFFCURVE",
"441 373 CURVE SMOOTH",
"413 272 OFFCURVE",
"340 189 OFFCURVE",
"266 172 CURVE",
"266 174 LINE",
"340 191 OFFCURVE",
"399 268 OFFCURVE",
"425 369 CURVE SMOOTH",
"442 432 OFFCURVE",
"447 521 OFFCURVE",
"383 554 CURVE"
);
},
{
closed = 1;
nodes = (
"291 -355 LINE",
"349 -310 OFFCURVE",
"389 -253 OFFCURVE",
"389 -179 CURVE SMOOTH",
"389 -101 OFFCURVE",
"341 -61 OFFCURVE",
"282 -43 CURVE SMOOTH",
"184 -13 LINE SMOOTH",
"110 10 OFFCURVE",
"41 36 OFFCURVE",
"41 92 CURVE SMOOTH",
"41 111 OFFCURVE",
"48 133 OFFCURVE",
"65 150 CURVE",
"67 148 LINE",
"52 133 OFFCURVE",
"48 118 OFFCURVE",
"48 100 CURVE SMOOTH",
"48 44 OFFCURVE",
"115 21 OFFCURVE",
"189 -2 CURVE SMOOTH",
"286 -32 LINE SMOOTH",
"366 -57 OFFCURVE",
"397 -97 OFFCURVE",
"397 -172 CURVE SMOOTH",
"397 -248 OFFCURVE",
"357 -312 OFFCURVE",
"293 -357 CURVE"
);
},
{
closed = 1;
nodes = (
"-116 -301 OFFCURVE",
"-123 -278 OFFCURVE",
"-123 -259 CURVE SMOOTH",
"-123 -220 OFFCURVE",
"-95 -177 OFFCURVE",
"-52 -177 CURVE SMOOTH",
"-33 -177 OFFCURVE",
"-23 -183 OFFCURVE",
"-15 -192 CURVE SMOOTH",
"-14 -193 OFFCURVE",
"-16 -195 OFFCURVE",
"-17 -194 CURVE SMOOTH",
"-26 -186 OFFCURVE",
"-34 -185 OFFCURVE",
"-47 -185 CURVE SMOOTH",
"-82 -185 OFFCURVE",
"-117 -223 OFFCURVE",
"-117 -269 CURVE SMOOTH",
"-117 -285 OFFCURVE",
"-112 -304 OFFCURVE",
"-103 -321 CURVE",
"-102 -322 OFFCURVE",
"-104 -323 OFFCURVE",
"-105 -321 CURVE SMOOTH"
);
}
);
width = 458;
}
);
},
{
color = (255,153,254,255);
glyphname = g.1;
layers = (
{
hints = (
{
place = "{-77, 62}";
type = Stem;
},
{
horizontal = 1;
place = "{-388, 198}";
type = Stem;
},
{
horizontal = 1;
place = "{-245, 55}";
type = Stem;
},
{
horizontal = 1;
place = "{0, -20}";
target = down;
type = TopGhost;
},
{
horizontal = 1;
place = "{574, -20}";
target = down;
type = TopGhost;
}
);
layerId = "E49D03F4-B1E6-4C13-A892-FA4C930543A3";
paths = (
{
closed = 1;
nodes = (
"179 -388 OFFCURVE",
"312 -287 OFFCURVE",
"366 -143 CURVE SMOOTH",
"414 -14 OFFCURVE",
"419 116 OFFCURVE",
"460 295 CURVE SMOOTH",
"521 561 LINE",
"492 561 LINE",
"428 295 LINE SMOOTH",
"409 218 OFFCURVE",
"395 139 OFFCURVE",
"387 76 CURVE SMOOTH",
"377 0 OFFCURVE",
"361 -82 OFFCURVE",
"336 -150 CURVE SMOOTH",
"304 -236 OFFCURVE",
"256 -306 OFFCURVE",
"181 -349 CURVE",
"181 -347 LINE",
"254 -306 OFFCURVE",
"297 -230 OFFCURVE",
"329 -146 CURVE SMOOTH",
"355 -74 OFFCURVE",
"366 -4 OFFCURVE",
"378 78 CURVE",
"386 142 OFFCURVE",
"396 218 OFFCURVE",
"415 295 CURVE SMOOTH",
"480 561 LINE",
"450 561 LINE",
"434 496 LINE",
"419 551 OFFCURVE",
"377 574 OFFCURVE",
"323 574 CURVE SMOOTH",
"208 574 OFFCURVE",
"87 444 OFFCURVE",
"52 282 CURVE SMOOTH",
"17 120 OFFCURVE",
"68 -10 OFFCURVE",
"186 -10 CURVE SMOOTH",
"247 -10 OFFCURVE",
"311 50 OFFCURVE",
"357 163 CURVE",
"361 163 LINE",
"358 154 LINE",
"332 51 OFFCURVE",
"336 -15 OFFCURVE",
"303 -140 CURVE SMOOTH",
"264 -288 OFFCURVE",
"174 -379 OFFCURVE",
"65 -379 CURVE SMOOTH",
"19 -379 OFFCURVE",
"-15 -349 OFFCURVE",
"-15 -308 CURVE SMOOTH",
"-15 -274 OFFCURVE",
"13 -245 OFFCURVE",
"45 -245 CURVE SMOOTH",
"59 -245 OFFCURVE",
"67 -248 OFFCURVE",
"77 -258 CURVE",
"81 -221 OFFCURVE",
"51 -190 OFFCURVE",
"13 -190 CURVE SMOOTH",
"-34 -190 OFFCURVE",
"-77 -236 OFFCURVE",
"-77 -286 CURVE SMOOTH",
"-77 -347 OFFCURVE",
"-28 -388 OFFCURVE",
"43 -388 CURVE SMOOTH"
);
},
{
closed = 1;
nodes = (
"184 471 OFFCURVE",
"255 570 OFFCURVE",
"328 570 CURVE SMOOTH",
"370 570 OFFCURVE",
"406 550 OFFCURVE",
"421 498 CURVE SMOOTH",
"427 476 OFFCURVE",
"424 454 OFFCURVE",
"417 425 CURVE SMOOTH",
"367 215 LINE",
"323 73 OFFCURVE",
"257 0 OFFCURVE",
"193 0 CURVE SMOOTH",
"120 0 OFFCURVE",
"88 94 OFFCURVE",
"136 282 CURVE SMOOTH"
);
},
{
closed = 1;
nodes = (
"128 440 OFFCURVE",
"219 540 OFFCURVE",
"287 567 CURVE",
"287 565 LINE",
"220 538 OFFCURVE",
"142 442 OFFCURVE",
"103 286 CURVE SMOOTH",
"80 195 OFFCURVE",
"61 26 OFFCURVE",
"171 -2 CURVE",
"171 -3 LINE",
"60 24 OFFCURVE",
"64 193 OFFCURVE",
"88 286 CURVE SMOOTH"
);
},
{
closed = 1;
nodes = (
"32 -212 OFFCURVE",
"45 -216 OFFCURVE",
"55 -225 CURVE",
"54 -226 LINE",
"45 -219 OFFCURVE",
"35 -216 OFFCURVE",
"25 -216 CURVE SMOOTH",
"-13 -216 OFFCURVE",
"-44 -259 OFFCURVE",
"-44 -299 CURVE SMOOTH",
"-44 -342 OFFCURVE",
"-4 -381 OFFCURVE",
"47 -381 CURVE",
"47 -382 LINE",
"-11 -382 OFFCURVE",
"-54 -341 OFFCURVE",
"-54 -296 CURVE SMOOTH",
"-54 -253 OFFCURVE",
"-20 -212 OFFCURVE",
"19 -212 CURVE SMOOTH"
);
}
);
width = 500;
}
);
leftKerningGroup = oporizq;
},
{
color = (255,153,254,255);
glyphname = g.short;
layers = (
{
hints = (
{
place = "{-43, 62}";
type = Stem;
},
{
horizontal = 1;
place = "{-274, 198}";
type = Stem;
},
{
horizontal = 1;
place = "{-131, 55}";
type = Stem;
},
{
horizontal = 1;
place = "{0, -20}";
target = down;
type = TopGhost;
},
{
horizontal = 1;
place = "{574, -20}";
target = down;
type = TopGhost;
}
);
layerId = "E49D03F4-B1E6-4C13-A892-FA4C930543A3";
paths = (
{
closed = 1;
nodes = (
"244 -259 OFFCURVE",
"331 -169 OFFCURVE",
"376 -57 CURVE SMOOTH",
"410 27 OFFCURVE",
"432 171 OFFCURVE",
"460 295 CURVE SMOOTH",
"521 561 LINE",
"493 561 LINE",
"428 295 LINE SMOOTH",
"389 133 OFFCURVE",
"399 65 OFFCURVE",
"350 -58 CURVE SMOOTH",
"317 -140 OFFCURVE",
"268 -202 OFFCURVE",
"193 -245 CURVE",
"193 -243 LINE",
"266 -202 OFFCURVE",
"308 -137 OFFCURVE",
"341 -58 CURVE SMOOTH",
"385 48 OFFCURVE",
"373 125 OFFCURVE",
"415 295 CURVE SMOOTH",
"481 561 LINE",
"450 561 LINE",
"434 496 LINE",
"419 551 OFFCURVE",
"377 574 OFFCURVE",
"323 574 CURVE SMOOTH",
"208 574 OFFCURVE",
"87 444 OFFCURVE",
"52 282 CURVE SMOOTH",
"17 120 OFFCURVE",
"68 -10 OFFCURVE",
"186 -10 CURVE SMOOTH",
"247 -10 OFFCURVE",
"311 50 OFFCURVE",
"357 163 CURVE",
"361 163 LINE",
"351 112 OFFCURVE",
"334 16 OFFCURVE",
"313 -54 CURVE SMOOTH",
"268 -204 OFFCURVE",
"205 -252 OFFCURVE",
"134 -252 CURVE SMOOTH",
"92 -252 OFFCURVE",
"60 -223 OFFCURVE",
"60 -183 CURVE SMOOTH",
"60 -151 OFFCURVE",
"87 -124 OFFCURVE",
"117 -124 CURVE SMOOTH",
"131 -124 OFFCURVE",
"137 -127 OFFCURVE",
"147 -136 CURVE",
"151 -101 OFFCURVE",
"125 -72 OFFCURVE",
"89 -72 CURVE SMOOTH",
"41 -72 OFFCURVE",
"2 -113 OFFCURVE",
"2 -163 CURVE SMOOTH",
"2 -231 OFFCURVE",
"63 -259 OFFCURVE",
"123 -259 CURVE SMOOTH"
);
},
{
closed = 1;
nodes = (
"184 471 OFFCURVE",
"255 570 OFFCURVE",
"328 570 CURVE SMOOTH",
"370 570 OFFCURVE",
"406 550 OFFCURVE",
"421 498 CURVE SMOOTH",
"427 476 OFFCURVE",
"424 454 OFFCURVE",
"417 425 CURVE SMOOTH",
"367 215 LINE",
"323 73 OFFCURVE",
"257 0 OFFCURVE",
"193 0 CURVE SMOOTH",
"120 0 OFFCURVE",
"88 94 OFFCURVE",
"136 282 CURVE SMOOTH"
);
},
{
closed = 1;
nodes = (
"128 440 OFFCURVE",
"219 540 OFFCURVE",
"287 567 CURVE",
"287 565 LINE",
"220 538 OFFCURVE",
"143 442 OFFCURVE",
"103 286 CURVE SMOOTH",
"81 195 OFFCURVE",
"61 26 OFFCURVE",
"171 -2 CURVE",
"171 -3 LINE",
"60 24 OFFCURVE",
"64 193 OFFCURVE",
"88 286 CURVE SMOOTH"
);
},
{
closed = 1;
nodes = (
"26 -129 OFFCURVE",
"58 -94 OFFCURVE",
"95 -94 CURVE SMOOTH",
"108 -94 OFFCURVE",
"121 -99 OFFCURVE",
"130 -107 CURVE",
"129 -108 LINE",
"121 -101 OFFCURVE",
"111 -98 OFFCURVE",
"100 -98 CURVE SMOOTH",
"66 -98 OFFCURVE",
"36 -132 OFFCURVE",
"36 -171 CURVE SMOOTH",
"36 -214 OFFCURVE",
"76 -254 OFFCURVE",
"121 -254 CURVE",
"121 -255 LINE",
"70 -255 OFFCURVE",
"26 -214 OFFCURVE",
"26 -168 CURVE SMOOTH"
);
}
);
width = 500;
}
);
leftKerningGroup = oporizq;
},
{
color = (255,153,254,255);
glyphname = g.3;
layers = (
{
associatedMasterId = "E49D03F4-B1E6-4C13-A892-FA4C930543A3";
layerId = "3A45E4B8-543F-4BDE-9F07-77ABAA78DA7A";
name = public.background;
paths = (
{
closed = 1;
nodes = (
"301 -85 LINE SMOOTH",
"284 -123 OFFCURVE",
"264 -155 OFFCURVE",
"241 -180 CURVE",
"148 -139 OFFCURVE",
"55 -100 OFFCURVE",
"-24 -100 CURVE SMOOTH",
"-187 -100 OFFCURVE",
"-271 -153 OFFCURVE",
"-271 -191 CURVE SMOOTH",
"-271 -248 OFFCURVE",
"-173 -293 OFFCURVE",
"-38 -293 CURVE SMOOTH",
"44 -293 OFFCURVE",
"159 -283 OFFCURVE",
"251 -223 CURVE",
"332 -259 OFFCURVE",
"412 -290 OFFCURVE",
"487 -290 CURVE SMOOTH",
"642 -290 OFFCURVE",
"759 -237 OFFCURVE",
"759 -140 CURVE SMOOTH",
"759 -102 OFFCURVE",
"727 -73 OFFCURVE",
"691 -73 CURVE SMOOTH",
"652 -73 OFFCURVE",
"634 -105 OFFCURVE",
"634 -131 CURVE SMOOTH",
"634 -135 OFFCURVE",
"634 -140 OFFCURVE",
"635 -146 CURVE",
"642 -128 OFFCURVE",
"657 -118 OFFCURVE",
"674 -118 CURVE SMOOTH",
"703 -118 OFFCURVE",
"724 -138 OFFCURVE",
"724 -172 CURVE SMOOTH",
"724 -228 OFFCURVE",
"660 -278 OFFCURVE",
"538 -278 CURVE SMOOTH",
"463 -278 OFFCURVE",
"374 -240 OFFCURVE",
"283 -199 CURVE",
"316 -172 OFFCURVE",
"345 -136 OFFCURVE",
"367 -90 CURVE SMOOTH"
);
},
{
closed = 1;
nodes = (
"-214 -163 OFFCURVE",
"-188 -114 OFFCURVE",
"-92 -114 CURVE SMOOTH",
"10 -114 OFFCURVE",
"113 -161 OFFCURVE",
"214 -206 CURVE",
"142 -267 OFFCURVE",
"47 -285 OFFCURVE",
"-62 -285 CURVE SMOOTH",
"-119 -285 OFFCURVE",
"-214 -269 OFFCURVE",
"-214 -192 CURVE SMOOTH"
);
}
);
width = 500;
},
{
hints = (
{
place = "{-271, 57}";
type = Stem;
},
{
place = "{634, 125}";
type = Stem;
},
{
place = "{724, 35}";
type = Stem;
},
{
horizontal = 1;
place = "{-290, 190}";
type = Stem;
},
{
horizontal = 1;
place = "{-293, 21}";
type = Stem;
},
{
horizontal = 1;
place = "{-114, 41}";
type = Stem;
},
{
horizontal = 1;
place = "{-114, 114}";
type = Stem;
},
{
horizontal = 1;
place = "{574, -20}";
target = down;
type = TopGhost;
}
);
layerId = "E49D03F4-B1E6-4C13-A892-FA4C930543A3";
paths = (
{
closed = 1;
nodes = (
"-158 -247 OFFCURVE",
"-87 -284 OFFCURVE",
"8 -284 CURVE SMOOTH",
"116 -284 OFFCURVE",
"198 -257 OFFCURVE",
"259 -209 CURVE",
"338 -257 OFFCURVE",
"419 -303 OFFCURVE",
"519 -303 CURVE SMOOTH",
"648 -303 OFFCURVE",
"738 -240 OFFCURVE",
"738 -149 CURVE SMOOTH",
"738 -105 OFFCURVE",
"709 -74 OFFCURVE",
"668 -74 CURVE SMOOTH",
"634 -74 OFFCURVE",
"608 -97 OFFCURVE",
"608 -128 CURVE SMOOTH",
"608 -133 OFFCURVE",
"608 -137 OFFCURVE",
"609 -143 CURVE",
"616 -127 OFFCURVE",
"631 -117 OFFCURVE",
"650 -117 CURVE SMOOTH",
"682 -117 OFFCURVE",
"704 -140 OFFCURVE",
"704 -174 CURVE SMOOTH",
"704 -236 OFFCURVE",
"655 -280 OFFCURVE",
"586 -280 CURVE SMOOTH",
"498 -280 OFFCURVE",
"395 -229 OFFCURVE",
"290 -182 CURVE",
"317 -155 OFFCURVE",
"339 -124 OFFCURVE",
"357 -88 CURVE SMOOTH",
"404 4 OFFCURVE",
"419 111 OFFCURVE",
"441 209 CURVE SMOOTH",
"521 561 LINE",
"493 561 LINE",
"411 218 LINE SMOOTH",
"374 68 OFFCURVE",
"367 -84 OFFCURVE",
"248 -196 CURVE SMOOTH",
"207 -235 OFFCURVE",
"150 -263 OFFCURVE",
"91 -276 CURVE",
"80 -277 LINE",
"139 -265 OFFCURVE",
"200 -237 OFFCURVE",
"242 -196 CURVE SMOOTH",
"359 -83 OFFCURVE",
"367 85 OFFCURVE",
"399 218 CURVE SMOOTH",
"481 561 LINE",
"450 561 LINE",
"434 496 LINE",
"419 551 OFFCURVE",
"377 574 OFFCURVE",
"323 574 CURVE SMOOTH",
"208 574 OFFCURVE",
"88 444 OFFCURVE",
"52 282 CURVE SMOOTH",
"18 120 OFFCURVE",
"68 -10 OFFCURVE",
"186 -10 CURVE SMOOTH",
"247 -10 OFFCURVE",
"311 50 OFFCURVE",
"357 163 CURVE",
"361 163 LINE",
"348 83 OFFCURVE",
"319 -62 OFFCURVE",
"244 -163 CURVE",
"169 -132 OFFCURVE",
"92 -106 OFFCURVE",
"19 -106 CURVE SMOOTH",
"-83 -106 OFFCURVE",
"-158 -145 OFFCURVE",
"-158 -197 CURVE SMOOTH"
);
},
{
closed = 1;
nodes = (
"184 471 OFFCURVE",
"255 570 OFFCURVE",
"328 570 CURVE SMOOTH",
"370 570 OFFCURVE",
"406 550 OFFCURVE",
"421 498 CURVE SMOOTH",
"427 476 OFFCURVE",
"424 454 OFFCURVE",
"417 425 CURVE",
"411 398 LINE",
"367 215 LINE",
"323 73 OFFCURVE",
"257 0 OFFCURVE",
"193 0 CURVE SMOOTH",
"120 0 OFFCURVE",
"88 94 OFFCURVE",
"136 282 CURVE SMOOTH"
);
},
{
closed = 1;
nodes = (
"-112 -142 OFFCURVE",
"-65 -113 OFFCURVE",
"14 -113 CURVE SMOOTH",
"90 -113 OFFCURVE",
"157 -148 OFFCURVE",
"224 -188 CURVE",
"178 -240 OFFCURVE",
"116 -275 OFFCURVE",
"34 -275 CURVE SMOOTH",
"-56 -275 OFFCURVE",
"-112 -242 OFFCURVE",
"-112 -190 CURVE SMOOTH"
);
},
{
closed = 1;
nodes = (
"128 440 OFFCURVE",
"219 540 OFFCURVE",
"287 567 CURVE",
"287 565 LINE",
"220 538 OFFCURVE",
"143 442 OFFCURVE",
"103 286 CURVE SMOOTH",
"81 195 OFFCURVE",
"61 26 OFFCURVE",
"171 -2 CURVE",
"171 -3 LINE",
"60 24 OFFCURVE",
"64 193 OFFCURVE",
"88 286 CURVE SMOOTH"
);
},
{
closed = 1;
nodes = (
"277 -196 LINE",
"358 -234 OFFCURVE",
"466 -297 OFFCURVE",
"576 -289 CURVE",
"576 -291 LINE",
"467 -299 OFFCURVE",
"351 -240 OFFCURVE",
"271 -200 CURVE"
);
},
{
closed = 1;
nodes = (
"621 -114 LINE",
"629 -100 OFFCURVE",
"643 -90 OFFCURVE",
"659 -90 CURVE SMOOTH",
"694 -90 OFFCURVE",
"724 -110 OFFCURVE",
"724 -158 CURVE SMOOTH",
"724 -187 OFFCURVE",
"714 -215 OFFCURVE",
"689 -242 CURVE",
"688 -241 LINE",
"712 -214 OFFCURVE",
"719 -193 OFFCURVE",
"719 -165 CURVE SMOOTH",
"719 -123 OFFCURVE",
"690 -97 OFFCURVE",
"655 -97 CURVE SMOOTH",
"643 -97 OFFCURVE",
"630 -102 OFFCURVE",
"623 -114 CURVE"
);
},
{
closed = 1;
nodes = (
"-140 -161 OFFCURVE",
"-106 -131 OFFCURVE",
"-52 -116 CURVE",
"-54 -118 LINE",
"-101 -132 OFFCURVE",
"-130 -160 OFFCURVE",
"-130 -192 CURVE SMOOTH",
"-130 -226 OFFCURVE",
"-100 -256 OFFCURVE",
"-52 -270 CURVE",
"-48 -272 LINE",
"-105 -258 OFFCURVE",
"-140 -229 OFFCURVE",
"-140 -194 CURVE SMOOTH"
);
},
{
closed = 1;
nodes = (
"65 -112 LINE",
"138 -125 OFFCURVE",
"195 -151 OFFCURVE",
"233 -172 CURVE",
"230 -176 LINE",
"195 -157 OFFCURVE",
"130 -125 OFFCURVE",
"65 -114 CURVE"
);
}
);
width = 500;
}
);
leftKerningGroup = oporizq;
},
{
color = (255,153,254,255);
glyphname = g.9;
layers = (
{
associatedMasterId = "E49D03F4-B1E6-4C13-A892-FA4C930543A3";
layerId = "3A45E4B8-543F-4BDE-9F07-77ABAA78DA7A";
name = public.background;
width = 1002;
},
{
hints = (
{
place = "{-237, 77}";
type = Stem;
},
{
place = "{42, 56}";
type = Stem;
},
{
place = "{393, 71}";
type = Stem;
},
{
place = "{439, 25}";
type = Stem;
},
{
place = "{513, 62}";
type = Stem;
},
{
place = "{886, 60}";
type = Stem;
},
{
horizontal = 1;
place = "{-476, 21}";
type = Stem;
},
{
horizontal = 1;
place = "{-33, 205}";
type = Stem;
},
{
horizontal = 1;
place = "{-33, 222}";
type = Stem;
},
{
horizontal = 1;
place = "{146, 200}";
type = Stem;
},
{
horizontal = 1;
place = "{166, 180}";
type = Stem;
},
{
horizontal = 1;
place = "{291, 55}";
type = Stem;
},
{
horizontal = 1;
place = "{563, 119}";
type = Stem;
}
);
layerId = "E49D03F4-B1E6-4C13-A892-FA4C930543A3";
paths = (
{
closed = 1;
nodes = (
"479 412 LINE",
"479 474 OFFCURVE",
"456 491 OFFCURVE",
"456 534 CURVE SMOOTH",
"456 582 OFFCURVE",
"520 673 OFFCURVE",
"652 673 CURVE SMOOTH",
"810 673 OFFCURVE",
"872 571 OFFCURVE",
"872 422 CURVE SMOOTH",
"872 306 OFFCURVE",
"787 155 OFFCURVE",
"655 155 CURVE SMOOTH",
"604 155 OFFCURVE",
"565 189 OFFCURVE",
"565 232 CURVE SMOOTH",
"565 264 OFFCURVE",
"590 291 OFFCURVE",
"621 291 CURVE SMOOTH",
"635 291 OFFCURVE",
"645 287 OFFCURVE",
"654 278 CURVE",
"655 322 OFFCURVE",
"633 346 OFFCURVE",
"590 346 CURVE SMOOTH",
"542 346 OFFCURVE",
"501 305 OFFCURVE",
"501 255 CURVE SMOOTH",
"501 192 OFFCURVE",
"557 146 OFFCURVE",
"634 146 CURVE SMOOTH",
"793 146 OFFCURVE",
"932 275 OFFCURVE",
"932 438 CURVE SMOOTH",
"932 569 OFFCURVE",
"824 682 OFFCURVE",
"664 682 CURVE SMOOTH",
"550 682 OFFCURVE",
"430 594 OFFCURVE",
"426 530 CURVE",
"451 459 LINE"
);
},
{
closed = 1;
nodes = (
"225 569 OFFCURVE",
"117 479 OFFCURVE",
"91 368 CURVE SMOOTH",
"72 290 OFFCURVE",
"96 221 OFFCURVE",
"149 188 CURVE",
"87 188 OFFCURVE",
"30 141 OFFCURVE",
"30 84 CURVE SMOOTH",
"30 23 OFFCURVE",
"67 -9 OFFCURVE",
"121 -29 CURVE",
"112 -29 LINE SMOOTH",
"-32 -29 OFFCURVE",
"-197 -123 OFFCURVE",
"-197 -275 CURVE SMOOTH",
"-197 -400 OFFCURVE",
"-78 -460 OFFCURVE",
"50 -460 CURVE SMOOTH",
"211 -460 OFFCURVE",
"452 -354 OFFCURVE",
"452 -176 CURVE SMOOTH",
"452 -70 OFFCURVE",
"388 -26 OFFCURVE",
"299 0 CURVE SMOOTH",
"204 28 LINE SMOOTH",
"143 46 OFFCURVE",
"86 73 OFFCURVE",
"86 120 CURVE SMOOTH",
"86 158 OFFCURVE",
"111 182 OFFCURVE",
"144 182 CURVE SMOOTH",
"151 182 OFFCURVE",
"158 181 OFFCURVE",
"166 179 CURVE",
"186 170 OFFCURVE",
"209 166 OFFCURVE",
"236 166 CURVE SMOOTH",
"339 166 OFFCURVE",
"447 256 OFFCURVE",
"473 368 CURVE SMOOTH",
"476 382 OFFCURVE",
"478 398 OFFCURVE",
"479 412 CURVE",
"426 530 LINE",
"400 550 OFFCURVE",
"373 569 OFFCURVE",
"328 569 CURVE SMOOTH"
);
},
{
closed = 1;
nodes = (
"303 -81 OFFCURVE",
"381 -111 OFFCURVE",
"381 -211 CURVE SMOOTH",
"381 -354 OFFCURVE",
"240 -446 OFFCURVE",
"93 -446 CURVE SMOOTH",
"-10 -446 OFFCURVE",
"-131 -396 OFFCURVE",
"-131 -261 CURVE SMOOTH",
"-131 -113 OFFCURVE",
"8 -33 OFFCURVE",
"126 -33 CURVE SMOOTH",
"132 -33 LINE",
"160 -42 OFFCURVE",
"191 -50 OFFCURVE",
"221 -58 CURVE SMOOTH"
);
},
{
closed = 1;
nodes = (
"214 498 OFFCURVE",
"271 563 OFFCURVE",
"332 563 CURVE SMOOTH",
"395 563 OFFCURVE",
"419 496 OFFCURVE",
"386 368 CURVE SMOOTH",
"353 240 OFFCURVE",
"293 172 OFFCURVE",
"231 172 CURVE SMOOTH",
"169 172 OFFCURVE",
"141 238 OFFCURVE",
"178 368 CURVE SMOOTH"
);
},
{
closed = 1;
nodes = (
"181 180 LINE",
"116 196 OFFCURVE",
"106 288 OFFCURVE",
"128 370 CURVE SMOOTH",
"156 475 OFFCURVE",
"219 538 OFFCURVE",
"290 561 CURVE",
"290 559 LINE",
"221 534 OFFCURVE",
"170 477 OFFCURVE",
"142 373 CURVE SMOOTH",
"121 295 OFFCURVE",
"124 198 OFFCURVE",
"184 180 CURVE"
);
},
{
closed = 1;
nodes = (
"383 556 LINE",
"449 518 OFFCURVE",
"458 436 OFFCURVE",
"441 373 CURVE SMOOTH",
"413 272 OFFCURVE",
"340 189 OFFCURVE",
"266 172 CURVE",
"266 174 LINE",
"340 191 OFFCURVE",
"399 268 OFFCURVE",
"425 369 CURVE SMOOTH",
"442 432 OFFCURVE",
"447 521 OFFCURVE",
"383 554 CURVE"
);
},
{
closed = 1;
nodes = (
"315 -373 LINE",
"373 -328 OFFCURVE",
"413 -271 OFFCURVE",
"413 -197 CURVE SMOOTH",
"413 -108 OFFCURVE",
"354 -65 OFFCURVE",
"282 -43 CURVE SMOOTH",
"184 -13 LINE SMOOTH",
"115 8 OFFCURVE",
"52 38 OFFCURVE",
"52 95 CURVE SMOOTH",
"52 114 OFFCURVE",
"59 136 OFFCURVE",
"76 153 CURVE",
"78 151 LINE",
"63 136 OFFCURVE",
"59 121 OFFCURVE",
"59 103 CURVE SMOOTH",
"59 46 OFFCURVE",
"120 19 OFFCURVE",
"189 -2 CURVE SMOOTH",
"286 -32 LINE SMOOTH",
"382 -62 OFFCURVE",
"421 -105 OFFCURVE",
"421 -190 CURVE SMOOTH",
"421 -266 OFFCURVE",
"381 -330 OFFCURVE",
"317 -375 CURVE"
);
},
{
closed = 1;
nodes = (
"37 -42 LINE",
"-66 -71 OFFCURVE",
"-160 -150 OFFCURVE",
"-160 -268 CURVE SMOOTH",
"-160 -389 OFFCURVE",
"-57 -453 OFFCURVE",
"58 -453 CURVE",
"58 -455 LINE",
"-64 -455 OFFCURVE",
"-172 -392 OFFCURVE",
"-172 -270 CURVE SMOOTH",
"-172 -149 OFFCURVE",
"-73 -69 OFFCURVE",
"37 -40 CURVE"
);
},
{
closed = 1;
nodes = (
"718 671 LINE",
"846 644 OFFCURVE",
"908 555 OFFCURVE",
"908 432 CURVE SMOOTH",
"908 336 OFFCURVE",
"843 216 OFFCURVE",
"747 175 CURVE",
"747 177 LINE",
"837 218 OFFCURVE",
"898 335 OFFCURVE",
"898 428 CURVE SMOOTH",
"898 551 OFFCURVE",
"840 643 OFFCURVE",
"718 670 CURVE"
);
},
{
closed = 1;
nodes = (
"597 161 LINE",
"546 176 OFFCURVE",
"523 208 OFFCURVE",
"523 248 CURVE SMOOTH",
"523 289 OFFCURVE",
"556 326 OFFCURVE",
"596 326 CURVE SMOOTH",
"611 326 OFFCURVE",
"622 322 OFFCURVE",
"635 313 CURVE",
"633 311 LINE",
"624 317 OFFCURVE",
"613 320 OFFCURVE",
"604 320 CURVE SMOOTH",
"566 320 OFFCURVE",
"535 287 OFFCURVE",
"535 245 CURVE SMOOTH",
"535 204 OFFCURVE",
"557 176 OFFCURVE",
"597 163 CURVE"
);
},
{
closed = 1;
nodes = (
"438 521 LINE",
"430 562 OFFCURVE",
"478 608 OFFCURVE",
"495 619 CURVE",
"495 618 LINE",
"478 607 OFFCURVE",
"435 556 OFFCURVE",
"444 514 CURVE"
);
}
);
width = 1002;
}
);
},
{
color = (153,255,154,255);
glyphname = h;
layers = (
{
hints = (
{
horizontal = 1;
place = "{-8, 21}";
type = Stem;
},
{
horizontal = 1;
place = "{920, -20}";
target = down;
type = TopGhost;
}
);
layerId = "E49D03F4-B1E6-4C13-A892-FA4C930543A3";
paths = (
{
closed = 1;
nodes = (
"177 0 LINE",
"178 3 LINE",
"163 5 LINE SMOOTH",
"129 10 OFFCURVE",
"113 14 OFFCURVE",
"120 44 CURVE SMOOTH",
"193 356 LINE",
"218 431 OFFCURVE",
"270 563 OFFCURVE",
"370 563 CURVE SMOOTH",
"436 563 OFFCURVE",
"457 496 OFFCURVE",
"427 381 CURVE SMOOTH",
"380 200 LINE SMOOTH",
"370 160 OFFCURVE",
"357 115 OFFCURVE",
"357 77 CURVE SMOOTH",
"357 29 OFFCURVE",
"377 -8 OFFCURVE",
"445 -8 CURVE SMOOTH",
"472 -8 OFFCURVE",
"497 3 OFFCURVE",
"508 20 CURVE",
"506 25 LINE",
"497 11 OFFCURVE",
"484 3 OFFCURVE",
"467 3 CURVE SMOOTH",
"439 3 OFFCURVE",
"427 20 OFFCURVE",
"427 54 CURVE SMOOTH",
"427 86 OFFCURVE",
"438 133 OFFCURVE",
"454 195 CURVE SMOOTH",
"507 400 LINE SMOOTH",
"534 506 OFFCURVE",
"491 578 OFFCURVE",
"400 578 CURVE SMOOTH",
"290 578 OFFCURVE",
"235 483 OFFCURVE",
"202 395 CURVE",
"197 395 LINE",
"324 910 LINE",
"292 905 LINE",
"80 0 LINE"
);
},
{
closed = 1;
nodes = (
"-11 0 LINE",
"67 0 LINE",
"279 904 LINE",
"169 888 LINE",
"169 884 LINE",
"203 884 LINE SMOOTH",
"237 884 OFFCURVE",
"245 878 OFFCURVE",
"235 836 CURVE SMOOTH",
"47 44 LINE SMOOTH",
"40 13 OFFCURVE",
"31 12 OFFCURVE",
"-11 3 CURVE"
);
},
{
closed = 1;
nodes = (
"389 99 OFFCURVE",
"395 139 OFFCURVE",
"407 184 CURVE SMOOTH",
"460 389 LINE SMOOTH",
"492 514 OFFCURVE",
"446 569 OFFCURVE",
"390 569 CURVE",
"391 570 LINE",
"451 567 OFFCURVE",
"506 518 OFFCURVE",
"472 387 CURVE SMOOTH",
"419 184 LINE SMOOTH",
"407 138 OFFCURVE",
"399 95 OFFCURVE",
"399 68 CURVE SMOOTH",
"399 17 OFFCURVE",
"421 5 OFFCURVE",
"436 2 CURVE",
"436 1 LINE",
"412 5 OFFCURVE",
"389 12 OFFCURVE",
"389 72 CURVE SMOOTH"
);
}
);
width = 518;
}
);
leftKerningGroup = hporizq;
rightMetricsKey = n;
unicode = 0068;
},
{
color = (255,204,153,255);
glyphname = h.ss08;
layers = (
{
hints = (
{
horizontal = 1;
place = "{-8, 21}";
type = Stem;
},
{
horizontal = 1;
place = "{920, -20}";
target = down;
type = TopGhost;
}
);
layerId = "E49D03F4-B1E6-4C13-A892-FA4C930543A3";
paths = (
{
closed = 1;
nodes = (
"-90 653 OFFCURVE",
"-59 681 OFFCURVE",
"-59 717 CURVE SMOOTH",
"-59 723 OFFCURVE",
"-59 727 OFFCURVE",
"-60 734 CURVE",
"-68 715 OFFCURVE",
"-87 704 OFFCURVE",
"-108 704 CURVE SMOOTH",
"-146 704 OFFCURVE",
"-172 731 OFFCURVE",
"-172 771 CURVE SMOOTH",
"-172 844 OFFCURVE",
"-98 905 OFFCURVE",
"-9 905 CURVE SMOOTH",
"77 905 OFFCURVE",
"173 847 OFFCURVE",
"273 795 CURVE",
"248 768 OFFCURVE",
"226 737 OFFCURVE",
"209 702 CURVE SMOOTH",
"162 603 OFFCURVE",
"147 494 OFFCURVE",
"123 366 CURVE",
"47 44 LINE SMOOTH",
"40 13 OFFCURVE",
"31 12 OFFCURVE",
"-11 3 CURVE",
"-11 0 LINE",
"67 0 LINE",
"153 370 LINE SMOOTH",
"189 524 OFFCURVE",
"193 680 OFFCURVE",
"297 792 CURVE SMOOTH",
"341 838 OFFCURVE",
"397 879 OFFCURVE",
"457 892 CURVE",
"468 893 LINE",
"408 881 OFFCURVE",
"349 841 OFFCURVE",
"303 792 CURVE SMOOTH",
"195 675 OFFCURVE",
"198 507 OFFCURVE",
"166 370 CURVE SMOOTH",
"80 0 LINE",
"177 0 LINE",
"178 3 LINE",
"163 5 LINE SMOOTH",
"129 10 OFFCURVE",
"113 14 OFFCURVE",
"120 44 CURVE SMOOTH",
"193 356 LINE",
"218 431 OFFCURVE",
"270 563 OFFCURVE",
"370 563 CURVE SMOOTH",
"459 563 OFFCURVE",
"446 455 OFFCURVE",
"427 381 CURVE SMOOTH",
"380 200 LINE SMOOTH",
"370 160 OFFCURVE",
"357 115 OFFCURVE",
"357 77 CURVE SMOOTH",
"357 29 OFFCURVE",
"377 -8 OFFCURVE",
"445 -8 CURVE SMOOTH",
"472 -8 OFFCURVE",
"497 3 OFFCURVE",
"508 20 CURVE",
"506 25 LINE",
"497 11 OFFCURVE",
"484 3 OFFCURVE",
"467 3 CURVE SMOOTH",
"439 3 OFFCURVE",
"427 20 OFFCURVE",
"427 54 CURVE SMOOTH",
"427 86 OFFCURVE",
"438 133 OFFCURVE",
"454 195 CURVE SMOOTH",
"507 400 LINE SMOOTH",
"529 484 OFFCURVE",
"510 578 OFFCURVE",
"400 578 CURVE SMOOTH",
"290 578 OFFCURVE",
"235 483 OFFCURVE",
"202 395 CURVE",
"197 395 LINE",
"220 493 OFFCURVE",
"225 578 OFFCURVE",
"275 697 CURVE SMOOTH",
"286 724 OFFCURVE",
"300 750 OFFCURVE",
"317 773 CURVE",
"387 739 OFFCURVE",
"459 710 OFFCURVE",
"533 710 CURVE SMOOTH",
"638 710 OFFCURVE",
"730 761 OFFCURVE",
"730 820 CURVE SMOOTH",
"730 872 OFFCURVE",
"660 909 OFFCURVE",
"561 909 CURVE SMOOTH",
"465 909 OFFCURVE",
"371 879 OFFCURVE",
"300 819 CURVE",
"224 871 OFFCURVE",
"149 923 OFFCURVE",
"51 923 CURVE SMOOTH",
"-95 923 OFFCURVE",
"-212 842 OFFCURVE",
"-212 742 CURVE SMOOTH",
"-212 690 OFFCURVE",
"-178 653 OFFCURVE",
"-130 653 CURVE SMOOTH"
);
},
{
closed = 1;
nodes = (
"628 903 OFFCURVE",
"676 868 OFFCURVE",
"676 818 CURVE SMOOTH",
"676 762 OFFCURVE",
"620 715 OFFCURVE",
"552 715 CURVE SMOOTH",
"467 715 OFFCURVE",
"399 753 OFFCURVE",
"334 796 CURVE",
"389 861 OFFCURVE",
"465 903 OFFCURVE",
"558 903 CURVE SMOOTH"
);
},
{
closed = 1;
nodes = (
"461 389 LINE SMOOTH",
"493 514 OFFCURVE",
"446 569 OFFCURVE",
"390 569 CURVE",
"391 570 LINE",
"451 567 OFFCURVE",
"506 518 OFFCURVE",
"472 387 CURVE SMOOTH",
"419 184 LINE SMOOTH",
"407 138 OFFCURVE",
"399 95 OFFCURVE",
"399 68 CURVE SMOOTH",
"399 17 OFFCURVE",
"421 5 OFFCURVE",
"436 2 CURVE",
"436 1 LINE",
"412 5 OFFCURVE",
"389 12 OFFCURVE",
"389 72 CURVE SMOOTH",
"389 99 OFFCURVE",
"396 139 OFFCURVE",
"408 184 CURVE SMOOTH"
);
},
{
closed = 1;
nodes = (
"-194 783 OFFCURVE",
"-184 812 OFFCURVE",
"-156 842 CURVE",
"-155 841 LINE",
"-180 812 OFFCURVE",
"-188 790 OFFCURVE",
"-188 760 CURVE SMOOTH",
"-188 713 OFFCURVE",
"-156 683 OFFCURVE",
"-119 683 CURVE SMOOTH",
"-104 683 OFFCURVE",
"-89 688 OFFCURVE",
"-81 700 CURVE",
"-79 700 LINE",
"-87 686 OFFCURVE",
"-105 677 OFFCURVE",
"-125 677 CURVE SMOOTH",
"-161 677 OFFCURVE",
"-194 698 OFFCURVE",
"-194 751 CURVE SMOOTH"
);
},
{
closed = 1;
nodes = (
"708 789 OFFCURVE",
"680 748 OFFCURVE",
"615 725 CURVE",
"617 727 LINE",
"676 749 OFFCURVE",
"698 789 OFFCURVE",
"698 818 CURVE SMOOTH",
"698 863 OFFCURVE",
"660 887 OFFCURVE",
"617 899 CURVE",
"613 901 LINE",
"664 889 OFFCURVE",
"708 865 OFFCURVE",
"708 818 CURVE SMOOTH"
);
},
{
closed = 1;
nodes = (
"37 914 LINE",
"113 914 OFFCURVE",
"203 864 OFFCURVE",
"287 809 CURVE",
"283 806 LINE",
"199 859 OFFCURVE",
"113 912 OFFCURVE",
"37 912 CURVE"
);
},
{
closed = 1;
nodes = (
"328 784 LINE",
"363 765 OFFCURVE",
"400 744 OFFCURVE",
"437 733 CURVE",
"437 731 LINE",
"412 737 OFFCURVE",
"374 754 OFFCURVE",
"325 781 CURVE"
);
}
);
width = 517;
}
);
leftKerningGroup = hporizq;
},
{
color = (255,153,254,255);
glyphname = h.1;
layers = (
{
hints = (
{
place = "{524, 58}";
type = Stem;
},
{
horizontal = 1;
place = "{-8, 21}";
type = Stem;
},
{
horizontal = 1;
place = "{765, 51}";
type = Stem;
},
{
horizontal = 1;
place = "{765, 168}";
type = Stem;
}
);
layerId = "E49D03F4-B1E6-4C13-A892-FA4C930543A3";
paths = (
{
closed = 1;
nodes = (
"68 0 LINE",
"152 370 LINE SMOOTH",
"177 481 OFFCURVE",
"185 583 OFFCURVE",
"220 703 CURVE SMOOTH",
"246 793 OFFCURVE",
"310 874 OFFCURVE",
"368 908 CURVE",
"373 909 LINE",
"320 882 OFFCURVE",
"253 801 OFFCURVE",
"227 702 CURVE SMOOTH",
"196 583 OFFCURVE",
"189 478 OFFCURVE",
"164 370 CURVE SMOOTH",
"79 0 LINE",
"177 0 LINE",
"178 3 LINE",
"163 5 LINE SMOOTH",
"129 10 OFFCURVE",
"113 14 OFFCURVE",
"120 44 CURVE SMOOTH",
"193 356 LINE",
"218 431 OFFCURVE",
"270 563 OFFCURVE",
"370 563 CURVE SMOOTH",
"459 563 OFFCURVE",
"446 455 OFFCURVE",
"427 381 CURVE SMOOTH",
"380 200 LINE SMOOTH",
"370 160 OFFCURVE",
"357 115 OFFCURVE",
"357 77 CURVE SMOOTH",
"357 29 OFFCURVE",
"377 -8 OFFCURVE",
"445 -8 CURVE SMOOTH",
"472 -8 OFFCURVE",
"497 3 OFFCURVE",
"508 20 CURVE",
"506 25 LINE",
"497 11 OFFCURVE",
"484 3 OFFCURVE",
"467 3 CURVE SMOOTH",
"439 3 OFFCURVE",
"427 20 OFFCURVE",
"427 54 CURVE SMOOTH",
"427 86 OFFCURVE",
"438 133 OFFCURVE",
"454 195 CURVE SMOOTH",
"507 400 LINE SMOOTH",
"529 484 OFFCURVE",
"510 578 OFFCURVE",
"400 578 CURVE SMOOTH",
"290 578 OFFCURVE",
"235 483 OFFCURVE",
"202 395 CURVE",
"197 395 LINE",
"223 498 OFFCURVE",
"222 577 OFFCURVE",
"255 702 CURVE SMOOTH",
"293 847 OFFCURVE",
"376 927 OFFCURVE",
"443 927 CURVE SMOOTH",
"480 927 OFFCURVE",
"506 905 OFFCURVE",
"506 875 CURVE SMOOTH",
"506 844 OFFCURVE",
"480 816 OFFCURVE",
"450 816 CURVE SMOOTH",
"436 816 OFFCURVE",
"428 820 OFFCURVE",
"420 829 CURVE",
"416 795 OFFCURVE",
"443 765 OFFCURVE",
"476 765 CURVE SMOOTH",
"521 765 OFFCURVE",
"559 805 OFFCURVE",
"559 851 CURVE SMOOTH",
"559 899 OFFCURVE",
"514 933 OFFCURVE",
"447 933 CURVE SMOOTH",
"344 933 OFFCURVE",
"236 837 OFFCURVE",
"192 705 CURVE SMOOTH",
"157 601 OFFCURVE",
"150 493 OFFCURVE",
"121 366 CURVE SMOOTH",
"47 44 LINE SMOOTH",
"40 13 OFFCURVE",
"31 12 OFFCURVE",
"-11 3 CURVE",
"-11 0 LINE"
);
},
{
closed = 1;
nodes = (
"461 389 LINE SMOOTH",
"493 514 OFFCURVE",
"446 569 OFFCURVE",
"390 569 CURVE",
"391 570 LINE",
"451 567 OFFCURVE",
"506 518 OFFCURVE",
"472 387 CURVE SMOOTH",
"419 184 LINE SMOOTH",
"407 138 OFFCURVE",
"399 95 OFFCURVE",
"399 68 CURVE SMOOTH",
"399 17 OFFCURVE",
"421 5 OFFCURVE",
"436 2 CURVE",
"436 1 LINE",
"412 5 OFFCURVE",
"389 12 OFFCURVE",
"389 72 CURVE SMOOTH",
"389 99 OFFCURVE",
"396 139 OFFCURVE",
"408 184 CURVE SMOOTH"
);
},
{
closed = 1;
nodes = (
"441 799 LINE",
"451 791 OFFCURVE",
"460 791 OFFCURVE",
"468 791 CURVE SMOOTH",
"506 791 OFFCURVE",
"526 837 OFFCURVE",
"526 865 CURVE SMOOTH",
"526 898 OFFCURVE",
"505 927 OFFCURVE",
"468 927 CURVE",
"469 928 LINE",
"507 928 OFFCURVE",
"535 896 OFFCURVE",
"535 859 CURVE SMOOTH",
"535 830 OFFCURVE",
"513 786 OFFCURVE",
"470 786 CURVE SMOOTH",
"458 786 OFFCURVE",
"450 789 OFFCURVE",
"441 797 CURVE"
);
}
);
width = 519;
}
);
leftKerningGroup = hporizq;
},
{
color = (255,153,254,255);
glyphname = h.5;
layers = (
{
associatedMasterId = "E49D03F4-B1E6-4C13-A892-FA4C930543A3";
layerId = "3A45E4B8-543F-4BDE-9F07-77ABAA78DA7A";
name = public.background;
width = 518;
},
{
hints = (
{
place = "{424, 149}";
type = Stem;
},
{
place = "{573, 25}";
type = Stem;
},
{
horizontal = 1;
place = "{-154, 158}";
type = Stem;
},
{
horizontal = 1;
place = "{920, -20}";
target = down;
type = TopGhost;
}
);
layerId = "E49D03F4-B1E6-4C13-A892-FA4C930543A3";
paths = (
{
closed = 1;
nodes = (
"596 -70 OFFCURVE",
"581 -52 OFFCURVE",
"557 -55 CURVE",
"564 -60 OFFCURVE",
"571 -70 OFFCURVE",
"571 -82 CURVE SMOOTH",
"571 -121 OFFCURVE",
"535 -150 OFFCURVE",
"501 -150 CURVE SMOOTH",
"459 -150 OFFCURVE",
"415 -112 OFFCURVE",
"415 -13 CURVE SMOOTH",
"415 38 OFFCURVE",
"430 113 OFFCURVE",
"452 195 CURVE SMOOTH",
"507 400 LINE SMOOTH",
"530 484 OFFCURVE",
"510 578 OFFCURVE",
"400 578 CURVE SMOOTH",
"290 578 OFFCURVE",
"235 483 OFFCURVE",
"202 395 CURVE",
"197 395 LINE",
"324 910 LINE",
"292 905 LINE",
"80 0 LINE",
"177 0 LINE",
"178 3 LINE",
"163 5 LINE SMOOTH",
"129 10 OFFCURVE",
"113 14 OFFCURVE",
"120 44 CURVE SMOOTH",
"193 356 LINE",
"218 431 OFFCURVE",
"270 563 OFFCURVE",
"370 563 CURVE SMOOTH",
"459 563 OFFCURVE",
"447 455 OFFCURVE",
"427 381 CURVE SMOOTH",
"378 200 LINE SMOOTH",
"363 146 OFFCURVE",
"349 80 OFFCURVE",
"349 19 CURVE SMOOTH",
"349 -74 OFFCURVE",
"383 -154 OFFCURVE",
"500 -154 CURVE SMOOTH",
"538 -154 OFFCURVE",
"596 -133 OFFCURVE",
"596 -90 CURVE SMOOTH"
);
},
{
closed = 1;
nodes = (
"-11 0 LINE",
"67 0 LINE",
"279 904 LINE",
"169 888 LINE",
"169 884 LINE",
"203 884 LINE SMOOTH",
"237 884 OFFCURVE",
"245 878 OFFCURVE",
"235 836 CURVE SMOOTH",
"47 44 LINE SMOOTH",
"40 13 OFFCURVE",
"31 12 OFFCURVE",
"-11 3 CURVE"
);
},
{
closed = 1;
nodes = (
"377 50 OFFCURVE",
"389 113 OFFCURVE",
"407 184 CURVE SMOOTH",
"460 389 LINE SMOOTH",
"492 514 OFFCURVE",
"445 569 OFFCURVE",
"389 569 CURVE",
"390 570 LINE",
"450 567 OFFCURVE",
"505 518 OFFCURVE",
"471 387 CURVE SMOOTH",
"418 184 LINE SMOOTH",
"399 112 OFFCURVE",
"387 45 OFFCURVE",
"387 3 CURVE SMOOTH",
"387 -107 OFFCURVE",
"431 -126 OFFCURVE",
"452 -140 CURVE",
"452 -141 LINE",
"419 -126 OFFCURVE",
"377 -95 OFFCURVE",
"377 7 CURVE SMOOTH"
);
},
{
closed = 1;
nodes = (
"537 -143 LINE",
"585 -126 OFFCURVE",
"587 -74 OFFCURVE",
"572 -63 CURVE",
"573 -63 LINE",
"592 -74 OFFCURVE",
"592 -127 OFFCURVE",
"539 -143 CURVE"
);
}
);
width = 518;
}
);
leftKerningGroup = hporizq;
},
{
color = (255,153,254,255);
glyphname = h.9;
layers = (
{
hints = (
{
place = "{356, 74}";
type = Stem;
},
{
place = "{678, 185}";
type = Stem;
},
{
place = "{810, 53}";
type = Stem;
},
{
horizontal = 1;
place = "{-145, 21}";
type = Stem;
},
{
horizontal = 1;
place = "{124, 65}";
type = Stem;
},
{
horizontal = 1;
place = "{920, -20}";
target = down;
type = TopGhost;
}
);
layerId = "E49D03F4-B1E6-4C13-A892-FA4C930543A3";
paths = (
{
closed = 1;
nodes = (
"80 0 LINE",
"177 0 LINE",
"178 3 LINE",
"163 5 LINE SMOOTH",
"129 10 OFFCURVE",
"113 14 OFFCURVE",
"120 44 CURVE SMOOTH",
"193 356 LINE",
"218 431 OFFCURVE",
"270 563 OFFCURVE",
"370 563 CURVE SMOOTH",
"459 563 OFFCURVE",
"446 455 OFFCURVE",
"427 381 CURVE SMOOTH",
"380 200 LINE SMOOTH",
"367 150 OFFCURVE",
"356 95 OFFCURVE",
"356 44 CURVE SMOOTH",
"356 -50 OFFCURVE",
"414 -145 OFFCURVE",
"600 -145 CURVE SMOOTH",
"751 -145 OFFCURVE",
"863 -22 OFFCURVE",
"863 81 CURVE SMOOTH",
"863 148 OFFCURVE",
"816 189 OFFCURVE",
"763 189 CURVE SMOOTH",
"712 189 OFFCURVE",
"678 151 OFFCURVE",
"678 107 CURVE SMOOTH",
"678 100 OFFCURVE",
"678 93 OFFCURVE",
"680 86 CURVE",
"689 111 OFFCURVE",
"712 124 OFFCURVE",
"735 124 CURVE SMOOTH",
"769 124 OFFCURVE",
"810 98 OFFCURVE",
"810 34 CURVE SMOOTH",
"810 -52 OFFCURVE",
"737 -139 OFFCURVE",
"608 -139 CURVE SMOOTH",
"480 -139 OFFCURVE",
"423 -60 OFFCURVE",
"423 34 CURVE SMOOTH",
"423 86 OFFCURVE",
"441 145 OFFCURVE",
"454 195 CURVE SMOOTH",
"507 400 LINE SMOOTH",
"529 484 OFFCURVE",
"510 578 OFFCURVE",
"400 578 CURVE SMOOTH",
"290 578 OFFCURVE",
"235 483 OFFCURVE",
"202 395 CURVE",
"197 395 LINE",
"324 910 LINE",
"292 905 LINE"
);
},
{
closed = 1;
nodes = (
"67 0 LINE",
"279 904 LINE",
"169 888 LINE",
"169 884 LINE",
"203 884 LINE SMOOTH",
"237 884 OFFCURVE",
"245 878 OFFCURVE",
"235 836 CURVE SMOOTH",
"47 44 LINE SMOOTH",
"40 13 OFFCURVE",
"31 12 OFFCURVE",
"-11 3 CURVE",
"-11 0 LINE"
);
},
{
closed = 1;
nodes = (
"460 389 LINE SMOOTH",
"492 514 OFFCURVE",
"445 569 OFFCURVE",
"389 569 CURVE",
"390 570 LINE",
"450 567 OFFCURVE",
"505 518 OFFCURVE",
"471 387 CURVE SMOOTH",
"418 184 LINE SMOOTH",
"405 133 OFFCURVE",
"394 78 OFFCURVE",
"394 36 CURVE SMOOTH",
"394 -70 OFFCURVE",
"468 -122 OFFCURVE",
"545 -136 CURVE",
"544 -137 LINE",
"456 -123 OFFCURVE",
"385 -67 OFFCURVE",
"385 38 CURVE SMOOTH",
"385 80 OFFCURVE",
"394 133 OFFCURVE",
"407 184 CURVE SMOOTH"
);
},
{
closed = 1;
nodes = (
"802 165 OFFCURVE",
"838 119 OFFCURVE",
"838 60 CURVE SMOOTH",
"838 18 OFFCURVE",
"821 -25 OFFCURVE",
"788 -62 CURVE",
"787 -61 LINE",
"820 -22 OFFCURVE",
"833 19 OFFCURVE",
"833 59 CURVE SMOOTH",
"833 116 OFFCURVE",
"791 157 OFFCURVE",
"744 157 CURVE SMOOTH",
"730 157 OFFCURVE",
"715 154 OFFCURVE",
"705 143 CURVE",
"703 143 LINE",
"712 157 OFFCURVE",
"732 165 OFFCURVE",
"751 165 CURVE SMOOTH"
);
}
);
width = 872;
}
);
leftKerningGroup = hporizq;
},
{
color = (255,153,254,255);
glyphname = h.6;
layers = (
{
associatedMasterId = "E49D03F4-B1E6-4C13-A892-FA4C930543A3";
layerId = "3A45E4B8-543F-4BDE-9F07-77ABAA78DA7A";
name = public.background;
paths = (
{
closed = 1;
nodes = (
"617 -424 LINE",
"462 -401 OFFCURVE",
"366 -271 OFFCURVE",
"366 -76 CURVE SMOOTH",
"366 -19 OFFCURVE",
"369 49 OFFCURVE",
"387 115 CURVE SMOOTH",
"461 388 LINE SMOOTH",
"494 511 OFFCURVE",
"455 565 OFFCURVE",
"390 569 CURVE",
"391 570 LINE",
"463 564 OFFCURVE",
"505 508 OFFCURVE",
"472 386 CURVE SMOOTH",
"398 115 LINE SMOOTH",
"380 49 OFFCURVE",
"376 -17 OFFCURVE",
"376 -74 CURVE SMOOTH",
"376 -268 OFFCURVE",
"468 -399 OFFCURVE",
"617 -422 CURVE"
);
}
);
width = 504;
},
{
hints = (
{
place = "{511, 58}";
type = Stem;
},
{
place = "{796, 185}";
type = Stem;
},
{
place = "{928, 53}";
type = Stem;
},
{
horizontal = 1;
place = "{-433, 21}";
type = Stem;
},
{
horizontal = 1;
place = "{-156, 65}";
type = Stem;
},
{
horizontal = 1;
place = "{765, 51}";
type = Stem;
},
{
horizontal = 1;
place = "{765, 168}";
type = Stem;
}
);
layerId = "E49D03F4-B1E6-4C13-A892-FA4C930543A3";
paths = (
{
closed = 1;
nodes = (
"68 0 LINE",
"152 370 LINE SMOOTH",
"177 481 OFFCURVE",
"185 583 OFFCURVE",
"220 703 CURVE SMOOTH",
"246 793 OFFCURVE",
"310 874 OFFCURVE",
"368 908 CURVE",
"373 909 LINE",
"320 882 OFFCURVE",
"253 801 OFFCURVE",
"227 702 CURVE SMOOTH",
"196 583 OFFCURVE",
"189 478 OFFCURVE",
"164 370 CURVE SMOOTH",
"79 0 LINE",
"177 0 LINE",
"178 3 LINE",
"163 5 LINE SMOOTH",
"129 10 OFFCURVE",
"113 14 OFFCURVE",
"120 44 CURVE SMOOTH",
"193 356 LINE",
"218 431 OFFCURVE",
"270 563 OFFCURVE",
"370 563 CURVE SMOOTH",
"459 563 OFFCURVE",
"446 455 OFFCURVE",
"427 381 CURVE SMOOTH",
"361 123 LINE SMOOTH",
"345 58 OFFCURVE",
"335 -9 OFFCURVE",
"335 -73 CURVE SMOOTH",
"335 -268 OFFCURVE",
"424 -433 OFFCURVE",
"669 -433 CURVE SMOOTH",
"888 -433 OFFCURVE",
"977 -280 OFFCURVE",
"977 -195 CURVE SMOOTH",
"977 -134 OFFCURVE",
"930 -91 OFFCURVE",
"877 -91 CURVE SMOOTH",
"826 -91 OFFCURVE",
"792 -129 OFFCURVE",
"792 -173 CURVE SMOOTH",
"792 -180 OFFCURVE",
"792 -187 OFFCURVE",
"794 -194 CURVE",
"803 -169 OFFCURVE",
"826 -156 OFFCURVE",
"849 -156 CURVE SMOOTH",
"883 -156 OFFCURVE",
"924 -182 OFFCURVE",
"924 -246 CURVE SMOOTH",
"924 -332 OFFCURVE",
"848 -423 OFFCURVE",
"703 -423 CURVE SMOOTH",
"489 -423 OFFCURVE",
"408 -266 OFFCURVE",
"408 -79 CURVE SMOOTH",
"408 -14 OFFCURVE",
"418 56 OFFCURVE",
"435 123 CURVE SMOOTH",
"507 400 LINE SMOOTH",
"529 484 OFFCURVE",
"510 578 OFFCURVE",
"400 578 CURVE SMOOTH",
"290 578 OFFCURVE",
"235 483 OFFCURVE",
"202 395 CURVE",
"197 395 LINE",
"223 498 OFFCURVE",
"222 577 OFFCURVE",
"255 702 CURVE SMOOTH",
"293 847 OFFCURVE",
"376 927 OFFCURVE",
"443 927 CURVE SMOOTH",
"480 927 OFFCURVE",
"506 905 OFFCURVE",
"506 875 CURVE SMOOTH",
"506 844 OFFCURVE",
"480 816 OFFCURVE",
"450 816 CURVE SMOOTH",
"436 816 OFFCURVE",
"428 820 OFFCURVE",
"420 829 CURVE",
"416 795 OFFCURVE",
"443 765 OFFCURVE",
"476 765 CURVE SMOOTH",
"521 765 OFFCURVE",
"559 805 OFFCURVE",
"559 851 CURVE SMOOTH",
"559 899 OFFCURVE",
"514 933 OFFCURVE",
"447 933 CURVE SMOOTH",
"344 933 OFFCURVE",
"236 837 OFFCURVE",
"192 705 CURVE SMOOTH",
"157 601 OFFCURVE",
"150 493 OFFCURVE",
"121 366 CURVE SMOOTH",
"47 44 LINE SMOOTH",
"40 13 OFFCURVE",
"31 12 OFFCURVE",
"-11 3 CURVE",
"-11 0 LINE"
);
},
{
closed = 1;
nodes = (
"506 791 OFFCURVE",
"526 837 OFFCURVE",
"526 865 CURVE SMOOTH",
"526 898 OFFCURVE",
"505 927 OFFCURVE",
"468 927 CURVE",
"469 928 LINE",
"507 928 OFFCURVE",
"535 896 OFFCURVE",
"535 859 CURVE SMOOTH",
"535 830 OFFCURVE",
"513 786 OFFCURVE",
"470 786 CURVE SMOOTH",
"458 786 OFFCURVE",
"450 789 OFFCURVE",
"441 797 CURVE",
"441 799 LINE",
"451 791 OFFCURVE",
"460 791 OFFCURVE",
"468 791 CURVE SMOOTH"
);
},
{
closed = 1;
nodes = (
"818 -136 LINE",
"827 -122 OFFCURVE",
"846 -115 OFFCURVE",
"865 -115 CURVE SMOOTH",
"916 -115 OFFCURVE",
"953 -157 OFFCURVE",
"953 -213 CURVE SMOOTH",
"953 -258 OFFCURVE",
"936 -301 OFFCURVE",
"903 -341 CURVE",
"901 -339 LINE",
"937 -298 OFFCURVE",
"948 -257 OFFCURVE",
"948 -214 CURVE SMOOTH",
"948 -158 OFFCURVE",
"905 -122 OFFCURVE",
"857 -122 CURVE SMOOTH",
"845 -122 OFFCURVE",
"827 -125 OFFCURVE",
"820 -136 CURVE"
);
},
{
closed = 1;
nodes = (
"460 388 LINE SMOOTH",
"492 511 OFFCURVE",
"456 565 OFFCURVE",
"391 569 CURVE",
"392 570 LINE",
"464 564 OFFCURVE",
"503 508 OFFCURVE",
"471 386 CURVE SMOOTH",
"403 125 LINE SMOOTH",
"388 68 OFFCURVE",
"377 2 OFFCURVE",
"377 -65 CURVE SMOOTH",
"377 -229 OFFCURVE",
"437 -394 OFFCURVE",
"618 -422 CURVE",
"618 -424 LINE",
"430 -396 OFFCURVE",
"366 -229 OFFCURVE",
"366 -62 CURVE SMOOTH",
"366 3 OFFCURVE",
"376 68 OFFCURVE",
"391 125 CURVE SMOOTH"
);
}
);
width = 504;
}
);
leftKerningGroup = hporizq;
},
{
color = (255,153,254,255);
glyphname = h.1.short;
layers = (
{
hints = (
{
place = "{511, 58}";
type = Stem;
},
{
horizontal = 1;
place = "{-8, 21}";
type = Stem;
},
{
horizontal = 1;
place = "{563, 179}";
type = Stem;
},
{
horizontal = 1;
place = "{691, 51}";
type = Stem;
},
{
horizontal = 1;
place = "{691, 168}";
type = Stem;
}
);
layerId = "E49D03F4-B1E6-4C13-A892-FA4C930543A3";
paths = (
{
closed = 1;
nodes = (
"-11 0 LINE",
"68 0 LINE",
"152 370 LINE SMOOTH",
"172 457 OFFCURVE",
"189 534 OFFCURVE",
"220 628 CURVE SMOOTH",
"250 717 OFFCURVE",
"310 799 OFFCURVE",
"368 833 CURVE",
"373 834 LINE",
"320 807 OFFCURVE",
"256 725 OFFCURVE",
"227 627 CURVE SMOOTH",
"199 534 OFFCURVE",
"184 455 OFFCURVE",
"164 370 CURVE SMOOTH",
"79 0 LINE",
"177 0 LINE",
"178 3 LINE",
"163 5 LINE SMOOTH",
"129 10 OFFCURVE",
"113 14 OFFCURVE",
"120 44 CURVE SMOOTH",
"193 356 LINE",
"218 431 OFFCURVE",
"270 563 OFFCURVE",
"370 563 CURVE SMOOTH",
"459 563 OFFCURVE",
"446 455 OFFCURVE",
"427 381 CURVE SMOOTH",
"380 200 LINE SMOOTH",
"370 160 OFFCURVE",
"357 115 OFFCURVE",
"357 77 CURVE SMOOTH",
"357 29 OFFCURVE",
"377 -8 OFFCURVE",
"445 -8 CURVE SMOOTH",
"472 -8 OFFCURVE",
"497 3 OFFCURVE",
"508 20 CURVE",
"506 25 LINE",
"497 11 OFFCURVE",
"484 3 OFFCURVE",
"467 3 CURVE SMOOTH",
"439 3 OFFCURVE",
"427 20 OFFCURVE",
"427 54 CURVE SMOOTH",
"427 86 OFFCURVE",
"438 133 OFFCURVE",
"454 195 CURVE SMOOTH",
"507 400 LINE SMOOTH",
"529 484 OFFCURVE",
"510 578 OFFCURVE",
"400 578 CURVE SMOOTH",
"290 578 OFFCURVE",
"235 483 OFFCURVE",
"202 395 CURVE",
"197 395 LINE",
"202 408 LINE SMOOTH",
"227 474 OFFCURVE",
"227 537 OFFCURVE",
"255 628 CURVE SMOOTH",
"300 773 OFFCURVE",
"374 854 OFFCURVE",
"444 854 CURVE SMOOTH",
"480 854 OFFCURVE",
"506 832 OFFCURVE",
"506 801 CURVE SMOOTH",
"506 769 OFFCURVE",
"479 742 OFFCURVE",
"448 742 CURVE SMOOTH",
"436 742 OFFCURVE",
"428 746 OFFCURVE",
"420 755 CURVE",
"416 721 OFFCURVE",
"443 691 OFFCURVE",
"479 691 CURVE SMOOTH",
"522 691 OFFCURVE",
"562 733 OFFCURVE",
"562 778 CURVE SMOOTH",
"562 826 OFFCURVE",
"518 861 OFFCURVE",
"457 861 CURVE SMOOTH",
"370 861 OFFCURVE",
"254 788 OFFCURVE",
"192 631 CURVE SMOOTH",
"154 536 OFFCURVE",
"134 411 OFFCURVE",
"100 267 CURVE SMOOTH",
"47 44 LINE SMOOTH",
"40 13 OFFCURVE",
"31 12 OFFCURVE",
"-11 3 CURVE"
);
},
{
closed = 1;
nodes = (
"461 389 LINE SMOOTH",
"493 514 OFFCURVE",
"446 569 OFFCURVE",
"390 569 CURVE",
"391 570 LINE",
"451 567 OFFCURVE",
"506 518 OFFCURVE",
"472 387 CURVE SMOOTH",
"419 184 LINE SMOOTH",
"407 138 OFFCURVE",
"399 95 OFFCURVE",
"399 68 CURVE SMOOTH",
"399 17 OFFCURVE",
"421 5 OFFCURVE",
"436 2 CURVE",
"436 1 LINE",
"412 5 OFFCURVE",
"389 12 OFFCURVE",
"389 72 CURVE SMOOTH",
"389 99 OFFCURVE",
"396 139 OFFCURVE",
"408 184 CURVE SMOOTH"
);
},
{
closed = 1;
nodes = (
"442 727 LINE",
"452 719 OFFCURVE",
"461 719 OFFCURVE",
"469 719 CURVE SMOOTH",
"507 719 OFFCURVE",
"527 765 OFFCURVE",
"527 793 CURVE SMOOTH",
"527 826 OFFCURVE",
"506 855 OFFCURVE",
"469 855 CURVE",
"470 856 LINE",
"508 856 OFFCURVE",
"536 824 OFFCURVE",
"536 787 CURVE SMOOTH",
"536 758 OFFCURVE",
"514 714 OFFCURVE",
"471 714 CURVE SMOOTH",
"459 714 OFFCURVE",
"451 717 OFFCURVE",
"442 725 CURVE"
);
}
);
width = 521;
}
);
leftKerningGroup = hporizq;
},
{
color = (255,153,254,255);
glyphname = h.3;
layers = (
{
associatedMasterId = "E49D03F4-B1E6-4C13-A892-FA4C930543A3";
layerId = "3A45E4B8-543F-4BDE-9F07-77ABAA78DA7A";
name = public.background;
paths = (
{
closed = 1;
nodes = (
"379 174 LINE",
"350 48 OFFCURVE",
"298 -84 OFFCURVE",
"202 -175 CURVE",
"113 -135 OFFCURVE",
"25 -100 OFFCURVE",
"-51 -100 CURVE SMOOTH",
"-214 -100 OFFCURVE",
"-298 -153 OFFCURVE",
"-298 -191 CURVE SMOOTH",
"-298 -248 OFFCURVE",
"-200 -293 OFFCURVE",
"-65 -293 CURVE SMOOTH",
"36 -293 OFFCURVE",
"126 -264 OFFCURVE",
"203 -213 CURVE",
"292 -253 OFFCURVE",
"378 -290 OFFCURVE",
"460 -290 CURVE SMOOTH",
"615 -290 OFFCURVE",
"732 -237 OFFCURVE",
"732 -140 CURVE SMOOTH",
"732 -102 OFFCURVE",
"700 -73 OFFCURVE",
"664 -73 CURVE SMOOTH",
"625 -73 OFFCURVE",
"607 -105 OFFCURVE",
"607 -131 CURVE SMOOTH",
"607 -135 OFFCURVE",
"607 -140 OFFCURVE",
"608 -146 CURVE",
"615 -128 OFFCURVE",
"630 -118 OFFCURVE",
"647 -118 CURVE SMOOTH",
"676 -118 OFFCURVE",
"697 -138 OFFCURVE",
"697 -172 CURVE SMOOTH",
"697 -228 OFFCURVE",
"633 -278 OFFCURVE",
"511 -278 CURVE SMOOTH",
"430 -278 OFFCURVE",
"333 -234 OFFCURVE",
"235 -190 CURVE",
"346 -102 OFFCURVE",
"425 38 OFFCURVE",
"464 209 CURVE"
);
},
{
closed = 1;
nodes = (
"-241 -163 OFFCURVE",
"-215 -114 OFFCURVE",
"-119 -114 CURVE SMOOTH",
"-22 -114 OFFCURVE",
"76 -156 OFFCURVE",
"173 -200 CURVE",
"106 -252 OFFCURVE",
"21 -285 OFFCURVE",
"-89 -285 CURVE SMOOTH",
"-146 -285 OFFCURVE",
"-241 -269 OFFCURVE",
"-241 -192 CURVE SMOOTH"
);
}
);
width = 514;
},
{
hints = (
{
place = "{-298, 57}";
type = Stem;
},
{
place = "{512, 58}";
type = Stem;
},
{
place = "{607, 125}";
type = Stem;
},
{
place = "{697, 35}";
type = Stem;
},
{
horizontal = 1;
place = "{-290, 190}";
type = Stem;
},
{
horizontal = 1;
place = "{-293, 21}";
type = Stem;
},
{
horizontal = 1;
place = "{-114, 41}";
type = Stem;
},
{
horizontal = 1;
place = "{-114, 118}";
type = Stem;
},
{
horizontal = 1;
place = "{765, 51}";
type = Stem;
},
{
horizontal = 1;
place = "{765, 168}";
type = Stem;
}
);
layerId = "E49D03F4-B1E6-4C13-A892-FA4C930543A3";
paths = (
{
closed = 1;
nodes = (
"68 -284 OFFCURVE",
"150 -257 OFFCURVE",
"220 -207 CURVE",
"299 -255 OFFCURVE",
"382 -303 OFFCURVE",
"489 -303 CURVE SMOOTH",
"618 -303 OFFCURVE",
"708 -240 OFFCURVE",
"708 -149 CURVE SMOOTH",
"708 -105 OFFCURVE",
"679 -74 OFFCURVE",
"638 -74 CURVE SMOOTH",
"604 -74 OFFCURVE",
"578 -97 OFFCURVE",
"578 -128 CURVE SMOOTH",
"578 -133 OFFCURVE",
"578 -137 OFFCURVE",
"579 -143 CURVE",
"586 -127 OFFCURVE",
"601 -117 OFFCURVE",
"620 -117 CURVE SMOOTH",
"652 -117 OFFCURVE",
"674 -140 OFFCURVE",
"674 -174 CURVE SMOOTH",
"674 -236 OFFCURVE",
"625 -280 OFFCURVE",
"556 -280 CURVE SMOOTH",
"462 -280 OFFCURVE",
"359 -229 OFFCURVE",
"252 -182 CURVE",
"349 -100 OFFCURVE",
"420 30 OFFCURVE",
"459 196 CURVE SMOOTH",
"507 400 LINE SMOOTH",
"532 508 OFFCURVE",
"491 578 OFFCURVE",
"400 578 CURVE SMOOTH",
"290 578 OFFCURVE",
"235 483 OFFCURVE",
"202 395 CURVE",
"197 395 LINE",
"223 498 OFFCURVE",
"222 577 OFFCURVE",
"255 702 CURVE SMOOTH",
"293 847 OFFCURVE",
"376 927 OFFCURVE",
"443 927 CURVE SMOOTH",
"480 927 OFFCURVE",
"506 905 OFFCURVE",
"506 875 CURVE SMOOTH",
"506 844 OFFCURVE",
"480 816 OFFCURVE",
"450 816 CURVE SMOOTH",
"436 816 OFFCURVE",
"428 820 OFFCURVE",
"420 829 CURVE",
"416 795 OFFCURVE",
"443 765 OFFCURVE",
"476 765 CURVE SMOOTH",
"521 765 OFFCURVE",
"559 805 OFFCURVE",
"559 851 CURVE SMOOTH",
"559 899 OFFCURVE",
"514 933 OFFCURVE",
"447 933 CURVE SMOOTH",
"344 933 OFFCURVE",
"236 837 OFFCURVE",
"192 705 CURVE SMOOTH",
"157 601 OFFCURVE",
"150 493 OFFCURVE",
"121 366 CURVE SMOOTH",
"47 44 LINE SMOOTH",
"40 13 OFFCURVE",
"31 12 OFFCURVE",
"-11 3 CURVE",
"-11 0 LINE",
"68 0 LINE",
"152 370 LINE SMOOTH",
"177 481 OFFCURVE",
"185 583 OFFCURVE",
"220 703 CURVE SMOOTH",
"246 793 OFFCURVE",
"310 874 OFFCURVE",
"368 908 CURVE",
"373 909 LINE",
"320 882 OFFCURVE",
"253 801 OFFCURVE",
"227 702 CURVE SMOOTH",
"196 583 OFFCURVE",
"189 478 OFFCURVE",
"164 370 CURVE SMOOTH",
"79 0 LINE",
"177 0 LINE",
"178 3 LINE",
"163 5 LINE SMOOTH",
"129 10 OFFCURVE",
"113 14 OFFCURVE",
"120 44 CURVE SMOOTH",
"193 356 LINE",
"218 431 OFFCURVE",
"270 563 OFFCURVE",
"370 563 CURVE SMOOTH",
"435 563 OFFCURVE",
"455 500 OFFCURVE",
"427 381 CURVE SMOOTH",
"376 162 LINE SMOOTH",
"358 83 OFFCURVE",
"326 -70 OFFCURVE",
"232 -174 CURVE",
"148 -138 OFFCURVE",
"62 -106 OFFCURVE",
"-24 -106 CURVE SMOOTH",
"-121 -106 OFFCURVE",
"-201 -149 OFFCURVE",
"-201 -201 CURVE SMOOTH",
"-201 -251 OFFCURVE",
"-130 -284 OFFCURVE",
"-23 -284 CURVE SMOOTH"
);
},
{
closed = 1;
nodes = (
"-155 -146 OFFCURVE",
"-105 -113 OFFCURVE",
"-29 -113 CURVE SMOOTH",
"60 -113 OFFCURVE",
"133 -155 OFFCURVE",
"206 -199 CURVE",
"154 -246 OFFCURVE",
"84 -278 OFFCURVE",
"-9 -278 CURVE SMOOTH",
"-100 -278 OFFCURVE",
"-155 -247 OFFCURVE",
"-155 -196 CURVE SMOOTH"
);
},
{
closed = 1;
nodes = (
"441 799 LINE",
"451 791 OFFCURVE",
"460 791 OFFCURVE",
"468 791 CURVE SMOOTH",
"506 791 OFFCURVE",
"526 837 OFFCURVE",
"526 865 CURVE SMOOTH",
"526 898 OFFCURVE",
"505 927 OFFCURVE",
"468 927 CURVE",
"469 928 LINE",
"507 928 OFFCURVE",
"535 896 OFFCURVE",
"535 859 CURVE SMOOTH",
"535 830 OFFCURVE",
"513 786 OFFCURVE",
"470 786 CURVE SMOOTH",
"458 786 OFFCURVE",
"450 789 OFFCURVE",
"441 797 CURVE"
);
},
{
closed = 1;
nodes = (
"423 177 LINE SMOOTH",
"365 -71 OFFCURVE",
"270 -166 OFFCURVE",
"180 -229 CURVE",
"180 -227 LINE",
"270 -166 OFFCURVE",
"356 -58 OFFCURVE",
"411 177 CURVE SMOOTH",
"462 393 LINE SMOOTH",
"490 513 OFFCURVE",
"454 569 OFFCURVE",
"396 569 CURVE",
"397 570 LINE",
"459 568 OFFCURVE",
"502 516 OFFCURVE",
"473 391 CURVE SMOOTH"
);
},
{
closed = 1;
nodes = (
"246 -196 LINE",
"327 -234 OFFCURVE",
"435 -297 OFFCURVE",
"545 -289 CURVE",
"545 -291 LINE",
"436 -299 OFFCURVE",
"320 -240 OFFCURVE",
"240 -200 CURVE"
);
},
{
closed = 1;
nodes = (
"216 -186 LINE",
"188 -170 OFFCURVE",
"108 -129 OFFCURVE",
"26 -115 CURVE",
"26 -113 LINE",
"115 -128 OFFCURVE",
"181 -161 OFFCURVE",
"220 -182 CURVE"
);
},
{
closed = 1;
nodes = (
"590 -114 LINE",
"599 -99 OFFCURVE",
"613 -91 OFFCURVE",
"633 -91 CURVE SMOOTH",
"670 -91 OFFCURVE",
"694 -118 OFFCURVE",
"694 -158 CURVE SMOOTH",
"694 -188 OFFCURVE",
"682 -216 OFFCURVE",
"658 -242 CURVE",
"657 -241 LINE",
"679 -216 OFFCURVE",
"688 -195 OFFCURVE",
"688 -170 CURVE SMOOTH",
"688 -127 OFFCURVE",
"662 -97 OFFCURVE",
"625 -97 CURVE SMOOTH",
"610 -97 OFFCURVE",
"597 -104 OFFCURVE",
"590 -115 CURVE"
);
},
{
closed = 1;
nodes = (
"-90 -275 LINE",
"-148 -261 OFFCURVE",
"-183 -233 OFFCURVE",
"-183 -199 CURVE SMOOTH",
"-183 -164 OFFCURVE",
"-148 -132 OFFCURVE",
"-91 -116 CURVE",
"-93 -118 LINE",
"-143 -133 OFFCURVE",
"-173 -163 OFFCURVE",
"-173 -197 CURVE SMOOTH",
"-173 -230 OFFCURVE",
"-143 -259 OFFCURVE",
"-94 -273 CURVE"
);
}
);
width = 514;
}
);
leftKerningGroup = hporizq;
},
{
color = (153,255,154,255);
glyphname = i;
layers = (
{
associatedMasterId = "E49D03F4-B1E6-4C13-A892-FA4C930543A3";
layerId = "3A45E4B8-543F-4BDE-9F07-77ABAA78DA7A";
name = public.background;
paths = (
{
closed = 1;
nodes = (
"73 208 LINE SMOOTH",
"55 129 OFFCURVE",
"4 -8 OFFCURVE",
"132 -8 CURVE SMOOTH",
"143 -8 OFFCURVE",
"177 -7 OFFCURVE",
"195 20 CURVE",
"191 21 LINE",
"178 3 OFFCURVE",
"164 1 OFFCURVE",
"154 1 CURVE SMOOTH",
"100 1 OFFCURVE",
"113 78 OFFCURVE",
"144 208 CURVE SMOOTH"
);
},
{
closed = 1;
nodes = (
"230 569 LINE",
"93 547 LINE",
"93 544 LINE",
"130 548 OFFCURVE",
"150 537 OFFCURVE",
"142 503 CURVE SMOOTH"
);
},
{
closed = 1;
nodes = (
"214 620 LINE",
"110 196 LINE SMOOTH",
"97 143 OFFCURVE",
"86 96 OFFCURVE",
"86 65 CURVE SMOOTH",
"86 16 OFFCURVE",
"107 5 OFFCURVE",
"121 2 CURVE",
"121 1 LINE",
"98 5 OFFCURVE",
"76 12 OFFCURVE",
"76 69 CURVE SMOOTH",
"76 100 OFFCURVE",
"86 145 OFFCURVE",
"98 196 CURVE SMOOTH",
"202 622 LINE"
);
},
{
closed = 1;
nodes = (
"241 804 OFFCURVE",
"248 810 OFFCURVE",
"255 810 CURVE SMOOTH",
"262 810 OFFCURVE",
"267 804 OFFCURVE",
"266 797 CURVE SMOOTH",
"265 790 OFFCURVE",
"258 784 OFFCURVE",
"251 784 CURVE SMOOTH",
"244 784 OFFCURVE",
"239 790 OFFCURVE",
"240 797 CURVE SMOOTH"
);
},
{
closed = 1;
nodes = (
"241 804 OFFCURVE",
"248 810 OFFCURVE",
"255 810 CURVE SMOOTH",
"262 810 OFFCURVE",
"267 804 OFFCURVE",
"266 797 CURVE SMOOTH",
"265 790 OFFCURVE",
"258 784 OFFCURVE",
"251 784 CURVE SMOOTH",
"244 784 OFFCURVE",
"239 790 OFFCURVE",
"240 797 CURVE SMOOTH"
);
}
);
width = 207;
},
{
hints = (
{
horizontal = 1;
place = "{-8, 21}";
type = Stem;
},
{
horizontal = 1;
place = "{735, 124}";
type = Stem;
}
);
layerId = "E49D03F4-B1E6-4C13-A892-FA4C930543A3";
paths = (
{
closed = 1;
nodes = (
"159 -8 OFFCURVE",
"184 3 OFFCURVE",
"195 20 CURVE",
"193 25 LINE",
"184 11 OFFCURVE",
"171 3 OFFCURVE",
"154 3 CURVE SMOOTH",
"126 3 OFFCURVE",
"114 20 OFFCURVE",
"114 54 CURVE SMOOTH",
"114 86 OFFCURVE",
"126 132 OFFCURVE",
"141 195 CURVE SMOOTH",
"230 569 LINE",
"200 564 LINE",
"110 196 LINE SMOOTH",
"97 143 OFFCURVE",
"86 96 OFFCURVE",
"86 65 CURVE SMOOTH",
"86 16 OFFCURVE",
"107 5 OFFCURVE",
"121 2 CURVE",
"121 1 LINE",
"98 5 OFFCURVE",
"76 12 OFFCURVE",
"76 69 CURVE SMOOTH",
"76 100 OFFCURVE",
"86 145 OFFCURVE",
"98 196 CURVE SMOOTH",
"187 562 LINE",
"91 547 LINE",
"91 543 LINE",
"136 543 OFFCURVE",
"150 537 OFFCURVE",
"142 503 CURVE SMOOTH",
"68 200 LINE SMOOTH",
"58 159 OFFCURVE",
"46 113 OFFCURVE",
"46 75 CURVE SMOOTH",
"46 28 OFFCURVE",
"65 -8 OFFCURVE",
"132 -8 CURVE SMOOTH"
);
},
{
closed = 1;
nodes = (
"274 735 OFFCURVE",
"305 762 OFFCURVE",
"311 797 CURVE SMOOTH",
"316 832 OFFCURVE",
"292 859 OFFCURVE",
"257 859 CURVE SMOOTH",
"223 859 OFFCURVE",
"192 832 OFFCURVE",
"187 797 CURVE SMOOTH",
"181 762 OFFCURVE",
"205 735 OFFCURVE",
"240 735 CURVE SMOOTH"
);
},
{
closed = 1;
nodes = (
"236 805 OFFCURVE",
"243 811 OFFCURVE",
"250 811 CURVE SMOOTH",
"258 811 OFFCURVE",
"264 805 OFFCURVE",
"262 797 CURVE SMOOTH",
"261 789 OFFCURVE",
"254 783 OFFCURVE",
"247 783 CURVE SMOOTH",
"239 783 OFFCURVE",
"233 789 OFFCURVE",
"235 797 CURVE SMOOTH"
);
}
);
width = 207;
}
);
unicode = 0069;
},
{
color = (255,153,254,255);
glyphname = i.1;
layers = (
{
hints = (
{
horizontal = 1;
place = "{1, 21}";
type = Stem;
},
{
horizontal = 1;
place = "{735, 124}";
type = Stem;
}
);
layerId = "E49D03F4-B1E6-4C13-A892-FA4C930543A3";
paths = (
{
closed = 1;
nodes = (
"-23 0 LINE",
"69 0 LINE",
"200 562 LINE",
"105 547 LINE",
"105 543 LINE",
"150 543 OFFCURVE",
"164 537 OFFCURVE",
"156 503 CURVE SMOOTH",
"49 44 LINE SMOOTH",
"42 13 OFFCURVE",
"8 8 OFFCURVE",
"-23 3 CURVE"
);
},
{
closed = 1;
nodes = (
"180 0 LINE",
"181 3 LINE",
"166 5 LINE SMOOTH",
"124 11 OFFCURVE",
"115 20 OFFCURVE",
"122 49 CURVE SMOOTH",
"244 569 LINE",
"213 564 LINE",
"81 0 LINE"
);
},
{
closed = 1;
nodes = (
"288 735 OFFCURVE",
"319 762 OFFCURVE",
"325 797 CURVE SMOOTH",
"330 832 OFFCURVE",
"306 859 OFFCURVE",
"271 859 CURVE SMOOTH",
"237 859 OFFCURVE",
"206 832 OFFCURVE",
"201 797 CURVE SMOOTH",
"195 762 OFFCURVE",
"219 735 OFFCURVE",
"254 735 CURVE SMOOTH"
);
},
{
closed = 1;
nodes = (
"250 805 OFFCURVE",
"257 811 OFFCURVE",
"264 811 CURVE SMOOTH",
"272 811 OFFCURVE",
"278 805 OFFCURVE",
"276 797 CURVE SMOOTH",
"275 789 OFFCURVE",
"268 783 OFFCURVE",
"261 783 CURVE SMOOTH",
"253 783 OFFCURVE",
"247 789 OFFCURVE",
"249 797 CURVE SMOOTH"
);
}
);
width = 221;
}
);
},
{
color = (255,153,254,255);
glyphname = i.5;
layers = (
{
associatedMasterId = "E49D03F4-B1E6-4C13-A892-FA4C930543A3";
layerId = "3A45E4B8-543F-4BDE-9F07-77ABAA78DA7A";
name = public.background;
paths = (
{
closed = 1;
nodes = (
"202 622 LINE",
"214 620 LINE",
"111 196 LINE SMOOTH",
"92 118 OFFCURVE",
"78 53 OFFCURVE",
"78 2 CURVE SMOOTH",
"78 -84 OFFCURVE",
"107 -130 OFFCURVE",
"153 -145 CURVE",
"153 -146 LINE",
"100 -131 OFFCURVE",
"70 -78 OFFCURVE",
"70 12 CURVE SMOOTH",
"70 65 OFFCURVE",
"82 127 OFFCURVE",
"99 196 CURVE SMOOTH"
);
}
);
width = 207;
},
{
hints = (
{
place = "{113, 149}";
type = Stem;
},
{
place = "{262, 25}";
type = Stem;
},
{
horizontal = 1;
place = "{-154, 21}";
type = Stem;
},
{
horizontal = 1;
place = "{735, 124}";
type = Stem;
}
);
layerId = "E49D03F4-B1E6-4C13-A892-FA4C930543A3";
paths = (
{
closed = 1;
nodes = (
"42 -78 OFFCURVE",
"74 -154 OFFCURVE",
"191 -154 CURVE SMOOTH",
"229 -154 OFFCURVE",
"287 -133 OFFCURVE",
"287 -90 CURVE SMOOTH",
"287 -70 OFFCURVE",
"272 -52 OFFCURVE",
"248 -55 CURVE",
"255 -60 OFFCURVE",
"262 -70 OFFCURVE",
"262 -82 CURVE SMOOTH",
"262 -121 OFFCURVE",
"236 -150 OFFCURVE",
"197 -150 CURVE SMOOTH",
"128 -150 OFFCURVE",
"106 -99 OFFCURVE",
"106 -26 CURVE SMOOTH",
"106 46 OFFCURVE",
"128 140 OFFCURVE",
"149 228 CURVE SMOOTH",
"230 569 LINE",
"200 564 LINE",
"111 196 LINE SMOOTH",
"92 118 OFFCURVE",
"78 53 OFFCURVE",
"78 2 CURVE SMOOTH",
"78 -84 OFFCURVE",
"107 -130 OFFCURVE",
"153 -145 CURVE",
"153 -146 LINE",
"100 -131 OFFCURVE",
"70 -78 OFFCURVE",
"70 12 CURVE SMOOTH",
"70 65 OFFCURVE",
"82 127 OFFCURVE",
"99 196 CURVE SMOOTH",
"188 562 LINE",
"91 547 LINE",
"91 543 LINE",
"136 543 OFFCURVE",
"150 537 OFFCURVE",
"142 503 CURVE SMOOTH",
"65 176 LINE SMOOTH",
"53 125 OFFCURVE",
"42 67 OFFCURVE",
"42 13 CURVE SMOOTH"
);
},
{
closed = 1;
nodes = (
"274 735 OFFCURVE",
"305 762 OFFCURVE",
"311 797 CURVE SMOOTH",
"316 832 OFFCURVE",
"292 859 OFFCURVE",
"257 859 CURVE SMOOTH",
"223 859 OFFCURVE",
"192 832 OFFCURVE",
"187 797 CURVE SMOOTH",
"181 762 OFFCURVE",
"205 735 OFFCURVE",
"240 735 CURVE SMOOTH"
);
},
{
closed = 1;
nodes = (
"236 805 OFFCURVE",
"243 811 OFFCURVE",
"250 811 CURVE SMOOTH",
"258 811 OFFCURVE",
"264 805 OFFCURVE",
"262 797 CURVE SMOOTH",
"261 789 OFFCURVE",
"254 783 OFFCURVE",
"247 783 CURVE SMOOTH",
"239 783 OFFCURVE",
"233 789 OFFCURVE",
"235 797 CURVE SMOOTH"
);
},
{
closed = 1;
nodes = (
"229 -145 LINE",
"260 -132 OFFCURVE",
"272 -104 OFFCURVE",
"272 -84 CURVE SMOOTH",
"272 -74 OFFCURVE",
"269 -67 OFFCURVE",
"264 -63 CURVE",
"265 -63 LINE",
"272 -67 OFFCURVE",
"276 -76 OFFCURVE",
"276 -87 CURVE SMOOTH",
"276 -107 OFFCURVE",
"263 -132 OFFCURVE",
"231 -145 CURVE"
);
}
);
width = 207;
}
);
},
{
color = (255,153,254,255);
glyphname = i.9;
layers = (
{
hints = (
{
place = "{46, 74}";
type = Stem;
},
{
place = "{368, 185}";
type = Stem;
},
{
place = "{500, 53}";
type = Stem;
},
{
horizontal = 1;
place = "{-145, 21}";
type = Stem;
},
{
horizontal = 1;
place = "{124, 65}";
type = Stem;
},
{
horizontal = 1;
place = "{735, 124}";
type = Stem;
}
);
layerId = "E49D03F4-B1E6-4C13-A892-FA4C930543A3";
paths = (
{
closed = 1;
nodes = (
"46 -45 OFFCURVE",
"94 -152 OFFCURVE",
"280 -152 CURVE SMOOTH",
"437 -152 OFFCURVE",
"553 -25 OFFCURVE",
"553 81 CURVE SMOOTH",
"553 148 OFFCURVE",
"506 189 OFFCURVE",
"453 189 CURVE SMOOTH",
"402 189 OFFCURVE",
"368 151 OFFCURVE",
"368 107 CURVE SMOOTH",
"368 100 OFFCURVE",
"368 93 OFFCURVE",
"370 86 CURVE",
"379 111 OFFCURVE",
"402 124 OFFCURVE",
"425 124 CURVE SMOOTH",
"459 124 OFFCURVE",
"500 98 OFFCURVE",
"500 34 CURVE SMOOTH",
"500 -56 OFFCURVE",
"423 -146 OFFCURVE",
"288 -146 CURVE SMOOTH",
"159 -146 OFFCURVE",
"114 -92 OFFCURVE",
"114 18 CURVE SMOOTH",
"114 67 OFFCURVE",
"124 127 OFFCURVE",
"142 199 CURVE SMOOTH",
"230 569 LINE",
"199 564 LINE",
"110 196 LINE SMOOTH",
"96 137 OFFCURVE",
"84 85 OFFCURVE",
"84 41 CURVE SMOOTH",
"84 -78 OFFCURVE",
"135 -111 OFFCURVE",
"175 -129 CURVE",
"174 -130 LINE",
"125 -111 OFFCURVE",
"73 -69 OFFCURVE",
"73 45 CURVE SMOOTH",
"73 89 OFFCURVE",
"84 137 OFFCURVE",
"98 196 CURVE SMOOTH",
"187 562 LINE",
"91 547 LINE",
"91 543 LINE",
"136 543 OFFCURVE",
"150 537 OFFCURVE",
"142 503 CURVE SMOOTH",
"71 199 LINE SMOOTH",
"50 110 OFFCURVE",
"46 88 OFFCURVE",
"46 56 CURVE SMOOTH"
);
},
{
closed = 1;
nodes = (
"274 735 OFFCURVE",
"305 762 OFFCURVE",
"311 797 CURVE SMOOTH",
"316 832 OFFCURVE",
"292 859 OFFCURVE",
"257 859 CURVE SMOOTH",
"223 859 OFFCURVE",
"192 832 OFFCURVE",
"187 797 CURVE SMOOTH",
"181 762 OFFCURVE",
"205 735 OFFCURVE",
"240 735 CURVE SMOOTH"
);
},
{
closed = 1;
nodes = (
"489 166 OFFCURVE",
"527 122 OFFCURVE",
"527 61 CURVE SMOOTH",
"527 18 OFFCURVE",
"510 -26 OFFCURVE",
"478 -64 CURVE",
"476 -62 LINE",
"511 -23 OFFCURVE",
"522 19 OFFCURVE",
"522 60 CURVE SMOOTH",
"522 120 OFFCURVE",
"479 158 OFFCURVE",
"430 158 CURVE SMOOTH",
"417 158 OFFCURVE",
"400 154 OFFCURVE",
"394 144 CURVE",
"392 144 LINE",
"401 158 OFFCURVE",
"421 166 OFFCURVE",
"440 166 CURVE SMOOTH"
);
},
{
closed = 1;
nodes = (
"236 805 OFFCURVE",
"243 811 OFFCURVE",
"250 811 CURVE SMOOTH",
"258 811 OFFCURVE",
"264 805 OFFCURVE",
"262 797 CURVE SMOOTH",
"261 789 OFFCURVE",
"254 783 OFFCURVE",
"247 783 CURVE SMOOTH",
"239 783 OFFCURVE",
"233 789 OFFCURVE",
"235 797 CURVE SMOOTH"
);
}
);
width = 593;
}
);
},
{
color = (153,255,154,255);
glyphname = j;
layers = (
{
associatedMasterId = "E49D03F4-B1E6-4C13-A892-FA4C930543A3";
layerId = "3A45E4B8-543F-4BDE-9F07-77ABAA78DA7A";
name = public.background;
paths = (
{
closed = 1;
nodes = (
"241 569 LINE",
"104 547 LINE",
"104 544 LINE",
"141 548 OFFCURVE",
"161 537 OFFCURVE",
"153 503 CURVE SMOOTH"
);
},
{
closed = 1;
nodes = (
"197 762 OFFCURVE",
"221 735 OFFCURVE",
"256 735 CURVE SMOOTH",
"290 735 OFFCURVE",
"321 762 OFFCURVE",
"327 797 CURVE SMOOTH",
"332 832 OFFCURVE",
"308 859 OFFCURVE",
"273 859 CURVE SMOOTH",
"239 859 OFFCURVE",
"208 832 OFFCURVE",
"203 797 CURVE SMOOTH"
);
}
);
width = 211;
},
{
hints = (
{
place = "{-387, 62}";
type = Stem;
},
{
horizontal = 1;
place = "{-388, 198}";
type = Stem;
},
{
horizontal = 1;
place = "{-245, 55}";
type = Stem;
},
{
horizontal = 1;
place = "{735, 124}";
type = Stem;
}
);
layerId = "E49D03F4-B1E6-4C13-A892-FA4C930543A3";
paths = (
{
closed = 1;
nodes = (
"-385 -359 OFFCURVE",
"-322 -388 OFFCURVE",
"-265 -388 CURVE SMOOTH",
"50 -388 OFFCURVE",
"103 -29 OFFCURVE",
"157 205 CURVE SMOOTH",
"241 569 LINE",
"210 564 LINE",
"114 154 LINE SMOOTH",
"61 -71 OFFCURVE",
"9 -286 OFFCURVE",
"-149 -360 CURVE",
"-153 -361 LINE",
"2 -287 OFFCURVE",
"47 -82 OFFCURVE",
"102 154 CURVE SMOOTH",
"197 562 LINE",
"94 547 LINE",
"94 543 LINE",
"147 543 OFFCURVE",
"161 537 OFFCURVE",
"153 503 CURVE SMOOTH",
"74 165 LINE SMOOTH",
"35 -2 OFFCURVE",
"-32 -379 OFFCURVE",
"-243 -379 CURVE SMOOTH",
"-285 -379 OFFCURVE",
"-323 -353 OFFCURVE",
"-323 -308 CURVE SMOOTH",
"-323 -278 OFFCURVE",
"-299 -245 OFFCURVE",
"-263 -245 CURVE SMOOTH",
"-251 -245 OFFCURVE",
"-241 -247 OFFCURVE",
"-231 -258 CURVE",
"-229 -240 OFFCURVE",
"-239 -190 OFFCURVE",
"-297 -190 CURVE SMOOTH",
"-344 -190 OFFCURVE",
"-385 -235 OFFCURVE",
"-385 -286 CURVE SMOOTH"
);
},
{
closed = 1;
nodes = (
"285 735 OFFCURVE",
"316 762 OFFCURVE",
"322 797 CURVE SMOOTH",
"327 832 OFFCURVE",
"303 859 OFFCURVE",
"268 859 CURVE SMOOTH",
"234 859 OFFCURVE",
"203 832 OFFCURVE",
"198 797 CURVE SMOOTH",
"192 762 OFFCURVE",
"216 735 OFFCURVE",
"251 735 CURVE SMOOTH"
);
},
{
closed = 1;
nodes = (
"-273 -215 OFFCURVE",
"-259 -220 OFFCURVE",
"-247 -229 CURVE",
"-248 -230 LINE",
"-258 -222 OFFCURVE",
"-269 -219 OFFCURVE",
"-280 -219 CURVE SMOOTH",
"-322 -219 OFFCURVE",
"-349 -258 OFFCURVE",
"-349 -297 CURVE SMOOTH",
"-349 -342 OFFCURVE",
"-314 -377 OFFCURVE",
"-268 -381 CURVE",
"-268 -382 LINE",
"-321 -378 OFFCURVE",
"-360 -341 OFFCURVE",
"-360 -294 CURVE SMOOTH",
"-360 -253 OFFCURVE",
"-329 -215 OFFCURVE",
"-287 -215 CURVE SMOOTH"
);
},
{
closed = 1;
nodes = (
"247 805 OFFCURVE",
"254 811 OFFCURVE",
"261 811 CURVE SMOOTH",
"269 811 OFFCURVE",
"275 805 OFFCURVE",
"273 797 CURVE SMOOTH",
"272 789 OFFCURVE",
"265 783 OFFCURVE",
"258 783 CURVE SMOOTH",
"250 783 OFFCURVE",
"244 789 OFFCURVE",
"246 797 CURVE SMOOTH"
);
}
);
width = 211;
}
);
unicode = 006A;
},
{
color = (255,153,254,255);
glyphname = j.9;
layers = (
{
hints = (
{
place = "{-434, 42}";
type = Stem;
},
{
place = "{221, 177}";
type = Stem;
},
{
place = "{345, 53}";
type = Stem;
},
{
horizontal = 1;
place = "{-396, 126}";
type = Stem;
},
{
horizontal = 1;
place = "{11, 65}";
type = Stem;
},
{
horizontal = 1;
place = "{735, 124}";
type = Stem;
}
);
layerId = "E49D03F4-B1E6-4C13-A892-FA4C930543A3";
paths = (
{
closed = 1;
nodes = (
"-434 -387 OFFCURVE",
"-349 -396 OFFCURVE",
"-286 -396 CURVE SMOOTH",
"-206 -396 OFFCURVE",
"-140 -364 OFFCURVE",
"-85 -313 CURVE",
"-57 -316 OFFCURVE",
"-26 -318 OFFCURVE",
"7 -318 CURVE SMOOTH",
"200 -318 OFFCURVE",
"398 -182 OFFCURVE",
"398 -27 CURVE SMOOTH",
"398 31 OFFCURVE",
"353 76 OFFCURVE",
"300 76 CURVE SMOOTH",
"244 76 OFFCURVE",
"221 31 OFFCURVE",
"221 -6 CURVE SMOOTH",
"221 -13 OFFCURVE",
"221 -20 OFFCURVE",
"223 -27 CURVE",
"232 -2 OFFCURVE",
"255 11 OFFCURVE",
"278 11 CURVE SMOOTH",
"319 11 OFFCURVE",
"345 -26 OFFCURVE",
"345 -73 CURVE SMOOTH",
"345 -215 OFFCURVE",
"190 -305 OFFCURVE",
"14 -305 CURVE SMOOTH",
"-19 -305 OFFCURVE",
"-48 -303 OFFCURVE",
"-74 -301 CURVE",
"66 -158 OFFCURVE",
"132 118 OFFCURVE",
"181 315 CURVE SMOOTH",
"241 569 LINE",
"210 564 LINE",
"136 256 LINE SMOOTH",
"64 -45 OFFCURVE",
"-30 -301 OFFCURVE",
"-202 -377 CURVE",
"-206 -378 LINE",
"-34 -302 OFFCURVE",
"50 -56 OFFCURVE",
"124 256 CURVE SMOOTH",
"197 562 LINE",
"98 547 LINE",
"98 543 LINE",
"147 543 OFFCURVE",
"161 537 OFFCURVE",
"153 503 CURVE SMOOTH",
"98 275 LINE SMOOTH",
"67 153 OFFCURVE",
"7 -144 OFFCURVE",
"-117 -297 CURVE",
"-196 -286 OFFCURVE",
"-249 -270 OFFCURVE",
"-322 -270 CURVE SMOOTH",
"-363 -270 OFFCURVE",
"-434 -276 OFFCURVE",
"-434 -327 CURVE SMOOTH"
);
},
{
closed = 1;
nodes = (
"-270 -276 OFFCURVE",
"-209 -295 OFFCURVE",
"-126 -307 CURVE",
"-170 -358 OFFCURVE",
"-222 -390 OFFCURVE",
"-284 -390 CURVE SMOOTH",
"-344 -390 OFFCURVE",
"-392 -376 OFFCURVE",
"-392 -329 CURVE SMOOTH",
"-392 -303 OFFCURVE",
"-374 -276 OFFCURVE",
"-318 -276 CURVE SMOOTH"
);
},
{
closed = 1;
nodes = (
"285 735 OFFCURVE",
"316 762 OFFCURVE",
"322 797 CURVE SMOOTH",
"327 832 OFFCURVE",
"303 859 OFFCURVE",
"268 859 CURVE SMOOTH",
"234 859 OFFCURVE",
"203 832 OFFCURVE",
"198 797 CURVE SMOOTH",
"192 762 OFFCURVE",
"216 735 OFFCURVE",
"251 735 CURVE SMOOTH"
);
},
{
closed = 1;
nodes = (
"344 48 OFFCURVE",
"377 10 OFFCURVE",
"377 -39 CURVE SMOOTH",
"377 -89 OFFCURVE",
"361 -129 OFFCURVE",
"334 -165 CURVE",
"333 -162 LINE",
"356 -129 OFFCURVE",
"369 -92 OFFCURVE",
"369 -49 CURVE SMOOTH",
"369 0 OFFCURVE",
"334 40 OFFCURVE",
"285 40 CURVE SMOOTH",
"272 40 OFFCURVE",
"257 36 OFFCURVE",
"250 26 CURVE",
"248 28 LINE",
"255 41 OFFCURVE",
"276 48 OFFCURVE",
"295 48 CURVE SMOOTH"
);
},
{
closed = 1;
nodes = (
"-418 -304 OFFCURVE",
"-397 -277 OFFCURVE",
"-345 -274 CURVE",
"-345 -275 LINE",
"-393 -278 OFFCURVE",
"-410 -306 OFFCURVE",
"-410 -329 CURVE SMOOTH",
"-410 -366 OFFCURVE",
"-378 -383 OFFCURVE",
"-334 -389 CURVE",
"-335 -390 LINE",
"-384 -385 OFFCURVE",
"-418 -368 OFFCURVE",
"-418 -329 CURVE SMOOTH"
);
},
{
closed = 1;
nodes = (
"247 805 OFFCURVE",
"254 811 OFFCURVE",
"261 811 CURVE SMOOTH",
"269 811 OFFCURVE",
"275 805 OFFCURVE",
"273 797 CURVE SMOOTH",
"272 789 OFFCURVE",
"265 783 OFFCURVE",
"258 783 CURVE SMOOTH",
"250 783 OFFCURVE",
"244 789 OFFCURVE",
"246 797 CURVE SMOOTH"
);
}
);
width = 471;
}
);
},
{
color = (255,153,254,255);
glyphname = j.short;
layers = (
{
associatedMasterId = "E49D03F4-B1E6-4C13-A892-FA4C930543A3";
layerId = "3A45E4B8-543F-4BDE-9F07-77ABAA78DA7A";
name = public.background;
paths = (
{
closed = 1;
nodes = (
"77 162 LINE SMOOTH",
"46 24 OFFCURVE",
"-13 -288 OFFCURVE",
"-179 -288 CURVE SMOOTH",
"-221 -288 OFFCURVE",
"-259 -262 OFFCURVE",
"-259 -217 CURVE SMOOTH",
"-259 -187 OFFCURVE",
"-235 -154 OFFCURVE",
"-199 -154 CURVE SMOOTH",
"-187 -154 OFFCURVE",
"-177 -156 OFFCURVE",
"-167 -167 CURVE",
"-165 -149 OFFCURVE",
"-175 -99 OFFCURVE",
"-233 -99 CURVE SMOOTH",
"-280 -99 OFFCURVE",
"-321 -144 OFFCURVE",
"-321 -195 CURVE SMOOTH",
"-321 -268 OFFCURVE",
"-258 -297 OFFCURVE",
"-201 -297 CURVE SMOOTH",
"39 -297 OFFCURVE",
"109 -39 OFFCURVE",
"150 150 CURVE SMOOTH",
"241 569 LINE",
"98 547 LINE",
"98 543 LINE",
"147 543 OFFCURVE",
"161 537 OFFCURVE",
"153 503 CURVE SMOOTH"
);
}
);
width = 226;
},
{
hints = (
{
place = "{-329, 62}";
type = Stem;
},
{
horizontal = 1;
place = "{-276, 198}";
type = Stem;
},
{
horizontal = 1;
place = "{-133, 55}";
type = Stem;
},
{
horizontal = 1;
place = "{735, 124}";
type = Stem;
}
);
layerId = "E49D03F4-B1E6-4C13-A892-FA4C930543A3";
paths = (
{
closed = 1;
nodes = (
"285 735 OFFCURVE",
"316 762 OFFCURVE",
"322 797 CURVE SMOOTH",
"327 832 OFFCURVE",
"303 859 OFFCURVE",
"268 859 CURVE SMOOTH",
"234 859 OFFCURVE",
"203 832 OFFCURVE",
"198 797 CURVE SMOOTH",
"192 762 OFFCURVE",
"216 735 OFFCURVE",
"251 735 CURVE SMOOTH"
);
},
{
closed = 1;
nodes = (
"247 805 OFFCURVE",
"254 811 OFFCURVE",
"261 811 CURVE SMOOTH",
"269 811 OFFCURVE",
"275 805 OFFCURVE",
"273 797 CURVE SMOOTH",
"272 789 OFFCURVE",
"265 783 OFFCURVE",
"258 783 CURVE SMOOTH",
"250 783 OFFCURVE",
"244 789 OFFCURVE",
"246 797 CURVE SMOOTH"
);
},
{
closed = 1;
nodes = (
"-321 -268 OFFCURVE",
"-258 -297 OFFCURVE",
"-201 -297 CURVE SMOOTH",
"66 -297 OFFCURVE",
"111 7 OFFCURVE",
"157 205 CURVE SMOOTH",
"241 569 LINE",
"210 564 LINE",
"114 154 LINE SMOOTH",
"70 -33 OFFCURVE",
"27 -211 OFFCURVE",
"-102 -273 CURVE",
"-106 -274 LINE",
"20 -212 OFFCURVE",
"56 -42 OFFCURVE",
"102 154 CURVE SMOOTH",
"197 562 LINE",
"94 547 LINE",
"94 543 LINE",
"147 543 OFFCURVE",
"161 537 OFFCURVE",
"153 503 CURVE SMOOTH",
"74 165 LINE SMOOTH",
"42 26 OFFCURVE",
"-11 -288 OFFCURVE",
"-179 -288 CURVE SMOOTH",
"-221 -288 OFFCURVE",
"-259 -262 OFFCURVE",
"-259 -217 CURVE SMOOTH",
"-259 -187 OFFCURVE",
"-235 -154 OFFCURVE",
"-199 -154 CURVE SMOOTH",
"-187 -154 OFFCURVE",
"-177 -156 OFFCURVE",
"-167 -167 CURVE",
"-165 -149 OFFCURVE",
"-175 -99 OFFCURVE",
"-233 -99 CURVE SMOOTH",
"-280 -99 OFFCURVE",
"-321 -144 OFFCURVE",
"-321 -195 CURVE SMOOTH"
);
},
{
closed = 1;
nodes = (
"-207 -124 OFFCURVE",
"-193 -129 OFFCURVE",
"-181 -138 CURVE",
"-182 -139 LINE",
"-192 -131 OFFCURVE",
"-203 -128 OFFCURVE",
"-214 -128 CURVE SMOOTH",
"-256 -128 OFFCURVE",
"-283 -167 OFFCURVE",
"-283 -206 CURVE SMOOTH",
"-283 -251 OFFCURVE",
"-248 -286 OFFCURVE",
"-202 -290 CURVE",
"-202 -291 LINE",
"-255 -287 OFFCURVE",
"-294 -250 OFFCURVE",
"-294 -203 CURVE SMOOTH",
"-294 -162 OFFCURVE",
"-263 -124 OFFCURVE",
"-221 -124 CURVE SMOOTH"
);
}
);
width = 226;
}
);
},
{
color = (255,204,153,255);
glyphname = j.ss05;
layers = (
{
associatedMasterId = "E49D03F4-B1E6-4C13-A892-FA4C930543A3";
layerId = "3A45E4B8-543F-4BDE-9F07-77ABAA78DA7A";
name = public.background;
width = 226;
},
{
hints = (
{
place = "{-329, 62}";
type = Stem;
},
{
horizontal = 1;
place = "{-276, 198}";
type = Stem;
},
{
horizontal = 1;
place = "{-133, 55}";
type = Stem;
},
{
horizontal = 1;
place = "{735, 124}";
type = Stem;
}
);
layerId = "E49D03F4-B1E6-4C13-A892-FA4C930543A3";
paths = (
{
closed = 1;
nodes = (
"25 -215 OFFCURVE",
"112 -20 OFFCURVE",
"150 150 CURVE SMOOTH",
"241 569 LINE",
"211 564 LINE",
"119 154 LINE SMOOTH",
"78 -30 OFFCURVE",
"9 -185 OFFCURVE",
"-90 -264 CURVE",
"-94 -265 LINE",
"3 -186 OFFCURVE",
"64 -39 OFFCURVE",
"107 154 CURVE SMOOTH",
"198 563 LINE",
"95 547 LINE",
"95 543 LINE",
"147 543 OFFCURVE",
"161 537 OFFCURVE",
"153 503 CURVE SMOOTH",
"77 162 LINE SMOOTH",
"49 35 OFFCURVE",
"18 -194 OFFCURVE",
"-154 -308 CURVE",
"-155 -312 OFFCURVE",
"-153 -313 OFFCURVE",
"-150 -313 CURVE"
);
},
{
closed = 1;
nodes = (
"280 735 OFFCURVE",
"311 762 OFFCURVE",
"317 797 CURVE SMOOTH",
"322 832 OFFCURVE",
"298 859 OFFCURVE",
"263 859 CURVE SMOOTH",
"229 859 OFFCURVE",
"198 832 OFFCURVE",
"193 797 CURVE SMOOTH",
"187 762 OFFCURVE",
"211 735 OFFCURVE",
"246 735 CURVE SMOOTH"
);
},
{
closed = 1;
nodes = (
"242 805 OFFCURVE",
"249 811 OFFCURVE",
"256 811 CURVE SMOOTH",
"264 811 OFFCURVE",
"270 805 OFFCURVE",
"268 797 CURVE SMOOTH",
"267 789 OFFCURVE",
"260 783 OFFCURVE",
"253 783 CURVE SMOOTH",
"245 783 OFFCURVE",
"239 789 OFFCURVE",
"241 797 CURVE SMOOTH"
);
}
);
width = 226;
}
);
},
{
color = (153,255,154,255);
glyphname = k;
layers = (
{
hints = (
{
place = "{439, 70}";
type = Stem;
},
{
place = "{876, 164}";
type = Stem;
},
{
place = "{991, 49}";
type = Stem;
},
{
horizontal = 1;
place = "{-96, 60}";
type = Stem;
},
{
horizontal = 1;
place = "{387, 58}";
type = Stem;
},
{
horizontal = 1;
place = "{387, 191}";
type = Stem;
},
{
horizontal = 1;
place = "{920, -20}";
target = down;
type = TopGhost;
}
);
layerId = "E49D03F4-B1E6-4C13-A892-FA4C930543A3";
paths = (
{
closed = 1;
nodes = (
"177 0 LINE",
"178 3 LINE",
"163 5 LINE SMOOTH",
"129 10 OFFCURVE",
"113 14 OFFCURVE",
"120 44 CURVE SMOOTH",
"188 334 LINE",
"227 312 OFFCURVE",
"261 263 OFFCURVE",
"292 193 CURVE SMOOTH",
"331 102 OFFCURVE",
"358 -34 OFFCURVE",
"398 -115 CURVE SMOOTH",
"473 -267 OFFCURVE",
"576 -361 OFFCURVE",
"752 -361 CURVE SMOOTH",
"864 -361 OFFCURVE",
"991 -290 OFFCURVE",
"991 -179 CURVE SMOOTH",
"991 -125 OFFCURVE",
"952 -84 OFFCURVE",
"903 -84 CURVE SMOOTH",
"851 -84 OFFCURVE",
"827 -125 OFFCURVE",
"827 -160 CURVE SMOOTH",
"827 -166 OFFCURVE",
"827 -173 OFFCURVE",
"829 -179 CURVE",
"837 -156 OFFCURVE",
"858 -144 OFFCURVE",
"880 -144 CURVE SMOOTH",
"918 -144 OFFCURVE",
"942 -178 OFFCURVE",
"942 -222 CURVE SMOOTH",
"942 -303 OFFCURVE",
"852 -353 OFFCURVE",
"767 -353 CURVE SMOOTH",
"490 -353 OFFCURVE",
"394 254 OFFCURVE",
"189 338 CURVE",
"190 343 LINE",
"213 419 OFFCURVE",
"271 561 OFFCURVE",
"376 561 CURVE SMOOTH",
"414 561 OFFCURVE",
"433 535 OFFCURVE",
"433 505 CURVE SMOOTH",
"433 477 OFFCURVE",
"410 445 OFFCURVE",
"375 445 CURVE SMOOTH",
"362 445 OFFCURVE",
"351 448 OFFCURVE",
"341 460 CURVE",
"338 441 OFFCURVE",
"348 387 OFFCURVE",
"404 387 CURVE SMOOTH",
"454 387 OFFCURVE",
"503 430 OFFCURVE",
"503 489 CURVE SMOOTH",
"503 544 OFFCURVE",
"455 578 OFFCURVE",
"408 578 CURVE SMOOTH",
"293 578 OFFCURVE",
"230 477 OFFCURVE",
"191 364 CURVE",
"186 364 LINE",
"323 910 LINE",
"290 905 LINE",
"80 0 LINE"
);
},
{
closed = 1;
nodes = (
"-11 0 LINE",
"67 0 LINE",
"277 904 LINE",
"166 888 LINE",
"166 884 LINE",
"200 884 LINE SMOOTH",
"234 884 OFFCURVE",
"242 878 OFFCURVE",
"232 836 CURVE SMOOTH",
"47 44 LINE SMOOTH",
"40 13 OFFCURVE",
"31 12 OFFCURVE",
"-11 3 CURVE"
);
},
{
closed = 1;
nodes = (
"691 -348 LINE",
"565 -321 OFFCURVE",
"486 -217 OFFCURVE",
"429 -96 CURVE SMOOTH",
"377 14 OFFCURVE",
"336 172 OFFCURVE",
"267 262 CURVE",
"267 264 LINE",
"311 206 OFFCURVE",
"353 119 OFFCURVE",
"388 32 CURVE SMOOTH",
"404 -8 OFFCURVE",
"422 -48 OFFCURVE",
"440 -88 CURVE SMOOTH",
"496 -210 OFFCURVE",
"567 -319 OFFCURVE",
"691 -346 CURVE"
);
},
{
closed = 1;
nodes = (
"902 -312 LINE",
"941 -283 OFFCURVE",
"964 -244 OFFCURVE",
"964 -206 CURVE SMOOTH",
"964 -163 OFFCURVE",
"930 -116 OFFCURVE",
"886 -116 CURVE SMOOTH",
"873 -116 OFFCURVE",
"859 -120 OFFCURVE",
"847 -128 CURVE",
"847 -126 LINE",
"860 -115 OFFCURVE",
"876 -109 OFFCURVE",
"893 -109 CURVE SMOOTH",
"940 -109 OFFCURVE",
"970 -153 OFFCURVE",
"970 -196 CURVE SMOOTH",
"970 -245 OFFCURVE",
"939 -288 OFFCURVE",
"902 -314 CURVE"
);
},
{
closed = 1;
nodes = (
"392 568 LINE",
"439 568 OFFCURVE",
"473 536 OFFCURVE",
"473 492 CURVE SMOOTH",
"473 449 OFFCURVE",
"441 415 OFFCURVE",
"400 415 CURVE SMOOTH",
"386 415 OFFCURVE",
"374 419 OFFCURVE",
"365 427 CURVE",
"365 429 LINE",
"374 422 OFFCURVE",
"386 418 OFFCURVE",
"398 418 CURVE SMOOTH",
"432 418 OFFCURVE",
"463 457 OFFCURVE",
"463 500 CURVE SMOOTH",
"463 540 OFFCURVE",
"434 567 OFFCURVE",
"391 567 CURVE"
);
}
);
width = 465;
}
);
leftKerningGroup = hporizq;
unicode = 006B;
},
{
color = (255,204,153,255);
glyphname = k.3;
layers = (
{
hints = (
{
place = "{439, 70}";
type = Stem;
},
{
place = "{876, 164}";
type = Stem;
},
{
place = "{991, 49}";
type = Stem;
},
{
horizontal = 1;
place = "{-96, 60}";
type = Stem;
},
{
horizontal = 1;
place = "{387, 58}";
type = Stem;
},
{
horizontal = 1;
place = "{387, 191}";
type = Stem;
},
{
horizontal = 1;
place = "{920, -20}";
target = down;
type = TopGhost;
}
);
layerId = "E49D03F4-B1E6-4C13-A892-FA4C930543A3";
paths = (
{
closed = 1;
nodes = (
"-213 690 OFFCURVE",
"-179 653 OFFCURVE",
"-131 653 CURVE SMOOTH",
"-91 653 OFFCURVE",
"-60 681 OFFCURVE",
"-60 717 CURVE SMOOTH",
"-60 723 OFFCURVE",
"-60 727 OFFCURVE",
"-61 734 CURVE",
"-69 715 OFFCURVE",
"-88 704 OFFCURVE",
"-109 704 CURVE SMOOTH",
"-147 704 OFFCURVE",
"-173 731 OFFCURVE",
"-173 771 CURVE SMOOTH",
"-173 844 OFFCURVE",
"-99 905 OFFCURVE",
"-10 905 CURVE SMOOTH",
"77 905 OFFCURVE",
"172 848 OFFCURVE",
"273 795 CURVE",
"247 768 OFFCURVE",
"225 737 OFFCURVE",
"208 702 CURVE SMOOTH",
"161 603 OFFCURVE",
"146 494 OFFCURVE",
"122 366 CURVE",
"47 44 LINE SMOOTH",
"40 13 OFFCURVE",
"31 12 OFFCURVE",
"-11 3 CURVE",
"-11 0 LINE",
"67 0 LINE",
"153 370 LINE SMOOTH",
"189 524 OFFCURVE",
"193 680 OFFCURVE",
"297 792 CURVE SMOOTH",
"341 838 OFFCURVE",
"397 879 OFFCURVE",
"457 892 CURVE",
"468 893 LINE",
"408 881 OFFCURVE",
"349 841 OFFCURVE",
"303 792 CURVE SMOOTH",
"195 675 OFFCURVE",
"198 507 OFFCURVE",
"166 370 CURVE SMOOTH",
"80 0 LINE",
"177 0 LINE",
"178 3 LINE",
"163 5 LINE SMOOTH",
"129 10 OFFCURVE",
"113 14 OFFCURVE",
"120 44 CURVE SMOOTH",
"188 334 LINE",
"227 312 OFFCURVE",
"261 263 OFFCURVE",
"292 193 CURVE SMOOTH",
"331 102 OFFCURVE",
"358 -34 OFFCURVE",
"398 -115 CURVE SMOOTH",
"473 -267 OFFCURVE",
"576 -361 OFFCURVE",
"752 -361 CURVE SMOOTH",
"864 -361 OFFCURVE",
"991 -290 OFFCURVE",
"991 -179 CURVE SMOOTH",
"991 -125 OFFCURVE",
"952 -84 OFFCURVE",
"903 -84 CURVE SMOOTH",
"851 -84 OFFCURVE",
"827 -125 OFFCURVE",
"827 -160 CURVE SMOOTH",
"827 -166 OFFCURVE",
"827 -173 OFFCURVE",
"829 -179 CURVE",
"837 -156 OFFCURVE",
"858 -144 OFFCURVE",
"880 -144 CURVE SMOOTH",
"918 -144 OFFCURVE",
"942 -178 OFFCURVE",
"942 -222 CURVE SMOOTH",
"942 -303 OFFCURVE",
"852 -353 OFFCURVE",
"767 -353 CURVE SMOOTH",
"490 -353 OFFCURVE",
"394 254 OFFCURVE",
"189 338 CURVE",
"190 343 LINE",
"213 419 OFFCURVE",
"271 561 OFFCURVE",
"376 561 CURVE SMOOTH",
"414 561 OFFCURVE",
"433 535 OFFCURVE",
"433 505 CURVE SMOOTH",
"433 477 OFFCURVE",
"410 445 OFFCURVE",
"375 445 CURVE SMOOTH",
"362 445 OFFCURVE",
"351 448 OFFCURVE",
"341 460 CURVE",
"338 441 OFFCURVE",
"348 387 OFFCURVE",
"404 387 CURVE SMOOTH",
"454 387 OFFCURVE",
"503 430 OFFCURVE",
"503 489 CURVE SMOOTH",
"503 544 OFFCURVE",
"455 578 OFFCURVE",
"408 578 CURVE SMOOTH",
"293 578 OFFCURVE",
"230 477 OFFCURVE",
"191 364 CURVE",
"186 364 LINE",
"196 395 LINE",
"219 493 OFFCURVE",
"224 578 OFFCURVE",
"274 697 CURVE SMOOTH",
"285 724 OFFCURVE",
"299 750 OFFCURVE",
"316 773 CURVE",
"386 738 OFFCURVE",
"458 710 OFFCURVE",
"532 710 CURVE SMOOTH",
"637 710 OFFCURVE",
"729 761 OFFCURVE",
"729 820 CURVE SMOOTH",
"729 872 OFFCURVE",
"659 909 OFFCURVE",
"560 909 CURVE SMOOTH",
"464 909 OFFCURVE",
"370 879 OFFCURVE",
"299 819 CURVE",
"223 871 OFFCURVE",
"148 923 OFFCURVE",
"50 923 CURVE SMOOTH",
"-96 923 OFFCURVE",
"-213 842 OFFCURVE",
"-213 742 CURVE SMOOTH"
);
},
{
closed = 1;
nodes = (
"627 903 OFFCURVE",
"675 868 OFFCURVE",
"675 818 CURVE SMOOTH",
"675 762 OFFCURVE",
"619 715 OFFCURVE",
"551 715 CURVE SMOOTH",
"465 715 OFFCURVE",
"398 753 OFFCURVE",
"333 796 CURVE",
"388 861 OFFCURVE",
"464 903 OFFCURVE",
"557 903 CURVE SMOOTH"
);
},
{
closed = 1;
nodes = (
"-194 783 OFFCURVE",
"-184 812 OFFCURVE",
"-156 842 CURVE",
"-155 841 LINE",
"-180 812 OFFCURVE",
"-188 790 OFFCURVE",
"-188 760 CURVE SMOOTH",
"-188 713 OFFCURVE",
"-156 683 OFFCURVE",
"-119 683 CURVE SMOOTH",
"-104 683 OFFCURVE",
"-89 688 OFFCURVE",
"-81 700 CURVE",
"-79 700 LINE",
"-87 686 OFFCURVE",
"-105 677 OFFCURVE",
"-125 677 CURVE SMOOTH",
"-161 677 OFFCURVE",
"-194 698 OFFCURVE",
"-194 751 CURVE SMOOTH"
);
},
{
closed = 1;
nodes = (
"613 901 LINE",
"664 889 OFFCURVE",
"708 865 OFFCURVE",
"708 818 CURVE SMOOTH",
"708 789 OFFCURVE",
"680 748 OFFCURVE",
"615 725 CURVE",
"617 727 LINE",
"676 749 OFFCURVE",
"698 789 OFFCURVE",
"698 818 CURVE SMOOTH",
"698 863 OFFCURVE",
"660 887 OFFCURVE",
"617 899 CURVE"
);
},
{
closed = 1;
nodes = (
"37 914 LINE",
"113 914 OFFCURVE",
"203 864 OFFCURVE",
"287 809 CURVE",
"283 806 LINE",
"199 859 OFFCURVE",
"113 912 OFFCURVE",
"37 912 CURVE"
);
},
{
closed = 1;
nodes = (
"328 784 LINE",
"363 765 OFFCURVE",
"400 744 OFFCURVE",
"437 733 CURVE",
"437 731 LINE",
"412 737 OFFCURVE",
"374 754 OFFCURVE",
"325 781 CURVE"
);
},
{
closed = 1;
nodes = (
"691 -348 LINE",
"565 -321 OFFCURVE",
"486 -217 OFFCURVE",
"429 -96 CURVE SMOOTH",
"377 14 OFFCURVE",
"336 172 OFFCURVE",
"267 262 CURVE",
"267 264 LINE",
"311 206 OFFCURVE",
"353 119 OFFCURVE",
"388 32 CURVE SMOOTH",
"404 -8 OFFCURVE",
"422 -48 OFFCURVE",
"440 -88 CURVE SMOOTH",
"496 -210 OFFCURVE",
"567 -319 OFFCURVE",
"691 -346 CURVE"
);
},
{
closed = 1;
nodes = (
"902 -312 LINE",
"941 -283 OFFCURVE",
"964 -244 OFFCURVE",
"964 -206 CURVE SMOOTH",
"964 -163 OFFCURVE",
"930 -116 OFFCURVE",
"886 -116 CURVE SMOOTH",
"873 -116 OFFCURVE",
"859 -120 OFFCURVE",
"847 -128 CURVE",
"847 -126 LINE",
"860 -115 OFFCURVE",
"876 -109 OFFCURVE",
"893 -109 CURVE SMOOTH",
"940 -109 OFFCURVE",
"970 -153 OFFCURVE",
"970 -196 CURVE SMOOTH",
"970 -245 OFFCURVE",
"939 -288 OFFCURVE",
"902 -314 CURVE"
);
},
{
closed = 1;
nodes = (
"392 568 LINE",
"439 568 OFFCURVE",
"473 536 OFFCURVE",
"473 492 CURVE SMOOTH",
"473 449 OFFCURVE",
"441 415 OFFCURVE",
"400 415 CURVE SMOOTH",
"386 415 OFFCURVE",
"374 419 OFFCURVE",
"365 427 CURVE",
"365 429 LINE",
"374 422 OFFCURVE",
"386 418 OFFCURVE",
"398 418 CURVE SMOOTH",
"432 418 OFFCURVE",
"463 457 OFFCURVE",
"463 500 CURVE SMOOTH",
"463 540 OFFCURVE",
"434 567 OFFCURVE",
"391 567 CURVE"
);
}
);
width = 465;
}
);
leftKerningGroup = hporizq;
},
{
color = (255,153,254,255);
glyphname = k.9;
layers = (
{
hints = (
{
place = "{346, 52}";
type = Stem;
},
{
place = "{346, 170}";
type = Stem;
},
{
place = "{754, 58}";
type = Stem;
},
{
place = "{874, 164}";
type = Stem;
},
{
place = "{989, 49}";
type = Stem;
},
{
horizontal = 1;
place = "{-149, 60}";
type = Stem;
},
{
horizontal = 1;
place = "{340, 57}";
type = Stem;
},
{
horizontal = 1;
place = "{920, -20}";
target = down;
type = TopGhost;
}
);
layerId = "E49D03F4-B1E6-4C13-A892-FA4C930543A3";
paths = (
{
closed = 1;
nodes = (
"177 0 LINE",
"178 3 LINE",
"163 5 LINE SMOOTH",
"129 10 OFFCURVE",
"113 14 OFFCURVE",
"120 44 CURVE SMOOTH",
"178 285 LINE",
"220 266 OFFCURVE",
"258 214 OFFCURVE",
"290 140 CURVE SMOOTH",
"329 49 OFFCURVE",
"356 -87 OFFCURVE",
"396 -168 CURVE SMOOTH",
"485 -349 OFFCURVE",
"591 -406 OFFCURVE",
"737 -414 CURVE SMOOTH",
"875 -421 OFFCURVE",
"1038 -329 OFFCURVE",
"1038 -184 CURVE SMOOTH",
"1038 -130 OFFCURVE",
"996 -89 OFFCURVE",
"947 -89 CURVE SMOOTH",
"895 -89 OFFCURVE",
"874 -130 OFFCURVE",
"874 -165 CURVE SMOOTH",
"874 -171 OFFCURVE",
"874 -178 OFFCURVE",
"876 -184 CURVE",
"884 -161 OFFCURVE",
"905 -149 OFFCURVE",
"927 -149 CURVE SMOOTH",
"965 -149 OFFCURVE",
"989 -183 OFFCURVE",
"989 -227 CURVE SMOOTH",
"989 -342 OFFCURVE",
"867 -412 OFFCURVE",
"756 -409 CURVE SMOOTH",
"483 -401 OFFCURVE",
"385 218 OFFCURVE",
"180 288 CURVE",
"249 500 OFFCURVE",
"399 581 OFFCURVE",
"519 581 CURVE SMOOTH",
"668 581 OFFCURVE",
"754 456 OFFCURVE",
"754 337 CURVE SMOOTH",
"754 221 OFFCURVE",
"677 109 OFFCURVE",
"554 109 CURVE SMOOTH",
"494 109 OFFCURVE",
"450 136 OFFCURVE",
"450 199 CURVE SMOOTH",
"450 250 OFFCURVE",
"483 278 OFFCURVE",
"516 278 CURVE SMOOTH",
"532 278 OFFCURVE",
"549 271 OFFCURVE",
"553 253 CURVE",
"561 297 OFFCURVE",
"537 334 OFFCURVE",
"487 334 CURVE SMOOTH",
"434 334 OFFCURVE",
"402 284 OFFCURVE",
"402 231 CURVE SMOOTH",
"402 154 OFFCURVE",
"482 103 OFFCURVE",
"554 103 CURVE SMOOTH",
"704 103 OFFCURVE",
"812 227 OFFCURVE",
"812 341 CURVE SMOOTH",
"812 441 OFFCURVE",
"739 594 OFFCURVE",
"544 594 CURVE SMOOTH",
"386 594 OFFCURVE",
"256 493 OFFCURVE",
"189 336 CURVE",
"186 336 LINE",
"323 910 LINE",
"291 905 LINE",
"80 0 LINE"
);
},
{
closed = 1;
nodes = (
"-11 0 LINE",
"67 0 LINE",
"277 904 LINE",
"166 888 LINE",
"166 884 LINE",
"200 884 LINE SMOOTH",
"234 884 OFFCURVE",
"242 878 OFFCURVE",
"232 836 CURVE SMOOTH",
"47 44 LINE SMOOTH",
"40 13 OFFCURVE",
"31 12 OFFCURVE",
"-11 3 CURVE"
);
},
{
closed = 1;
nodes = (
"393 -48 OFFCURVE",
"412 -88 OFFCURVE",
"429 -128 CURVE SMOOTH",
"484 -255 OFFCURVE",
"559 -362 OFFCURVE",
"677 -396 CURVE",
"677 -398 LINE",
"557 -364 OFFCURVE",
"474 -262 OFFCURVE",
"418 -136 CURVE SMOOTH",
"369 -25 OFFCURVE",
"325 132 OFFCURVE",
"256 222 CURVE",
"256 224 LINE",
"300 166 OFFCURVE",
"342 79 OFFCURVE",
"377 -8 CURVE SMOOTH"
);
},
{
closed = 1;
nodes = (
"895 -131 LINE",
"908 -120 OFFCURVE",
"924 -114 OFFCURVE",
"941 -114 CURVE SMOOTH",
"988 -114 OFFCURVE",
"1018 -158 OFFCURVE",
"1018 -201 CURVE SMOOTH",
"1018 -257 OFFCURVE",
"989 -305 OFFCURVE",
"955 -335 CURVE",
"955 -333 LINE",
"991 -299 OFFCURVE",
"1012 -255 OFFCURVE",
"1012 -211 CURVE SMOOTH",
"1012 -168 OFFCURVE",
"978 -121 OFFCURVE",
"934 -121 CURVE SMOOTH",
"921 -121 OFFCURVE",
"907 -125 OFFCURVE",
"895 -133 CURVE"
);
},
{
closed = 1;
nodes = (
"421 271 OFFCURVE",
"455 308 OFFCURVE",
"499 308 CURVE SMOOTH",
"513 308 OFFCURVE",
"525 304 OFFCURVE",
"534 296 CURVE",
"534 294 LINE",
"525 301 OFFCURVE",
"513 305 OFFCURVE",
"501 305 CURVE SMOOTH",
"465 305 OFFCURVE",
"431 263 OFFCURVE",
"431 215 CURVE SMOOTH",
"431 168 OFFCURVE",
"450 149 OFFCURVE",
"468 135 CURVE",
"467 134 LINE",
"446 149 OFFCURVE",
"421 172 OFFCURVE",
"421 223 CURVE SMOOTH"
);
},
{
closed = 1;
nodes = (
"594 580 LINE",
"712 552 OFFCURVE",
"788 464 OFFCURVE",
"788 341 CURVE SMOOTH",
"788 265 OFFCURVE",
"737 164 OFFCURVE",
"645 124 CURVE",
"645 126 LINE",
"731 165 OFFCURVE",
"778 264 OFFCURVE",
"778 337 CURVE SMOOTH",
"778 460 OFFCURVE",
"708 549 OFFCURVE",
"594 579 CURVE"
);
}
);
width = 844;
}
);
leftKerningGroup = hporizq;
},
{
color = (255,153,254,255);
glyphname = k.1;
layers = (
{
hints = (
{
place = "{447, 70}";
type = Stem;
},
{
horizontal = 1;
place = "{387, 58}";
type = Stem;
},
{
horizontal = 1;
place = "{387, 191}";
type = Stem;
},
{
horizontal = 1;
place = "{920, -20}";
target = down;
type = TopGhost;
}
);
layerId = "E49D03F4-B1E6-4C13-A892-FA4C930543A3";
paths = (
{
closed = 1;
nodes = (
"177 0 LINE",
"178 3 LINE",
"163 5 LINE SMOOTH",
"129 10 OFFCURVE",
"113 14 OFFCURVE",
"120 44 CURVE SMOOTH",
"187 331 LINE",
"189 339 LINE",
"222 350 OFFCURVE",
"255 308 OFFCURVE",
"270 242 CURVE SMOOTH",
"306 88 LINE SMOOTH",
"329 -12 OFFCURVE",
"426 -45 OFFCURVE",
"510 14 CURVE",
"507 16 LINE",
"464 -17 OFFCURVE",
"409 11 OFFCURVE",
"375 127 CURVE SMOOTH",
"351 210 LINE SMOOTH",
"327 293 OFFCURVE",
"260 368 OFFCURVE",
"190 343 CURVE",
"213 419 OFFCURVE",
"271 561 OFFCURVE",
"376 561 CURVE SMOOTH",
"414 561 OFFCURVE",
"433 535 OFFCURVE",
"433 505 CURVE SMOOTH",
"433 477 OFFCURVE",
"410 445 OFFCURVE",
"375 445 CURVE SMOOTH",
"362 445 OFFCURVE",
"351 448 OFFCURVE",
"341 460 CURVE",
"338 441 OFFCURVE",
"348 387 OFFCURVE",
"404 387 CURVE SMOOTH",
"454 387 OFFCURVE",
"503 430 OFFCURVE",
"503 489 CURVE SMOOTH",
"503 544 OFFCURVE",
"455 578 OFFCURVE",
"408 578 CURVE SMOOTH",
"293 578 OFFCURVE",
"230 477 OFFCURVE",
"191 364 CURVE",
"186 364 LINE",
"323 910 LINE",
"290 905 LINE",
"80 0 LINE"
);
},
{
closed = 1;
nodes = (
"67 0 LINE",
"277 904 LINE",
"166 888 LINE",
"166 884 LINE",
"200 884 LINE SMOOTH",
"234 884 OFFCURVE",
"242 878 OFFCURVE",
"232 836 CURVE SMOOTH",
"47 44 LINE SMOOTH",
"40 13 OFFCURVE",
"31 12 OFFCURVE",
"-11 3 CURVE",
"-11 0 LINE"
);
},
{
closed = 1;
nodes = (
"392 568 LINE",
"439 568 OFFCURVE",
"473 536 OFFCURVE",
"473 492 CURVE SMOOTH",
"473 449 OFFCURVE",
"441 415 OFFCURVE",
"400 415 CURVE SMOOTH",
"386 415 OFFCURVE",
"374 419 OFFCURVE",
"365 427 CURVE",
"365 429 LINE",
"374 422 OFFCURVE",
"386 418 OFFCURVE",
"398 418 CURVE SMOOTH",
"432 418 OFFCURVE",
"463 457 OFFCURVE",
"463 500 CURVE SMOOTH",
"463 540 OFFCURVE",
"434 567 OFFCURVE",
"391 567 CURVE"
);
},
{
closed = 1;
nodes = (
"241 332 LINE",
"279 318 OFFCURVE",
"308 264 OFFCURVE",
"316 230 CURVE SMOOTH",
"346 108 LINE SMOOTH",
"364 36 OFFCURVE",
"401 -10 OFFCURVE",
"462 -2 CURVE",
"462 -4 LINE",
"400 -12 OFFCURVE",
"352 33 OFFCURVE",
"334 105 CURVE SMOOTH",
"304 227 LINE SMOOTH",
"296 261 OFFCURVE",
"277 316 OFFCURVE",
"241 330 CURVE"
);
}
);
width = 471;
}
);
leftKerningGroup = hporizq;
},
{
color = (255,153,254,255);
glyphname = k.2;
layers = (
{
hints = (
{
place = "{431, 70}";
type = Stem;
},
{
place = "{509, 58}";
type = Stem;
},
{
place = "{868, 164}";
type = Stem;
},
{
place = "{983, 49}";
type = Stem;
},
{
horizontal = 1;
place = "{-96, 60}";
type = Stem;
},
{
horizontal = 1;
place = "{387, 58}";
type = Stem;
},
{
horizontal = 1;
place = "{387, 191}";
type = Stem;
},
{
horizontal = 1;
place = "{765, 51}";
type = Stem;
},
{
horizontal = 1;
place = "{765, 168}";
type = Stem;
}
);
layerId = "E49D03F4-B1E6-4C13-A892-FA4C930543A3";
paths = (
{
closed = 1;
nodes = (
"-11 0 LINE",
"68 0 LINE",
"152 370 LINE SMOOTH",
"177 481 OFFCURVE",
"185 583 OFFCURVE",
"220 703 CURVE SMOOTH",
"246 793 OFFCURVE",
"310 874 OFFCURVE",
"368 908 CURVE",
"373 909 LINE",
"320 882 OFFCURVE",
"253 801 OFFCURVE",
"227 702 CURVE SMOOTH",
"196 583 OFFCURVE",
"189 478 OFFCURVE",
"164 370 CURVE SMOOTH",
"79 0 LINE",
"177 0 LINE",
"178 3 LINE",
"163 5 LINE SMOOTH",
"129 10 OFFCURVE",
"113 14 OFFCURVE",
"120 44 CURVE SMOOTH",
"187 334 LINE",
"227 312 OFFCURVE",
"261 263 OFFCURVE",
"292 193 CURVE SMOOTH",
"331 102 OFFCURVE",
"358 -34 OFFCURVE",
"398 -115 CURVE SMOOTH",
"473 -267 OFFCURVE",
"576 -361 OFFCURVE",
"752 -361 CURVE SMOOTH",
"864 -361 OFFCURVE",
"991 -290 OFFCURVE",
"991 -179 CURVE SMOOTH",
"991 -125 OFFCURVE",
"952 -84 OFFCURVE",
"903 -84 CURVE SMOOTH",
"851 -84 OFFCURVE",
"827 -125 OFFCURVE",
"827 -160 CURVE SMOOTH",
"827 -166 OFFCURVE",
"827 -173 OFFCURVE",
"829 -179 CURVE",
"837 -156 OFFCURVE",
"858 -144 OFFCURVE",
"880 -144 CURVE SMOOTH",
"918 -144 OFFCURVE",
"942 -178 OFFCURVE",
"942 -222 CURVE SMOOTH",
"942 -303 OFFCURVE",
"852 -353 OFFCURVE",
"767 -353 CURVE SMOOTH",
"490 -353 OFFCURVE",
"393 255 OFFCURVE",
"189 338 CURVE",
"198 379 LINE",
"227 455 OFFCURVE",
"287 561 OFFCURVE",
"374 561 CURVE SMOOTH",
"412 561 OFFCURVE",
"431 535 OFFCURVE",
"431 505 CURVE SMOOTH",
"431 477 OFFCURVE",
"408 445 OFFCURVE",
"373 445 CURVE SMOOTH",
"360 445 OFFCURVE",
"349 448 OFFCURVE",
"339 460 CURVE",
"336 441 OFFCURVE",
"346 387 OFFCURVE",
"402 387 CURVE SMOOTH",
"452 387 OFFCURVE",
"501 430 OFFCURVE",
"501 489 CURVE SMOOTH",
"501 544 OFFCURVE",
"453 578 OFFCURVE",
"406 578 CURVE SMOOTH",
"298 578 OFFCURVE",
"236 482 OFFCURVE",
"201 395 CURVE",
"197 395 LINE",
"223 498 OFFCURVE",
"222 577 OFFCURVE",
"255 702 CURVE SMOOTH",
"293 847 OFFCURVE",
"376 927 OFFCURVE",
"443 927 CURVE SMOOTH",
"480 927 OFFCURVE",
"506 905 OFFCURVE",
"506 875 CURVE SMOOTH",
"506 844 OFFCURVE",
"480 816 OFFCURVE",
"450 816 CURVE SMOOTH",
"436 816 OFFCURVE",
"428 820 OFFCURVE",
"420 829 CURVE",
"416 795 OFFCURVE",
"443 765 OFFCURVE",
"476 765 CURVE SMOOTH",
"521 765 OFFCURVE",
"559 805 OFFCURVE",
"559 851 CURVE SMOOTH",
"559 899 OFFCURVE",
"514 933 OFFCURVE",
"447 933 CURVE SMOOTH",
"344 933 OFFCURVE",
"236 837 OFFCURVE",
"192 705 CURVE SMOOTH",
"157 601 OFFCURVE",
"150 493 OFFCURVE",
"121 366 CURVE SMOOTH",
"47 44 LINE SMOOTH",
"40 13 OFFCURVE",
"31 12 OFFCURVE",
"-11 3 CURVE"
);
},
{
closed = 1;
nodes = (
"404 -8 OFFCURVE",
"422 -48 OFFCURVE",
"440 -88 CURVE SMOOTH",
"496 -210 OFFCURVE",
"567 -319 OFFCURVE",
"691 -346 CURVE",
"691 -348 LINE",
"565 -321 OFFCURVE",
"486 -217 OFFCURVE",
"429 -96 CURVE SMOOTH",
"377 14 OFFCURVE",
"336 172 OFFCURVE",
"267 262 CURVE",
"267 264 LINE",
"311 206 OFFCURVE",
"353 119 OFFCURVE",
"388 32 CURVE SMOOTH"
);
},
{
closed = 1;
nodes = (
"940 -109 OFFCURVE",
"970 -153 OFFCURVE",
"970 -196 CURVE SMOOTH",
"970 -245 OFFCURVE",
"939 -288 OFFCURVE",
"902 -314 CURVE",
"902 -312 LINE",
"941 -283 OFFCURVE",
"964 -244 OFFCURVE",
"964 -206 CURVE SMOOTH",
"964 -163 OFFCURVE",
"930 -116 OFFCURVE",
"886 -116 CURVE SMOOTH",
"873 -116 OFFCURVE",
"859 -120 OFFCURVE",
"847 -128 CURVE",
"847 -126 LINE",
"860 -115 OFFCURVE",
"876 -109 OFFCURVE",
"893 -109 CURVE SMOOTH"
);
},
{
closed = 1;
nodes = (
"432 418 OFFCURVE",
"463 457 OFFCURVE",
"463 500 CURVE SMOOTH",
"463 540 OFFCURVE",
"434 567 OFFCURVE",
"391 567 CURVE",
"392 568 LINE",
"439 568 OFFCURVE",
"473 536 OFFCURVE",
"473 492 CURVE SMOOTH",
"473 449 OFFCURVE",
"441 415 OFFCURVE",
"400 415 CURVE SMOOTH",
"386 415 OFFCURVE",
"374 419 OFFCURVE",
"365 427 CURVE",
"365 429 LINE",
"374 422 OFFCURVE",
"386 418 OFFCURVE",
"398 418 CURVE SMOOTH"
);
},
{
closed = 1;
nodes = (
"441 799 LINE",
"451 791 OFFCURVE",
"460 791 OFFCURVE",
"468 791 CURVE SMOOTH",
"506 791 OFFCURVE",
"526 837 OFFCURVE",
"526 865 CURVE SMOOTH",
"526 898 OFFCURVE",
"504 921 OFFCURVE",
"468 927 CURVE",
"469 928 LINE",
"506 922 OFFCURVE",
"535 896 OFFCURVE",
"535 859 CURVE SMOOTH",
"535 830 OFFCURVE",
"513 786 OFFCURVE",
"470 786 CURVE SMOOTH",
"458 786 OFFCURVE",
"450 789 OFFCURVE",
"441 797 CURVE"
);
}
);
width = 457;
}
);
leftKerningGroup = hporizq;
},
